<svg
  xmlns="http://www.w3.org/2000/svg"
  xml:space="preserve"
  width="362520.31"
  height="253162.73"
  fill="none"
  stroke-linecap="square"
  stroke-miterlimit="10"
>
  <path
    d="M94.41 0 69.34 43.43 231.3 0Zm138.73 0 118.43 118.44L283.2 0ZM68.29 45.24 0 163.58l24.96 43.26Zm90.37 66.12L128.5 163.6h-.01l30.15 52.24h60.21L249 163.6l-30.13-52.24zm193.93 8.84-43.5 162.14 68.54-118.74zM26.25 209.06l68.15 118.1h49.95Zm282.04 74.67-161.95 43.44h136.9z"
    style="fill: #000; stroke-width: 0.829618; stroke-linecap: square; stroke-miterlimit: 10"
  /><path
    fill="#000"
    fill-rule="evenodd"
    d="M26.8 362.36v57.05h16.13v-21.35h18.42v21.35H77.5v-57.05H61.35v21.52H42.93v-21.52zm85.53 20.32a127.05 127.05 0 0 0 1.99 6.17c.43 1.25.92 2.6 1.47 4.07l2.07 5.63H106.7l2.07-5.63 1.52-4.15a120.45 120.45 0 0 0 2.04-6.09zM106 362.36l-22.73 57.05H99l3.49-9.46h19.58l3.5 9.46h16.04l-22.57-57.05zm41.4 0v57.05h40.99v-13.94h-24.86v-43.1zm49.23 0v13.22h9.93v30.63h-9.93v13.2h35.93v-13.2h-9.86v-30.63h9.86v-13.22zm73.01 13.94c2 0 3.8.36 5.37 1.07 1.58.7 2.95 1.7 4.11 2.97a13.34 13.34 0 0 1 2.74 4.6c.65 1.8.98 3.78.98 5.95 0 2.17-.33 4.15-.98 5.95a13.96 13.96 0 0 1-2.68 4.61 11.89 11.89 0 0 1-4.13 2.97c-1.6.7-3.4 1.05-5.4 1.05h-8.09V376.3Zm-24.2-13.94v57.05h24.6c4.3 0 8.2-.7 11.74-2.1a27.9 27.9 0 0 0 9.2-5.92 26 26 0 0 0 6.04-9.05 30.27 30.27 0 0 0 2.12-11.45c0-4.18-.7-8-2.12-11.48a25.92 25.92 0 0 0-6.04-9 27.9 27.9 0 0 0-9.2-5.92 31.27 31.27 0 0 0-11.74-2.13zm63.8 0v57.05h42.7v-13.28h-27.22v-9.37h22.73V384.2h-22.73v-8.56h26v-13.29zm-266.6 76.17c-2.3 0-4.42.38-6.36 1.13a14.52 14.52 0 0 0-8.34 7.96 15.23 15.23 0 0 0-1.2 6.06c0 2.22.39 4.25 1.15 6.1a13.96 13.96 0 0 0 3.25 4.78c1.4 1.35 3.05 2.4 4.97 3.14a18.36 18.36 0 0 0 14.5-.83 9.52 9.52 0 0 0 2.8-2.09l-3.9-6.2c-.5.5-1.07.97-1.71 1.38a9 9 0 0 1-2.1 1c-.76.25-1.57.38-2.43.38a9.54 9.54 0 0 1-3.31-.55 7.56 7.56 0 0 1-2.54-1.51 6.5 6.5 0 0 1-1.62-2.38 8.35 8.35 0 0 1-.57-3.14c0-1.22.19-2.3.57-3.25a6.63 6.63 0 0 1 3.9-3.93 8 8 0 0 1 2.9-.52 7.75 7.75 0 0 1 4.41 1.33c.58.42 1.11.89 1.59 1.42l4.95-5.75c-.92-1-1.96-1.83-3.13-2.49a15.84 15.84 0 0 0-7.78-2.04zm28.76 7.66c1 0 1.92.18 2.78.54a6.5 6.5 0 0 1 2.25 1.56 7.15 7.15 0 0 1 1.48 2.4c.34.9.52 1.9.52 2.99a8.4 8.4 0 0 1-.52 3c-.35.9-.84 1.7-1.48 2.39a6.5 6.5 0 0 1-2.25 1.55c-.86.37-1.79.55-2.79.55a7.25 7.25 0 0 1-2.83-.55 6.51 6.51 0 0 1-2.24-1.55 7.24 7.24 0 0 1-1.48-2.4 8.4 8.4 0 0 1-.52-3c0-1.1.17-2.11.52-3 .35-.91.84-1.7 1.48-2.38a6.47 6.47 0 0 1 2.24-1.56c.86-.36 1.8-.55 2.83-.55zm0-7.66c-2.25 0-4.32.38-6.2 1.13a14.36 14.36 0 0 0-8.13 7.94 15.66 15.66 0 0 0-1.15 6.08c0 2.19.38 4.2 1.14 6.05a14.3 14.3 0 0 0 8.13 7.97c1.9.75 3.96 1.12 6.2 1.12 2.25 0 4.31-.37 6.18-1.12 1.88-.75 3.52-1.8 4.91-3.16a13.92 13.92 0 0 0 3.23-4.8 16.06 16.06 0 0 0 1.12-6.1c0-2.2-.37-4.2-1.12-6.04a13.96 13.96 0 0 0-3.23-4.79 14.84 14.84 0 0 0-4.9-3.15 16.5 16.5 0 0 0-6.19-1.13zm20.6.75v29.13h7.94v-7.79a110.01 110.01 0 0 0-.26-7.86l5.8 9.16h2.74l5.97-9.24-.09 1.2c-.12 2-.18 4.25-.18 6.74v7.79h7.95v-29.13h-6.95l-7.92 12.7-7.8-12.7zm48.26 7.12c.58 0 1.1.1 1.54.3.44.21.8.53 1.06.94.26.42.4.94.4 1.59a2.8 2.8 0 0 1-3 2.99h-3.37v-5.83zm-11.48-7.12v29.13H137v-9.07h4.67a9.69 9.69 0 0 0 8.71-4.98c.87-1.54 1.31-3.3 1.31-5.26a9.4 9.4 0 0 0-4.89-8.55 10.28 10.28 0 0 0-5.13-1.27zm40.06 6.62c.81 0 1.48.13 2.02.4.54.26.95.63 1.23 1.12.28.48.42 1.05.42 1.72 0 .7-.14 1.3-.4 1.81s-.64.92-1.13 1.2c-.48.3-1.08.44-1.8.44h-4.58v-6.7zm-11.98-6.62v29.13h7.74v-9.9h2.29l5.58 9.9h9.28l-6.41-11.04a9.44 9.44 0 0 0 3.89-3.65 10.1 10.1 0 0 0 1.31-5.16 8.76 8.76 0 0 0-4.95-8.07 11.29 11.29 0 0 0-5.29-1.21zm29.34 0v29.13H208v-6.78h-13.9v-4.8h11.61v-6.4h-11.6v-4.37h13.27v-6.78zm37.2-.75c-1.5 0-2.94.22-4.3.65a11.42 11.42 0 0 0-3.65 1.87 9.74 9.74 0 0 0-2.54 2.93 7.5 7.5 0 0 0-.96 3.74c0 1.25.2 2.38.6 3.38.4 1 1.02 1.87 1.84 2.64a11.4 11.4 0 0 0 3.06 1.97c1.22.56 2.65 1.02 4.28 1.38l1.37.31a10.18 10.18 0 0 1 2.71.96c.39.2.7.45.91.73.23.27.34.6.34 1 0 .44-.13.81-.4 1.1-.26.3-.64.5-1.14.63a7 7 0 0 1-1.67.18c-1.38 0-2.81-.3-4.28-.9-1.47-.59-2.9-1.8-4.28-3.6l-4.83 5.45c.97 1.2 2.07 2.24 3.3 3.13a13.9 13.9 0 0 0 4.29 2.04c1.62.47 3.48.7 5.56.7 2.22 0 4.2-.37 5.97-1.1a9.68 9.68 0 0 0 4.2-3.24 8.7 8.7 0 0 0 1.56-5.27c0-1.41-.25-2.65-.75-3.7a7.32 7.32 0 0 0-2.16-2.69 12.74 12.74 0 0 0-3.31-1.83 25.1 25.1 0 0 0-4.18-1.18l-1.48-.31c-.54-.13-1.05-.29-1.52-.48a3.8 3.8 0 0 1-1.17-.73c-.3-.3-.45-.63-.45-1.02 0-.44.14-.8.41-1.06.28-.26.68-.47 1.19-.6a7.72 7.72 0 0 1 4.02.1 8.5 8.5 0 0 1 3.99 2.51l4.9-4.74a10.67 10.67 0 0 0-6.2-4.35 19.7 19.7 0 0 0-5.23-.6zm26.55 0c-1.5 0-2.94.22-4.31.65a11.42 11.42 0 0 0-3.64 1.87 9.74 9.74 0 0 0-2.54 2.93 7.5 7.5 0 0 0-.96 3.74c0 1.25.2 2.38.6 3.38.4 1 1.02 1.87 1.83 2.64a11.4 11.4 0 0 0 3.06 1.97c1.23.56 2.66 1.02 4.3 1.38l1.36.31a10.18 10.18 0 0 1 2.7.96c.4.2.7.45.92.73.22.27.33.6.33 1 0 .44-.13.81-.39 1.1-.26.3-.64.5-1.14.63a7 7 0 0 1-1.67.18c-1.39 0-2.81-.3-4.29-.9-1.46-.59-2.89-1.8-4.28-3.6l-4.83 5.45a17.5 17.5 0 0 0 3.31 3.13 13.9 13.9 0 0 0 4.29 2.04c1.62.47 3.48.7 5.56.7 2.21 0 4.2-.37 5.96-1.1a9.68 9.68 0 0 0 4.2-3.24 8.7 8.7 0 0 0 1.57-5.27c0-1.41-.25-2.65-.75-3.7a7.32 7.32 0 0 0-2.17-2.69 12.74 12.74 0 0 0-3.3-1.83 25.1 25.1 0 0 0-4.19-1.18l-1.47-.31a11.4 11.4 0 0 1-1.53-.48 3.8 3.8 0 0 1-1.16-.73c-.3-.3-.45-.63-.45-1.02 0-.44.13-.8.4-1.06.29-.26.68-.47 1.2-.6a7.72 7.72 0 0 1 4.02.1 8.5 8.5 0 0 1 3.99 2.51l4.9-4.74a10.67 10.67 0 0 0-6.2-4.35 19.7 19.7 0 0 0-5.23-.6zm16.39.75v6.74h5.08v15.65h-5.08v6.74h18.35v-6.74h-5.03v-15.65h5.03v-6.74zm38.03 6.91c1 0 1.93.18 2.79.54a6.5 6.5 0 0 1 2.25 1.56 7.15 7.15 0 0 1 1.47 2.4c.35.9.53 1.9.53 2.99a8.4 8.4 0 0 1-.53 3c-.34.9-.84 1.7-1.47 2.39a6.5 6.5 0 0 1-2.25 1.55 7 7 0 0 1-2.8.55 7.25 7.25 0 0 1-2.82-.55 6.51 6.51 0 0 1-2.24-1.55 7.24 7.24 0 0 1-1.48-2.4 8.4 8.4 0 0 1-.52-3c0-1.1.17-2.11.52-3 .35-.91.84-1.7 1.48-2.38a6.47 6.47 0 0 1 2.24-1.56c.86-.36 1.8-.55 2.83-.55zm0-7.66c-2.24 0-4.31.38-6.2 1.13a14.36 14.36 0 0 0-8.13 7.94 15.66 15.66 0 0 0-1.15 6.08c0 2.19.39 4.2 1.15 6.05a14.3 14.3 0 0 0 8.13 7.97c1.89.75 3.96 1.12 6.2 1.12 2.25 0 4.3-.37 6.18-1.12 1.88-.75 3.51-1.8 4.91-3.16a13.92 13.92 0 0 0 3.23-4.8 16.06 16.06 0 0 0 1.12-6.1c0-2.2-.37-4.2-1.12-6.04a13.96 13.96 0 0 0-3.23-4.79 14.84 14.84 0 0 0-4.9-3.15 16.5 16.5 0 0 0-6.2-1.13zm20.6.75v29.13h7.94v-8.66c0-.89 0-1.68-.02-2.37a41.86 41.86 0 0 0-.23-3.87 53.4 53.4 0 0 0-.13-1.38l11.91 16.28h7.45v-29.13h-7.94v9.11a45.44 45.44 0 0 0 .22 4.7 141.74 141.74 0 0 0 .3 2.83l-12.14-16.64z"
  />
</svg>
