<svg xmlns="http://www.w3.org/2000/svg" width="798" height="846" fill="none" stroke-linecap="square" stroke-miterlimit="10"><path fill="oklch(0.95 0.06 83)" d="M0 0h798v846H0V0Z"/><path stroke="#c8b997" stroke-linecap="butt" d="M188.5 137.5v617m98-617v617m98-617v617m99-617v617m98-617v617m98-617v617"/><path stroke="#23211b" stroke-linecap="butt" d="M98.5 754.5h660"/><path stroke="#c8b997" stroke-linecap="butt" d="M98.5 599.5h660m-660-154h660m-660-154h660m-660-154h660"/><clipPath id="a"><path d="M98.9 137.1h659.2v617H98.9v-617Z"/></clipPath><path stroke="#90f" stroke-linecap="butt" stroke-width="4" d="M102.3 629.7s33.7-72.53 48.77-97.47c15.07-24.95 30.14-42.33 45.2-59.3 15.07-16.95 32.11-32.18 48.17-45.22 16.05-13.04 35.1-25.03 51.65-35.4a608.18 608.18 0 0 1 49.66-28.24c16.56-8.32 34.86-15.97 52.3-22.85 17.42-6.88 40.8-15.83 61.2-21.56 20.4-5.73 282.77-59.17 282.77-59.17" clip-path="url(#a)"/><path stroke="#666" stroke-dasharray="13.0,9.0" stroke-linecap="butt" stroke-width="4" d="M113.83 669.31s40.04-82.3 57.57-110.14c17.53-27.84 35.06-47.65 52.59-66.43 17.53-18.77 35.97-33.25 53.96-47.42 17.98-14.16 38.63-27.83 54.66-38.04a636.26 636.26 0 0 1 48.08-27.82c16.03-8.34 34.59-16.66 51.88-24.01 17.3-7.35 40.56-17.36 60.84-23.58 20.27-6.22 264.69-59.8 264.69-59.8" clip-path="url(#a)"/><path stroke="#c27ba0" stroke-dasharray="4.0,5.0" stroke-linecap="butt" stroke-width="4" d="M113.27 593.96s24.2-45.88 36.3-64.27c12.1-18.39 29.44-39.94 44.16-56 14.72-16.07 36.25-35.43 54.38-49.73 18.13-14.31 42.32-29.91 63.48-42.15 21.16-12.24 47.33-25.07 71-35 23.66-9.92 78.01-28.61 110.93-38.35 32.92-9.74 65.95-17.17 98.75-24.3 32.8-7.13 98.41-18.58 98.41-18.58" clip-path="url(#a)"/><path stroke="#434343" stroke-linecap="butt" stroke-width="4" d="M146.86 693.3s45.98-118.6 68.97-158.85c23-40.24 67.51-84.41 83.37-99.84 15.85-15.44 33.44-26.16 47.56-35.64a451.46 451.46 0 0 1 42.36-25.12c14.12-7.4 33.1-15.86 49.66-22.55 16.55-6.68 52.14-20.1 78.2-27.69 26.08-7.6 120.85-27.62 120.85-27.62" clip-path="url(#a)"/><path d="M105.3 629.7a3 3 0 1 1-6 0 3 3 0 0 1 6 0Zm48.77-97.47a3 3 0 1 1-6 0 3 3 0 0 1 6 0Zm45.2-59.29a3 3 0 1 1-6 0 3 3 0 0 1 6 0Zm48.17-45.23a3 3 0 1 1-6 0 3 3 0 0 1 6 0Zm51.65-35.41a3 3 0 1 1-6 0 3 3 0 0 1 6 0Zm49.66-28.23a3 3 0 1 1-6 0 3 3 0 0 1 6 0Zm52.29-22.85a3 3 0 1 1-6 0 3 3 0 0 1 6 0Zm61.21-21.56a3 3 0 1 1-6 0 3 3 0 0 1 6 0Zm282.77-59.17a3 3 0 1 1-6 0 3 3 0 0 1 6 0ZM116.83 669.31a3 3 0 1 1-6 0 3 3 0 0 1 6 0Zm57.57-110.14a3 3 0 1 1-6 0 3 3 0 0 1 6 0Zm52.59-66.43a3 3 0 1 1-6 0 3 3 0 0 1 6 0Zm53.96-47.42a3 3 0 1 1-6 0 3 3 0 0 1 6 0Zm54.65-38.04a3 3 0 1 1-6 0 3 3 0 0 1 6 0Zm48.1-27.82a3 3 0 1 1-6 0 3 3 0 0 1 6 0Zm51.87-24.01a3 3 0 1 1-6 0 3 3 0 0 1 6 0Zm60.83-23.58a3 3 0 1 1-6 0 3 3 0 0 1 6 0Zm264.7-59.81a3 3 0 1 1-6 0 3 3 0 0 1 6 0Zm-644.83 321.9a3 3 0 1 1-6 0 3 3 0 0 1 6 0Z" clip-path="url(#a)"/><path d="M152.57 529.7a3 3 0 1 1-6 0 3 3 0 0 1 6 0Zm44.16-56.01a3 3 0 1 1-6 0 3 3 0 0 1 6 0Zm54.38-49.73a3 3 0 1 1-6 0 3 3 0 0 1 6 0Zm63.48-42.16a3 3 0 1 1-6 0 3 3 0 0 1 6 0Zm71-34.99a3 3 0 1 1-6 0 3 3 0 0 1 6 0Zm110.93-38.35a3 3 0 1 1-6 0 3 3 0 0 1 6 0Zm98.75-24.3a3 3 0 1 1-6 0 3 3 0 0 1 6 0Zm98.41-18.58a3 3 0 1 1-6 0 3 3 0 0 1 6 0ZM149.86 693.3a3 3 0 1 1-6 0 3 3 0 0 1 6 0Zm68.97-158.85a3 3 0 1 1-6 0 3 3 0 0 1 6 0Zm83.37-99.85a3 3 0 1 1-6 0 3 3 0 0 1 6 0Zm47.56-35.63a3 3 0 1 1-6 0 3 3 0 0 1 6 0Zm42.36-25.12a3 3 0 1 1-6 0 3 3 0 0 1 6 0Zm49.66-22.55a3 3 0 1 1-6 0 3 3 0 0 1 6 0Zm78.21-27.69a3 3 0 1 1-6 0 3 3 0 0 1 6 0Zm120.84-27.62a3 3 0 1 1-6 0 3 3 0 0 1 6 0Z" clip-path="url(#a)"/><path fill="#201300" d="M391.72 799.8h-3.24l-.65 1.8h.94q.17 0 .25.08.07.06.07.17 0 .1-.07.19-.08.06-.25.06h-1.85q-.17 0-.25-.06-.08-.08-.08-.19 0-.1.08-.17.08-.08.25-.08h.4l2.16-5.86h-1.45q-.17 0-.25-.06-.08-.08-.08-.19 0-.1.08-.17.08-.08.25-.08h2.49l2.39 6.36h.39q.17 0 .25.08.07.06.07.17 0 .1-.07.19-.08.06-.25.06h-1.85q-.17 0-.25-.06-.07-.08-.07-.19 0-.1.07-.17.08-.08.25-.08h.94l-.67-1.8Zm-.19-.48-1.36-3.58H390l-1.33 3.58h2.86Zm6 2.78h-.83l-2.03-4.58h-.5q-.17 0-.25-.06-.08-.08-.08-.19 0-.1.08-.17.08-.08.25-.08h1.85q.18 0 .25.08.07.06.07.17 0 .11-.07.19-.07.06-.25.06h-.82l1.82 4.08h.21l1.77-4.08h-.83q-.17 0-.25-.06-.08-.08-.08-.19 0-.1.08-.17.08-.08.25-.08h1.86q.17 0 .25.08.08.06.08.17 0 .11-.08.19-.08.06-.25.06h-.5l-2 4.58Zm9.24-2.42h-5.02q.13.95.8 1.55.67.57 1.65.57.57 0 1.16-.17.6-.19.98-.5.11-.08.2-.08.1 0 .16.08.08.06.08.17 0 .1-.1.2-.27.29-1 .54-.71.25-1.48.25-1.26 0-2.1-.83-.85-.83-.85-2 0-1.08.8-1.84.8-.77 1.97-.77 1.2 0 1.98.8.78.78.77 2.03Zm-.5-.5q-.14-.81-.77-1.31-.63-.52-1.48-.52-.86 0-1.49.5-.62.5-.78 1.33h4.52Zm4.25-2.16v1.25q.95-.87 1.42-1.12.48-.25.89-.25.44 0 .81.3.4.3.4.45 0 .1-.09.18-.07.07-.18.07l-.1-.02q-.05-.01-.15-.12-.2-.2-.36-.28-.14-.08-.3-.08-.31 0-.78.26-.45.25-1.56 1.25v2.69h2.17q.19 0 .26.08.08.06.08.17 0 .1-.08.19-.07.06-.26.06h-3.86q-.17 0-.25-.06-.08-.08-.08-.17 0-.11.08-.18.08-.06.25-.06h1.19v-4.1h-.91q-.17 0-.25-.07-.08-.08-.08-.19 0-.1.08-.17.08-.08.25-.08h1.4Zm9 5.08v-.7q-1.08.89-2.3.89-.88 0-1.38-.44-.5-.45-.5-1.1 0-.71.66-1.24.66-.55 1.92-.55.33 0 .72.05.4.04.88.14v-.8q0-.4-.38-.7-.37-.3-1.12-.3-.58 0-1.61.33l-.24.06q-.1 0-.17-.06-.06-.08-.06-.19 0-.1.06-.16.08-.09.66-.23.92-.25 1.39-.25.92 0 1.43.47.54.45.54 1.03v3.25h.65q.19 0 .25.08.08.06.08.17 0 .1-.08.19-.06.06-.25.06h-1.15Zm0-2.45q-.35-.1-.74-.14-.39-.05-.81-.05-1.08 0-1.67.45-.46.36-.46.83 0 .45.35.77.34.3 1.01.3.64 0 1.2-.26.54-.26 1.12-.8v-1.1Zm7.23-1.72v-.9h1.16q.18 0 .25.07.07.06.07.17 0 .11-.07.19-.07.06-.25.06h-.66v4.92q0 .49-.22.88-.14.26-.47.53-.33.28-.6.4-.26.12-.71.12h-1.4q-.16 0-.24-.08-.08-.06-.08-.17 0-.11.08-.2.08-.05.25-.05h1.4q.44 0 .79-.22.36-.22.57-.66.13-.23.13-.62v-1.47q-.78 1.08-2.03 1.08-1.02 0-1.75-.75-.74-.75-.74-1.82 0-1.06.74-1.81.73-.75 1.75-.75 1.25 0 2.03 1.08Zm0 1.48q0-.87-.6-1.47-.59-.59-1.42-.59-.8 0-1.4.6-.6.6-.6 1.46t.6 1.47q.6.6 1.4.6.83 0 1.43-.6.59-.6.59-1.47Zm8.02.27h-5.02q.13.95.8 1.55.67.57 1.65.57.57 0 1.16-.17.6-.19.98-.5.11-.08.2-.08.1 0 .16.08.08.06.08.17 0 .1-.1.2-.27.29-1 .54-.71.25-1.48.25-1.26 0-2.1-.83-.85-.83-.85-2 0-1.08.8-1.84.8-.77 1.97-.77 1.2 0 1.98.8.78.78.77 2.03Zm-.5-.5q-.14-.81-.77-1.31-.63-.52-1.48-.52-.86 0-1.49.5-.62.5-.78 1.33h4.52Zm13.59-3.44v-.17q0-.17.06-.25.08-.08.19-.08.1 0 .17.08.08.08.08.25v1.25q0 .19-.08.26-.06.07-.17.07-.11 0-.17-.07-.06-.07-.08-.23-.03-.48-.52-.88-.46-.39-1.23-.39-.81 0-1.3.43-.48.4-.48.98 0 .28.12.53.14.24.36.4.24.13.52.23t.87.18q1 .18 1.4.35.5.22.76.62t.26.96q0 .84-.68 1.43-.67.6-1.81.6-1.29 0-2.05-.8v.28q0 .17-.08.25-.06.08-.17.08-.11 0-.19-.08-.06-.08-.06-.25v-1.36q0-.18.06-.25.08-.08.19-.08.1 0 .17.08.08.07.08.22.03.53.58.99.54.43 1.46.43.93 0 1.46-.45.55-.47.55-1.1 0-.4-.2-.7-.21-.3-.62-.48-.28-.11-1.17-.27-1.22-.2-1.76-.62t-.54-1.2q0-.79.61-1.33.63-.57 1.64-.57 1.04 0 1.77.66Zm5.48-1.23v1.26h-.71v-1.26h.71Zm.02 2.51v4.58h1.94q.18 0 .25.08.07.06.07.17 0 .1-.07.19-.07.06-.25.06h-4.36q-.17 0-.25-.06-.08-.08-.08-.19 0-.1.08-.17.08-.08.25-.08h1.94v-4.08h-1.44q-.17 0-.27-.06-.08-.08-.08-.19 0-.1.08-.17.08-.08.27-.08h1.92Zm8.89 0v.44l-3.69 4.14h3.33v-.67q0-.17.06-.25.08-.08.2-.08.1 0 .16.08.08.08.08.25v1.17h-4.5v-.44l3.67-4.14h-3.06v.67q0 .18-.08.25-.06.08-.17.08-.1 0-.19-.08-.06-.07-.06-.25v-1.17h4.25Zm7.52 2.66h-5.02q.13.95.8 1.55.67.57 1.65.57.57 0 1.16-.17.6-.19.98-.5.11-.08.2-.08.1 0 .16.08.08.06.08.17 0 .1-.1.2-.27.29-1 .54-.71.25-1.48.25-1.26 0-2.1-.83-.85-.83-.85-2 0-1.08.8-1.84.8-.77 1.97-.77 1.2 0 1.98.8.78.78.77 2.03Zm-.5-.5q-.14-.81-.77-1.31-.63-.52-1.48-.52-.86 0-1.49.5-.62.5-.78 1.33h4.52ZM47.6 502.88v3.24l1.8.65v-.94q0-.17.08-.25.06-.07.17-.07.1 0 .19.07.06.08.06.25v1.85q0 .17-.06.25-.08.08-.19.08-.1 0-.17-.08-.08-.08-.08-.25v-.4l-5.86-2.16v1.45q0 .17-.06.25-.08.08-.19.08-.1 0-.17-.08-.08-.08-.08-.25v-2.49l6.36-2.39v-.39q0-.17.08-.25.06-.07.17-.07.1 0 .19.07.06.08.06.25v1.85q0 .17-.06.25-.08.08-.19.08-.1 0-.17-.08-.08-.08-.08-.25v-.94l-1.8.67Zm-.48.19-3.58 1.36v.17l3.58 1.33v-2.86Zm2.78-6v.83l-4.58 2.03v.5q0 .17-.06.25-.08.08-.19.08-.1 0-.17-.08-.08-.08-.08-.25v-1.85q0-.18.08-.25.06-.07.17-.07.11 0 .19.07.06.07.06.25v.82l4.08-1.82v-.21l-4.08-1.77v.83q0 .17-.06.25-.08.08-.19.08-.1 0-.17-.08-.08-.08-.08-.25v-1.86q0-.17.08-.25.06-.08.17-.08.11 0 .19.08.06.08.06.25v.5l4.58 2Zm-4.17-8.22h-.9v-1.16q0-.18.07-.25.06-.07.17-.07.11 0 .19.07.06.07.06.25v.66h4.92q.49 0 .88.22.26.14.53.47.28.33.4.6.12.26.12.71v1.4q0 .16-.08.24-.07.08-.17.08-.11 0-.2-.08-.05-.08-.05-.25v-1.4q0-.44-.22-.79-.22-.36-.66-.57-.23-.13-.62-.13H48.7q1.07.78 1.07 2.03 0 1.02-.75 1.75-.75.74-1.8.74-1.07 0-1.82-.74-.75-.73-.75-1.75 0-1.25 1.08-2.03Zm1.48 0q-.87 0-1.47.6-.59.59-.59 1.42 0 .8.6 1.4.6.6 1.46.6t1.47-.6q.6-.6.6-1.4 0-.83-.6-1.43-.6-.59-1.47-.59Zm1.28-5.25v-.2q0-.33.24-.57.22-.23.54-.23.35 0 .58.23.22.24.22.57v.2q0 .33-.22.56-.23.24-.56.24-.34 0-.56-.24-.24-.23-.24-.56Zm-4.95-15.86h-.17q-.17 0-.25-.06-.08-.08-.08-.19 0-.1.08-.17.08-.08.25-.08h1.25q.19 0 .26.08.07.06.07.17 0 .11-.07.17-.07.06-.23.08-.48.03-.88.52-.39.47-.39 1.23 0 .81.43 1.3.4.48.98.48.28 0 .53-.12.24-.14.4-.36.13-.24.23-.52t.18-.87q.18-1 .35-1.4.22-.5.62-.76t.96-.26q.84 0 1.43.68.6.67.6 1.81 0 1.29-.8 2.05h.28q.17 0 .25.08.08.06.08.17 0 .11-.08.19-.08.06-.25.06h-1.36q-.19 0-.25-.06-.08-.08-.08-.19 0-.1.08-.17.06-.08.22-.08.53-.03.99-.58.43-.54.43-1.46 0-.93-.45-1.46-.47-.54-1.1-.54-.4 0-.7.2-.3.2-.48.6-.11.29-.27 1.18-.2 1.22-.62 1.77-.42.53-1.2.53-.79 0-1.33-.61-.57-.63-.57-1.64 0-1.03.66-1.77Zm0-7h-.17q-.17 0-.25-.06-.08-.08-.08-.19 0-.1.08-.17.08-.08.25-.08h1.25q.19 0 .26.08.07.06.07.17 0 .11-.07.17-.07.06-.23.08-.48.03-.88.52-.39.47-.39 1.23 0 .81.43 1.3.4.48.98.48.28 0 .53-.12.24-.14.4-.36.13-.24.23-.52t.18-.87q.18-1 .35-1.4.22-.5.62-.76t.96-.26q.84 0 1.43.68.6.67.6 1.81 0 1.29-.8 2.05h.28q.17 0 .25.08.08.06.08.17 0 .11-.08.19-.08.06-.25.06h-1.36q-.19 0-.25-.06-.08-.08-.08-.19 0-.1.08-.17.06-.08.22-.08.53-.03.99-.58.43-.54.43-1.46 0-.93-.45-1.46-.47-.54-1.1-.54-.4 0-.7.2-.3.2-.48.6-.11.29-.27 1.18-.2 1.22-.62 1.77-.42.53-1.2.53-.79 0-1.33-.61-.57-.63-.57-1.64 0-1.03.66-1.77Zm0-5.48h5.86v-1.7q0-.18.08-.24.06-.08.17-.08.1 0 .19.08.06.06.06.25v3.86q0 .17-.06.25-.08.08-.19.08-.1 0-.17-.08-.08-.08-.08-.25v-1.69h-5.86v1.69q0 .17-.06.25-.08.08-.19.08-.1 0-.17-.08-.08-.08-.08-.25v-3.86q0-.19.08-.25.06-.08.17-.08.11 0 .19.08.06.06.06.25v1.69Zm4.3-7.08v.56l-4.3 1.9v.09h5.86v-.91q0-.19.08-.25.06-.08.17-.08.1 0 .19.08.06.06.06.25v1.81q0 .17-.06.25-.08.08-.19.08-.1 0-.17-.08-.08-.08-.08-.25v-.42h-5.86v.31q0 .17-.06.25-.08.08-.19.08-.1 0-.17-.08-.08-.08-.08-.25v-1.2l4.25-1.86-4.25-1.84v-1.2q0-.2.08-.26.06-.08.17-.08.11 0 .19.08.06.06.06.25v.31h5.86v-.42q0-.17.08-.25.06-.07.17-.07.1 0 .19.07.06.08.06.25v1.82q0 .17-.06.26-.08.08-.19.08-.1 0-.17-.08-.08-.08-.08-.26v-.91h-5.86v.1l4.3 1.87Zm-4.3-9.06h4.11q1.03 0 1.73.7.7.69.7 1.66 0 .65-.27 1.17-.29.5-.86.86-.6.36-1.3.36h-4.1v.42q0 .17-.07.25-.08.08-.19.08-.1 0-.19-.08-.06-.08-.06-.25v-1.81q0-.2.08-.25.06-.08.17-.08.11 0 .19.08.06.06.06.25v.9h4.11q.81 0 1.4-.56.55-.56.55-1.31 0-.49-.22-.9-.23-.4-.68-.7-.47-.3-1.05-.3h-4.1v.91q0 .17-.07.25-.08.08-.19.08-.1 0-.17-.08-.08-.08-.08-.25v-1.83q0-.17.08-.25.06-.07.17-.07.11 0 .19.07.06.08.06.25v.43Zm0-3.77h5.86v-3.27h-1.95q-.18 0-.25-.06-.08-.08-.08-.19 0-.1.08-.17.07-.08.25-.08h2.45v5.44q0 .17-.06.25-.08.08-.19.08-.1 0-.17-.08-.08-.08-.08-.25v-1.17h-5.86v1.17q0 .17-.06.25-.08.08-.19.08-.1 0-.17-.08-.08-.08-.08-.25v-2.84q0-.17.08-.25.06-.08.17-.08.11 0 .19.08.06.08.06.25v1.17Zm4.06-9.47v3.24l1.8.65v-.94q0-.17.08-.25.06-.07.17-.07.1 0 .19.07.06.08.06.25v1.85q0 .17-.06.25-.08.08-.19.08-.1 0-.17-.08-.08-.08-.08-.25v-.4l-5.86-2.16v1.45q0 .17-.06.25-.08.08-.19.08-.1 0-.17-.08-.08-.08-.08-.25v-2.49l6.36-2.39v-.39q0-.17.08-.25.06-.07.17-.07.1 0 .19.07.06.08.06.25v1.85q0 .17-.06.25-.08.08-.19.08-.1 0-.17-.08-.08-.08-.08-.25v-.94l-1.8.67Zm-.48.19-3.58 1.36v.17l3.58 1.33v-2.86Zm-3.4-7.74h-.35q-.17 0-.25-.06-.08-.08-.08-.19 0-.1.08-.17.08-.08.25-.08h1.37q.18 0 .25.08.08.06.08.17 0 .11-.06.18-.08.06-.24.07-.5.04-.87.54-.52.68-.52 1.54 0 .56.25 1.08.18.38.44.6.45.39 1.02.6.4.18.92.18h.86q1.1 0 1.92-.8.81-.8.81-1.86 0-.63-.26-1.13-.28-.5-.85-.96-.12-.11-.12-.24 0-.1.06-.15.06-.08.17-.08.13 0 .4.26.54.47.82 1.08.27.6.27 1.22 0 .53-.2 1.08-.16.42-.37.7-.21.27-.71.67t-.93.55q-.42.14-.93.14h-1q-.74 0-1.49-.4-.76-.38-1.17-1.05-.4-.67-.4-1.47 0-1.22.82-2.1Zm3.12-3.23h2.56v-.9q0-.2.08-.26.06-.07.17-.07.1 0 .19.07.06.07.06.25v2.07q0 .17-.06.25-.08.07-.19.07-.1 0-.17-.07-.08-.08-.08-.25v-.66h-5.86v.66q0 .17-.06.25-.08.07-.19.07-.1 0-.17-.07-.08-.08-.08-.25v-2.99q0-.9.6-1.53.57-.64 1.3-.64.52 0 1 .4.46.38.77 1.29.36-.52.83-.9.45-.37 1.86-1.2v-.37q0-.19.08-.25.06-.08.17-.08.1 0 .19.08.06.06.06.25v.66q-1.64.9-2.19 1.4-.56.5-.87 1.16v1.56Zm-.49 0v-1.34q0-.64-.23-1.16-.24-.53-.55-.77-.33-.25-.65-.25-.49 0-.93.5-.45.5-.45 1.2v1.82h2.81Zm1.25-10.22v3.24l1.8.65v-.94q0-.17.08-.25.06-.07.17-.07.1 0 .19.07.06.08.06.25v1.85q0 .17-.06.25-.08.08-.19.08-.1 0-.17-.08-.08-.08-.08-.25v-.4l-5.86-2.16v1.45q0 .17-.06.25-.08.08-.19.08-.1 0-.17-.08-.08-.08-.08-.25v-2.49l6.36-2.39v-.39q0-.17.08-.25.06-.07.17-.07.1 0 .19.07.06.08.06.25v1.85q0 .17-.06.25-.08.08-.19.08-.1 0-.17-.08-.08-.08-.08-.25v-.94l-1.8.67Zm-.48.19-3.58 1.36v.17l3.58 1.33v-2.86Zm2.28-3.45v-3.79h-.19q-.17 0-.25-.06-.08-.08-.08-.19 0-.1.08-.17.08-.08.25-.08h.69v4.77h-.73q-1.35-1.5-2.74-2.92-.66-.66-.95-.9-.31-.26-.53-.34-.24-.09-.47-.09-.64 0-1.13.52-.48.5-.48 1.21 0 .65.37 1.15.36.5.91.64.14.04.19.09.04.06.04.16t-.06.17q-.06.06-.15.06-.29 0-.77-.3-.48-.3-.75-.84-.28-.55-.28-1.13 0-.92.64-1.57.64-.66 1.45-.66.33 0 .63.1.28.12.62.38.33.27 1 .96 1.72 1.73 2.66 2.83h.03Zm42.36 351.2v1.22q0 1.58-.75 2.51-.6.72-1.5.72-.44 0-.83-.17-.37-.17-.64-.48-.17-.2-.37-.61-.2-.44-.29-.8-.14-.5-.14-1.17v-1.22q0-1.6.75-2.52.6-.73 1.5-.73.44 0 .82.17.39.17.65.49.17.2.38.64.2.42.3.76.12.5.12 1.19Zm-.48.06q0-.7-.2-1.3-.21-.6-.45-.95-.15-.22-.39-.36-.32-.2-.75-.2-.82 0-1.3.84-.46.85-.46 1.97v1.08q0 .7.2 1.31.2.6.45.96.15.2.38.34.33.22.75.22.83 0 1.3-.85.47-.86.47-1.98v-1.08Zm-10.9-150.53h3.79v-.19q0-.17.06-.25.08-.08.19-.08.1 0 .17.08.08.08.08.25v.69H79.9v-.73q1.5-1.35 2.92-2.74.66-.65.9-.95.26-.31.34-.53.09-.24.09-.47 0-.64-.52-1.13-.5-.48-1.21-.48-.64 0-1.14.37-.5.36-.65.91-.04.14-.09.19-.06.04-.16.04t-.17-.06q-.06-.06-.06-.15 0-.29.3-.77.3-.48.84-.75.55-.28 1.13-.28.92 0 1.57.64.66.64.66 1.45 0 .33-.1.63-.12.28-.38.62-.27.33-.96 1-1.73 1.72-2.83 2.66v.03Zm7.77-6.36v2.4q.42-.16.81-.26.4-.1.77-.1.94 0 1.55.66.62.64.62 1.7 0 1.18-.7 1.91-.7.72-1.75.72-.7 0-1.35-.31-.45-.22-.82-.53-.22-.2-.22-.33 0-.1.06-.17.08-.08.17-.08.1 0 .2.1.9.84 1.93.84.87 0 1.43-.6.57-.59.57-1.56 0-.84-.5-1.34-.49-.5-1.24-.5-.76 0-1.53.39-.19.1-.27.1-.1 0-.17-.07-.06-.08-.06-.2v-3.27h3.44q.17 0 .25.08.08.06.08.17 0 .11-.08.19-.08.06-.25.06h-2.94Zm-7-154.25v2.4q.42-.16.81-.26.4-.1.77-.1.94 0 1.55.66.62.64.62 1.7 0 1.18-.7 1.91-.7.72-1.75.72-.7 0-1.35-.31-.45-.22-.82-.53-.22-.2-.22-.33 0-.1.06-.17.08-.08.17-.08.1 0 .2.1.9.84 1.93.84.87 0 1.43-.6.57-.59.57-1.56 0-.84-.5-1.34-.49-.5-1.24-.5-.76 0-1.53.39-.19.1-.27.1-.1 0-.17-.07-.06-.08-.06-.2v-3.27h3.44q.17 0 .25.08.08.06.08.17 0 .11-.08.19-.08.06-.25.06h-2.94Zm10.6 2.58v1.22q0 1.58-.74 2.51-.6.72-1.5.72-.44 0-.83-.17-.37-.17-.64-.48-.17-.2-.37-.61-.2-.44-.29-.8-.14-.5-.14-1.17v-1.22q0-1.6.75-2.52.6-.73 1.5-.73.44 0 .82.17.39.17.65.49.17.2.38.64.2.42.3.76.12.5.12 1.19Zm-.47.06q0-.7-.2-1.3-.21-.6-.45-.95-.15-.22-.39-.36-.32-.2-.75-.2-.82 0-1.3.84-.46.85-.46 1.97v1.08q0 .7.2 1.31.2.6.45.96.15.2.38.34.33.22.75.22.83 0 1.3-.85.47-.86.47-1.98v-1.08ZM84.15 287.7v-.2h-3.52v.43q0 .17-.07.25-.07.08-.18.08-.1 0-.18-.08-.07-.08-.07-.25v-.94h4.52v.8l-1.97 6.33q-.05.14-.12.2-.07.05-.14.05-.11 0-.2-.07-.05-.07-.05-.17 0-.06.04-.17l1.94-6.25Zm4-.2v2.4q.42-.17.81-.27.4-.1.77-.1.94 0 1.55.66.62.64.62 1.7 0 1.18-.7 1.91-.7.72-1.75.72-.7 0-1.35-.31-.45-.22-.82-.53-.22-.2-.22-.33 0-.1.06-.17.08-.08.17-.08.1 0 .2.1.9.84 1.93.84.87 0 1.43-.6.57-.59.57-1.56 0-.84-.5-1.34-.49-.5-1.24-.5-.76 0-1.53.39-.19.1-.27.1-.1 0-.17-.07-.06-.08-.06-.2v-3.27h3.44q.17 0 .25.08.08.06.08.17 0 .11-.08.19-.08.06-.25.06h-2.94ZM75.74 132.65v6.95h1.7q.16 0 .24.08.08.06.08.17 0 .1-.08.19-.08.06-.25.06h-3.86q-.19 0-.26-.06-.07-.08-.07-.19 0-.1.07-.17.07-.08.26-.08h1.69v-6.28l-1.61.51-.17.04q-.1 0-.17-.07-.07-.08-.07-.18 0-.08.07-.16.04-.05.18-.11l2.25-.7Zm9.02 3.17v1.22q0 1.58-.75 2.51-.6.72-1.5.72-.44 0-.83-.17-.37-.17-.64-.48-.17-.2-.37-.61-.2-.44-.29-.8-.14-.5-.14-1.17v-1.22q0-1.6.75-2.52.6-.73 1.5-.73.44 0 .82.17.39.17.65.48.17.2.38.65.2.42.3.76.12.5.12 1.19Zm-.48.06q0-.7-.2-1.3-.21-.6-.45-.95-.15-.22-.39-.36-.32-.2-.75-.2-.82 0-1.3.84-.46.85-.46 1.97v1.08q0 .7.2 1.31.2.6.45.95.15.2.38.35.33.22.75.22.83 0 1.3-.85.47-.86.47-1.98v-1.08Zm7.48-.06v1.22q0 1.58-.75 2.51-.6.72-1.5.72-.44 0-.83-.17-.37-.17-.64-.48-.17-.2-.37-.61-.2-.44-.29-.8-.14-.5-.14-1.17v-1.22q0-1.6.75-2.52.6-.73 1.5-.73.44 0 .82.17.39.17.65.48.17.2.38.65.2.42.3.76.12.5.12 1.19Zm-.48.06q0-.7-.2-1.3-.21-.6-.45-.95-.15-.22-.39-.36-.32-.2-.75-.2-.82 0-1.3.84-.46.85-.46 1.97v1.08q0 .7.2 1.31.2.6.45.95.15.2.38.35.33.22.75.22.83 0 1.3-.85.47-.86.47-1.98v-1.08Zm81.78 627.36v2.4q.42-.16.81-.26.4-.1.77-.1.94 0 1.55.66.62.64.62 1.7 0 1.18-.7 1.91-.7.72-1.75.72-.7 0-1.35-.31-.45-.22-.82-.53-.22-.2-.22-.33 0-.1.06-.17.08-.08.17-.08.1 0 .2.1.9.84 1.93.84.87 0 1.43-.6.57-.59.57-1.56 0-.84-.5-1.34-.49-.5-1.24-.5-.76 0-1.53.39-.19.1-.26.1-.11 0-.18-.07-.06-.08-.06-.2v-3.27H176q.17 0 .25.08.08.06.08.17 0 .11-.08.19-.08.06-.25.06h-2.94Zm10.61 2.58v1.22q0 1.58-.75 2.51-.6.72-1.5.72-.44 0-.83-.17-.37-.17-.64-.48-.17-.2-.37-.61-.2-.44-.28-.8-.15-.5-.15-1.17v-1.22q0-1.6.75-2.52.6-.73 1.5-.73.44 0 .82.17.39.17.65.49.18.2.38.64.2.42.3.76.12.5.12 1.19Zm-.48.06q0-.7-.2-1.3-.21-.6-.44-.95-.16-.22-.4-.36-.32-.2-.75-.2-.82 0-1.3.84-.46.85-.46 1.97v1.08q0 .7.2 1.31.2.6.46.96.14.2.37.34.33.22.75.22.83 0 1.3-.85.47-.86.47-1.98v-1.08Zm7.48-.06v1.22q0 1.58-.75 2.51-.6.72-1.5.72-.44 0-.83-.17-.37-.17-.64-.48-.17-.2-.37-.61-.2-.44-.28-.8-.15-.5-.15-1.17v-1.22q0-1.6.75-2.52.6-.73 1.5-.73.44 0 .82.17.39.17.65.49.18.2.38.64.2.42.3.76.12.5.12 1.19Zm-.48.06q0-.7-.2-1.3-.21-.6-.44-.95-.16-.22-.4-.36-.32-.2-.75-.2-.82 0-1.3.84-.46.85-.46 1.97v1.08q0 .7.2 1.31.2.6.46.96.14.2.37.34.33.22.75.22.83 0 1.3-.85.47-.86.47-1.98v-1.08Zm7.48-.06v1.22q0 1.58-.75 2.51-.6.72-1.5.72-.44 0-.83-.17-.37-.17-.64-.48-.17-.2-.37-.61-.2-.44-.28-.8-.15-.5-.15-1.17v-1.22q0-1.6.75-2.52.6-.73 1.5-.73.44 0 .82.17.39.17.65.49.18.2.38.64.2.42.3.76.12.5.12 1.19Zm-.48.06q0-.7-.2-1.3-.21-.6-.44-.95-.16-.22-.4-.36-.32-.2-.75-.2-.82 0-1.3.84-.46.85-.46 1.97v1.08q0 .7.2 1.31.2.6.46.96.14.2.37.34.33.22.75.22.83 0 1.3-.85.47-.86.47-1.98v-1.08Zm7.48-.06v1.22q0 1.58-.75 2.51-.6.72-1.5.72-.44 0-.83-.17-.37-.17-.64-.48-.17-.2-.37-.61-.2-.44-.28-.8-.15-.5-.15-1.17v-1.22q0-1.6.75-2.52.6-.73 1.5-.73.44 0 .82.17.39.17.65.49.18.2.38.64.2.42.3.76.12.5.12 1.19Zm-.48.06q0-.7-.2-1.3-.21-.6-.44-.95-.16-.22-.4-.36-.32-.2-.75-.2-.82 0-1.3.84-.46.85-.46 1.97v1.08q0 .7.2 1.31.2.6.46.96.14.2.37.34.33.22.75.22.83 0 1.3-.85.47-.86.47-1.98v-1.08Zm70.14-2.42v-.22h-3.51v.44q0 .17-.08.25-.06.08-.17.08-.11 0-.2-.08-.05-.08-.05-.25v-.94h4.51v.8l-1.97 6.33q-.04.14-.12.2-.06.05-.14.05-.11 0-.2-.07-.05-.07-.05-.17 0-.06.04-.17l1.94-6.25Zm4-.22v2.4q.42-.16.81-.26.41-.1.77-.1.94 0 1.55.66.62.64.62 1.7 0 1.18-.7 1.91-.7.72-1.75.72-.7 0-1.35-.31-.45-.22-.82-.53-.22-.2-.22-.33 0-.1.06-.17.08-.08.17-.08.1 0 .2.1.9.84 1.93.84.87 0 1.43-.6.57-.59.57-1.56 0-.84-.5-1.34-.49-.5-1.24-.5-.76 0-1.53.39-.19.1-.26.1-.11 0-.18-.07-.06-.08-.06-.2v-3.27h3.44q.17 0 .25.08.08.06.08.17 0 .11-.08.19-.08.06-.25.06h-2.94Zm10.61 2.58v1.22q0 1.58-.75 2.51-.6.72-1.5.72-.44 0-.83-.17-.37-.17-.64-.48-.17-.2-.37-.61-.2-.44-.28-.8-.14-.5-.14-1.17v-1.22q0-1.6.75-2.52.59-.73 1.5-.73.43 0 .8.17.4.17.66.49.18.2.38.64.2.42.3.76.12.5.12 1.19Zm-.48.06q0-.7-.2-1.3-.21-.6-.44-.95-.16-.22-.4-.36-.32-.2-.74-.2-.83 0-1.3.84-.47.85-.47 1.97v1.08q0 .7.2 1.31.2.6.46.96.14.2.37.34.33.22.75.22.83 0 1.3-.85.47-.86.47-1.98v-1.08Zm7.48-.06v1.22q0 1.58-.75 2.51-.6.72-1.5.72-.44 0-.83-.17-.37-.17-.64-.48-.17-.2-.37-.61-.2-.44-.28-.8-.14-.5-.14-1.17v-1.22q0-1.6.75-2.52.59-.73 1.5-.73.43 0 .8.17.4.17.66.49.18.2.38.64.2.42.3.76.12.5.12 1.19Zm-.48.06q0-.7-.2-1.3-.21-.6-.44-.95-.16-.22-.4-.36-.32-.2-.74-.2-.83 0-1.3.84-.47.85-.47 1.97v1.08q0 .7.2 1.31.2.6.46.96.14.2.37.34.33.22.75.22.83 0 1.3-.85.47-.86.47-1.98v-1.08Zm7.48-.06v1.22q0 1.58-.75 2.51-.6.72-1.5.72-.44 0-.83-.17-.37-.17-.64-.48-.17-.2-.37-.61-.2-.44-.28-.8-.14-.5-.14-1.17v-1.22q0-1.6.75-2.52.59-.73 1.5-.73.43 0 .8.17.4.17.66.49.18.2.38.64.2.42.3.76.12.5.12 1.19Zm-.48.06q0-.7-.2-1.3-.21-.6-.44-.95-.16-.22-.4-.36-.32-.2-.74-.2-.83 0-1.3.84-.47.85-.47 1.97v1.08q0 .7.2 1.31.2.6.46.96.14.2.37.34.33.22.75.22.83 0 1.3-.85.47-.86.47-1.98v-1.08Zm65.24-3.23v6.95h1.68q.18 0 .25.08.08.06.08.17 0 .1-.08.19-.07.06-.25.06h-3.86q-.18 0-.26-.06-.06-.08-.06-.19 0-.1.06-.17.08-.08.26-.08h1.7v-6.28l-1.62.51q-.12.04-.17.04-.1 0-.17-.07-.06-.07-.06-.18 0-.08.06-.16.05-.05.19-.11l2.25-.7Zm9.01 3.17v1.22q0 1.58-.75 2.51-.6.72-1.5.72-.44 0-.83-.17-.37-.17-.64-.48-.17-.2-.37-.61-.2-.44-.28-.8-.14-.5-.14-1.17v-1.22q0-1.6.75-2.52.59-.73 1.5-.73.43 0 .8.17.4.17.66.49.18.2.38.64.2.42.3.76.12.5.12 1.19Zm-.48.06q0-.7-.2-1.3-.2-.6-.44-.95-.16-.22-.4-.36-.32-.2-.74-.2-.83 0-1.3.84-.47.85-.47 1.97v1.08q0 .7.2 1.31.2.6.46.96.14.2.37.34.33.22.75.22.83 0 1.3-.85.47-.86.47-1.98v-1.08Zm7.48-.06v1.22q0 1.58-.75 2.51-.6.72-1.5.72-.44 0-.83-.17-.37-.17-.64-.48-.17-.2-.37-.61-.2-.44-.28-.8-.14-.5-.14-1.17v-1.22q0-1.6.75-2.52.59-.73 1.5-.73.43 0 .8.17.4.17.66.49.18.2.38.64.2.42.3.76.12.5.12 1.19Zm-.48.06q0-.7-.2-1.3-.2-.6-.44-.95-.16-.22-.4-.36-.32-.2-.74-.2-.83 0-1.3.84-.47.85-.47 1.97v1.08q0 .7.2 1.31.2.6.46.96.14.2.37.34.33.22.75.22.83 0 1.3-.85.47-.86.47-1.98v-1.08Zm7.48-.06v1.22q0 1.58-.75 2.51-.6.72-1.5.72-.44 0-.83-.17-.37-.17-.64-.48-.17-.2-.37-.61-.2-.44-.28-.8-.14-.5-.14-1.17v-1.22q0-1.6.75-2.52.59-.73 1.5-.73.43 0 .8.17.4.17.66.49.18.2.38.64.2.42.3.76.12.5.12 1.19Zm-.48.06q0-.7-.2-1.3-.2-.6-.44-.95-.16-.22-.4-.36-.32-.2-.74-.2-.83 0-1.3.84-.47.85-.47 1.97v1.08q0 .7.2 1.31.2.6.46.96.14.2.37.34.33.22.75.22.83 0 1.3-.85.47-.86.47-1.98v-1.08Zm7.48-.06v1.22q0 1.58-.75 2.51-.6.72-1.5.72-.44 0-.83-.17-.37-.17-.64-.48-.17-.2-.37-.61-.2-.44-.28-.8-.14-.5-.14-1.17v-1.22q0-1.6.75-2.52.59-.73 1.5-.73.43 0 .8.17.4.17.66.49.18.2.38.64.2.42.3.76.12.5.12 1.19Zm-.48.06q0-.7-.2-1.3-.2-.6-.44-.95-.16-.22-.4-.36-.32-.2-.74-.2-.83 0-1.3.84-.47.85-.47 1.97v1.08q0 .7.2 1.31.2.6.46.96.14.2.37.34.33.22.75.22.83 0 1.3-.85.47-.86.47-1.98v-1.08Zm7.48-.06v1.22q0 1.58-.75 2.51-.6.72-1.5.72-.44 0-.83-.17-.37-.17-.64-.48-.17-.2-.37-.61-.2-.44-.28-.8-.14-.5-.14-1.17v-1.22q0-1.6.75-2.52.59-.73 1.5-.73.43 0 .8.17.4.17.66.49.18.2.38.64.2.42.3.76.12.5.12 1.19Zm-.48.06q0-.7-.2-1.3-.2-.6-.44-.95-.16-.22-.4-.36-.32-.2-.74-.2-.83 0-1.3.84-.47.85-.47 1.97v1.08q0 .7.2 1.31.2.6.46.96.14.2.37.34.33.22.75.22.83 0 1.3-.85.47-.86.47-1.98v-1.08Zm61.74-3.23v6.95h1.68q.18 0 .25.08.08.06.08.17 0 .1-.08.19-.07.06-.25.06h-3.86q-.18 0-.26-.06-.06-.08-.06-.19 0-.1.06-.17.08-.08.26-.08h1.7v-6.28l-1.62.51q-.12.04-.17.04-.1 0-.17-.07-.06-.07-.06-.18 0-.08.06-.16.05-.05.19-.11l2.25-.7Zm4.64 6.95h3.78v-.19q0-.17.06-.25.08-.08.19-.08.1 0 .17.08.08.08.08.25v.69h-4.77v-.73q1.5-1.35 2.92-2.74.66-.65.91-.95.25-.31.33-.53.1-.24.1-.47 0-.64-.52-1.13-.5-.48-1.22-.48-.64 0-1.14.37-.5.36-.64.91-.05.14-.1.19-.06.04-.15.04-.11 0-.17-.06-.07-.06-.07-.15 0-.29.3-.77.31-.48.84-.75.55-.28 1.13-.28.92 0 1.58.64.65.64.65 1.45 0 .33-.1.63-.12.28-.38.62-.27.33-.95 1-1.74 1.72-2.83 2.66v.03Zm7.76-6.36v2.4q.42-.16.82-.26.4-.1.76-.1.94 0 1.55.66.62.64.62 1.7 0 1.18-.7 1.91-.7.72-1.75.72-.7 0-1.34-.31-.46-.22-.83-.53-.22-.2-.22-.33 0-.1.06-.17.08-.08.17-.08.1 0 .2.1.9.84 1.93.84.87 0 1.44-.6.56-.59.56-1.56 0-.84-.5-1.34-.49-.5-1.24-.5-.76 0-1.53.39-.18.1-.26.1-.11 0-.17-.07-.07-.08-.07-.2v-3.27h3.44q.17 0 .25.08.08.06.08.17 0 .11-.08.19-.08.06-.25.06h-2.94Zm10.61 2.58v1.22q0 1.58-.75 2.51-.6.72-1.5.72-.44 0-.83-.17-.37-.17-.64-.48-.17-.2-.37-.61-.2-.44-.28-.8-.14-.5-.14-1.17v-1.22q0-1.6.75-2.52.59-.73 1.5-.73.43 0 .8.17.4.17.67.49.17.2.37.64.2.42.3.76.12.5.12 1.19Zm-.48.06q0-.7-.2-1.3-.2-.6-.44-.95-.16-.22-.4-.36-.32-.2-.74-.2-.83 0-1.3.84-.47.85-.47 1.97v1.08q0 .7.2 1.31.2.6.46.96.14.2.37.34.33.22.75.22.83 0 1.3-.85.47-.86.47-1.98v-1.08Zm7.48-.06v1.22q0 1.58-.75 2.51-.6.72-1.5.72-.44 0-.83-.17-.37-.17-.64-.48-.17-.2-.37-.61-.2-.44-.28-.8-.14-.5-.14-1.17v-1.22q0-1.6.75-2.52.59-.73 1.5-.73.43 0 .8.17.4.17.67.49.17.2.37.64.2.42.3.76.12.5.12 1.19Zm-.48.06q0-.7-.2-1.3-.2-.6-.44-.95-.16-.22-.4-.36-.32-.2-.74-.2-.83 0-1.3.84-.47.85-.47 1.97v1.08q0 .7.2 1.31.2.6.46.96.14.2.37.34.33.22.75.22.83 0 1.3-.85.47-.86.47-1.98v-1.08Zm7.48-.06v1.22q0 1.58-.75 2.51-.6.72-1.5.72-.44 0-.83-.17-.37-.17-.64-.48-.17-.2-.37-.61-.2-.44-.28-.8-.14-.5-.14-1.17v-1.22q0-1.6.75-2.52.59-.73 1.5-.73.43 0 .8.17.4.17.67.49.17.2.37.64.2.42.3.76.12.5.12 1.19Zm-.48.06q0-.7-.2-1.3-.2-.6-.44-.95-.16-.22-.4-.36-.32-.2-.74-.2-.83 0-1.3.84-.47.85-.47 1.97v1.08q0 .7.2 1.31.2.6.46.96.14.2.37.34.33.22.75.22.83 0 1.3-.85.47-.86.47-1.98v-1.08Zm61.74-3.23v6.95h1.68q.18 0 .25.08.08.06.08.17 0 .1-.08.19-.07.06-.25.06h-3.85q-.2 0-.27-.06-.06-.08-.06-.19 0-.1.06-.17.08-.08.27-.08h1.68v-6.28l-1.6.51q-.13.04-.18.04-.1 0-.17-.07-.06-.07-.06-.18 0-.08.06-.16.05-.05.19-.11l2.25-.7Zm5.4.6v2.4q.43-.17.82-.27.4-.1.76-.1.94 0 1.55.66.62.64.62 1.7 0 1.18-.7 1.91-.7.72-1.75.72-.7 0-1.34-.31-.46-.22-.83-.53-.22-.2-.22-.33 0-.1.06-.17.08-.08.17-.08.1 0 .2.1.9.84 1.93.84.87 0 1.44-.6.56-.59.56-1.56 0-.84-.5-1.34-.49-.5-1.24-.5-.76 0-1.53.39-.18.1-.26.1-.11 0-.17-.07-.07-.08-.07-.2v-3.27h3.44q.17 0 .25.08.08.06.08.17 0 .11-.08.19-.08.06-.25.06h-2.94Zm10.61 2.57v1.22q0 1.58-.75 2.51-.6.72-1.5.72-.43 0-.83-.17-.37-.17-.64-.48-.17-.2-.37-.61-.2-.44-.28-.8-.14-.5-.14-1.17v-1.22q0-1.6.75-2.52.6-.73 1.5-.73.43 0 .81.17.39.17.66.49.17.2.37.64.2.42.3.76.12.5.12 1.19Zm-.48.06q0-.7-.2-1.3-.2-.6-.44-.95-.16-.22-.4-.36-.32-.2-.74-.2-.83 0-1.3.84-.47.85-.47 1.97v1.08q0 .7.2 1.31.2.6.46.96.14.2.37.34.33.22.75.22.83 0 1.3-.85.47-.86.47-1.98v-1.08Zm7.48-.06v1.22q0 1.58-.75 2.51-.6.72-1.5.72-.43 0-.83-.17-.37-.17-.64-.48-.17-.2-.37-.61-.2-.44-.28-.8-.14-.5-.14-1.17v-1.22q0-1.6.75-2.52.6-.73 1.5-.73.43 0 .81.17.39.17.66.49.17.2.37.64.2.42.3.76.12.5.12 1.19Zm-.48.06q0-.7-.2-1.3-.2-.6-.44-.95-.16-.22-.4-.36-.32-.2-.74-.2-.83 0-1.3.84-.47.85-.47 1.97v1.08q0 .7.2 1.31.2.6.46.96.14.2.37.34.33.22.75.22.83 0 1.3-.85.47-.86.47-1.98v-1.08Zm7.48-.06v1.22q0 1.58-.75 2.51-.6.72-1.5.72-.43 0-.83-.17-.37-.17-.64-.48-.17-.2-.37-.61-.2-.44-.28-.8-.14-.5-.14-1.17v-1.22q0-1.6.75-2.52.6-.73 1.5-.73.43 0 .81.17.39.17.66.49.17.2.37.64.2.42.3.76.12.5.12 1.19Zm-.48.06q0-.7-.2-1.3-.2-.6-.44-.95-.16-.22-.4-.36-.32-.2-.74-.2-.83 0-1.3.84-.47.85-.47 1.97v1.08q0 .7.2 1.31.2.6.46.96.14.2.37.34.33.22.75.22.83 0 1.3-.85.47-.86.47-1.98v-1.08Zm7.48-.06v1.22q0 1.58-.75 2.51-.6.72-1.5.72-.43 0-.83-.17-.37-.17-.64-.48-.17-.2-.37-.61-.2-.44-.28-.8-.14-.5-.14-1.17v-1.22q0-1.6.75-2.52.6-.73 1.5-.73.43 0 .81.17.39.17.66.49.17.2.37.64.2.42.3.76.12.5.12 1.19Zm-.48.06q0-.7-.2-1.3-.2-.6-.44-.95-.16-.22-.4-.36-.32-.2-.74-.2-.83 0-1.3.84-.47.85-.47 1.97v1.08q0 .7.2 1.31.2.6.46.96.14.2.37.34.33.22.75.22.83 0 1.3-.85.47-.86.47-1.98v-1.08Zm61.73-3.23v6.95h1.7q.17 0 .25.08.07.06.07.17 0 .1-.07.19-.08.06-.25.06h-3.86q-.2 0-.27-.06-.06-.08-.06-.19 0-.1.06-.17.08-.08.27-.08h1.68v-6.28l-1.6.51q-.13.04-.18.04-.1 0-.17-.07-.06-.07-.06-.18 0-.08.06-.16.05-.05.19-.11l2.25-.7Zm8.41.8v-.2h-3.51v.43q0 .17-.08.25-.06.08-.17.08-.11 0-.19-.08-.06-.08-.06-.25v-.94h4.51v.8l-1.96 6.33q-.05.14-.13.2-.06.05-.14.05-.1 0-.19-.07-.06-.07-.06-.17 0-.06.05-.17l1.93-6.25Zm4-.2v2.4q.43-.17.82-.27.4-.1.76-.1.94 0 1.55.66.62.64.62 1.7 0 1.18-.7 1.91-.7.72-1.75.72-.7 0-1.34-.31-.46-.22-.83-.53-.22-.2-.22-.33 0-.1.06-.17.08-.08.17-.08.1 0 .2.1.9.84 1.93.84.87 0 1.44-.6.56-.59.56-1.56 0-.84-.5-1.34-.48-.5-1.23-.5-.77 0-1.54.39-.18.1-.26.1-.11 0-.17-.07-.07-.08-.07-.2v-3.27h3.44q.17 0 .25.08.08.06.08.17 0 .11-.08.19-.08.06-.25.06h-2.94Zm10.61 2.57v1.22q0 1.58-.75 2.51-.59.72-1.5.72-.43 0-.82-.17-.38-.17-.65-.48-.17-.2-.37-.61-.2-.44-.28-.8-.14-.5-.14-1.17v-1.22q0-1.6.75-2.52.6-.73 1.5-.73.44 0 .81.17.4.17.66.49.17.2.37.64.2.42.3.76.12.5.12 1.19Zm-.48.06q0-.7-.2-1.3-.2-.6-.44-.95-.16-.22-.4-.36-.32-.2-.74-.2-.83 0-1.3.84-.47.85-.47 1.97v1.08q0 .7.2 1.31.2.6.46.96.14.2.37.34.33.22.75.22.83 0 1.3-.85.47-.86.47-1.98v-1.08Zm7.48-.06v1.22q0 1.58-.75 2.51-.59.72-1.5.72-.43 0-.82-.17-.38-.17-.65-.48-.17-.2-.37-.61-.2-.44-.28-.8-.14-.5-.14-1.17v-1.22q0-1.6.75-2.52.6-.73 1.5-.73.44 0 .81.17.4.17.66.49.17.2.37.64.2.42.3.76.12.5.12 1.19Zm-.48.06q0-.7-.2-1.3-.2-.6-.44-.95-.16-.22-.4-.36-.32-.2-.74-.2-.83 0-1.3.84-.47.85-.47 1.97v1.08q0 .7.2 1.31.2.6.46.96.14.2.37.34.33.22.75.22.83 0 1.3-.85.47-.86.47-1.98v-1.08Zm7.48-.06v1.22q0 1.58-.75 2.51-.59.72-1.5.72-.43 0-.82-.17-.38-.17-.65-.48-.17-.2-.37-.61-.2-.44-.28-.8-.14-.5-.14-1.17v-1.22q0-1.6.75-2.52.6-.73 1.5-.73.44 0 .81.17.4.17.66.49.17.2.37.64.2.42.3.76.12.5.12 1.19Zm-.48.06q0-.7-.2-1.3-.2-.6-.44-.95-.16-.22-.4-.36-.32-.2-.74-.2-.83 0-1.3.84-.47.85-.47 1.97v1.08q0 .7.2 1.31.2.6.46.96.14.2.37.34.33.22.75.22.83 0 1.3-.85.47-.86.47-1.98v-1.08Z"/><path stroke="#90f" stroke-linecap="butt" stroke-width="4" d="M197 96.5h12"/><path fill="#201300" d="M220.84 93.14V99h1.7q.18 0 .24.08.08.06.08.17 0 .1-.08.19-.06.06-.25.06h-3.86q-.17 0-.25-.06-.08-.08-.08-.19 0-.1.08-.17.08-.08.25-.08h1.69v-5.86h-1.69q-.17 0-.25-.06-.08-.08-.08-.19 0-.1.08-.17.08-.08.25-.08h3.86q.19 0 .25.08.08.06.08.17 0 .11-.08.19-.06.06-.25.06h-1.69Zm6.18 1.28v1.25q.95-.87 1.42-1.12.48-.25.89-.25.44 0 .81.3.4.3.4.45 0 .1-.09.18-.07.07-.18.07l-.1-.02q-.04-.01-.15-.12-.2-.2-.36-.28-.14-.08-.3-.08-.31 0-.78.26-.46.25-1.56 1.25V99h2.17q.19 0 .26.08.08.06.08.17 0 .1-.08.19-.07.06-.26.06h-3.86q-.17 0-.25-.06-.08-.08-.08-.17 0-.11.08-.18.08-.06.25-.06h1.19v-4.1h-.91q-.17 0-.25-.07-.08-.08-.08-.19 0-.1.08-.17.08-.08.25-.08h1.4Zm7.82-2.51v1.26h-.72v-1.26h.72Zm.02 2.51V99h1.94q.18 0 .25.08.07.06.07.17 0 .1-.07.19-.07.06-.25.06h-4.36q-.17 0-.25-.06-.08-.08-.08-.19 0-.1.08-.17.08-.08.25-.08h1.94v-4.08h-1.44q-.17 0-.27-.06-.08-.08-.08-.19 0-.1.08-.17.08-.08.27-.08h1.92Zm8.37.33q0-.17.07-.25.07-.08.17-.08t.17.08q.08.08.08.27v.84q0 .17-.08.25-.06.08-.17.08-.1 0-.17-.06-.07-.08-.07-.22-.04-.36-.37-.58-.47-.33-1.27-.33-.82 0-1.28.33-.34.25-.34.56 0 .36.4.6.29.15 1.07.24 1.03.11 1.42.25.58.2.84.58.28.36.28.78 0 .63-.6 1.11-.6.49-1.77.49-1.16 0-1.9-.6 0 .2-.04.27-.01.06-.08.1-.06.04-.14.04-.1 0-.17-.08-.06-.08-.06-.25v-1.01q0-.18.06-.25.06-.08.17-.08.11 0 .2.08.07.06.07.18 0 .28.12.46.2.28.66.47.45.18 1.1.18.96 0 1.43-.36t.47-.75q0-.47-.48-.73-.47-.28-1.4-.38-.92-.09-1.32-.23-.4-.16-.61-.45-.22-.32-.22-.67 0-.63.6-1 .63-.38 1.5-.38 1.02 0 1.66.5Zm7.88 1v.7h-5.02v-.7h5.02Zm6.66 3.75h-.79l-1.39-4.88-1.36 4.88h-.78l-.72-6.36h-.18q-.18 0-.25-.06-.08-.08-.08-.19 0-.1.08-.17.07-.08.25-.08h1.82q.2 0 .25.08.08.06.08.17 0 .11-.07.19-.07.06-.25.06h-1.16l.66 5.8 1.32-4.78h.77l1.36 4.78.64-5.8h-1.16q-.17 0-.25-.06-.08-.08-.08-.19 0-.1.08-.17.08-.08.25-.08h1.81q.2 0 .27.08.08.06.08.17 0 .11-.08.19-.08.06-.26.06h-.18l-.68 6.36Zm7.5-2.42h-5.02q.13.95.8 1.55.67.57 1.65.57.57 0 1.16-.17.6-.19.98-.5.11-.08.2-.08.1 0 .16.08.08.06.08.17 0 .1-.1.2-.27.29-1 .54-.71.25-1.48.25-1.26 0-2.1-.83-.85-.83-.85-2 0-1.08.8-1.84.8-.77 1.97-.77 1.2 0 1.98.8.78.78.77 2.03Zm-.5-.5q-.14-.81-.77-1.31-.63-.52-1.48-.52-.86 0-1.49.5-.62.5-.78 1.33h4.52Zm2.98-4.44v3.27q.9-1.16 2.14-1.16 1.08 0 1.84.78.79.78.79 1.92t-.79 1.94q-.78.8-1.84.8-1.28 0-2.14-1.16v.97h-1.16q-.17 0-.25-.06-.07-.08-.07-.19 0-.1.07-.17.08-.08.25-.08h.66v-6.36h-.66q-.17 0-.25-.06-.07-.08-.07-.19 0-.1.07-.17.08-.08.25-.08h1.16Zm4.27 4.83q0-.92-.64-1.56-.65-.66-1.49-.66-.86 0-1.5.66-.64.64-.64 1.56 0 .94.64 1.6.64.63 1.5.63.84 0 1.49-.64.64-.65.64-1.6Zm3.51-.28V99h1.69q.17 0 .25.08.08.06.08.17 0 .1-.08.19-.08.06-.25.06h-2.85q-.17 0-.25-.06-.07-.08-.07-.19 0-.1.07-.17.08-.08.25-.08h.68v-5.86h-.68q-.17 0-.25-.06-.07-.08-.07-.19 0-.1.07-.17.08-.08.25-.08h2.86q1.02 0 1.66.61.64.6.64 1.4 0 .46-.2.85-.2.38-.5.6-.44.32-.9.48-.35.1-.85.1h-1.55Zm0-.5h1.58q.53 0 1.01-.24.49-.25.7-.6.23-.35.23-.7 0-.59-.5-1.04-.5-.47-1.27-.47h-1.75v3.05Z"/><path stroke="#666" stroke-dasharray="13.0,9.0" stroke-linecap="butt" stroke-width="4" d="M296 96.5h35"/><path fill="#201300" d="M342.84 92.14V99h1.94q.19 0 .27.08.07.06.07.17 0 .1-.07.19-.08.06-.27.06h-4.36q-.17 0-.25-.06-.08-.08-.08-.19 0-.1.08-.17.08-.08.25-.08h1.94v-6.36h-1.42q-.17 0-.25-.06-.08-.08-.08-.19 0-.1.08-.17.08-.08.25-.08h1.9Zm7-.23v1.26h-.71v-1.26h.71Zm.02 2.51V99h1.94q.18 0 .25.08.07.06.07.17 0 .1-.07.19-.07.06-.25.06h-4.36q-.17 0-.25-.06-.08-.08-.08-.19 0-.1.08-.17.08-.08.25-.08h1.94v-4.08h-1.44q-.17 0-.27-.06-.08-.08-.08-.19 0-.1.08-.17.08-.08.27-.08h1.92Zm4.89-2.28v3.27q.9-1.16 2.14-1.16 1.08 0 1.84.78.79.78.79 1.92t-.79 1.94q-.78.8-1.84.8-1.28 0-2.14-1.16v.97h-1.16q-.17 0-.25-.06-.07-.08-.07-.19 0-.1.07-.17.08-.08.25-.08h.66v-6.36h-.66q-.17 0-.25-.06-.07-.08-.07-.19 0-.1.07-.17.08-.08.25-.08h1.16Zm4.27 4.83q0-.92-.64-1.56-.65-.66-1.49-.66-.86 0-1.5.66-.64.64-.64 1.56 0 .94.64 1.6.64.63 1.5.63.84 0 1.49-.64.64-.65.64-1.6Zm6.28 2.53h-.61l-1.08-3.16-1.08 3.16h-.6l-1.04-4.58h-.23q-.18 0-.25-.06-.08-.08-.08-.19 0-.1.08-.17.07-.08.25-.08h1.36q.17 0 .25.08.07.06.07.17 0 .11-.07.19-.08.06-.25.06h-.63l.86 3.9 1.06-3.12h.58l1.08 3.13.84-3.9h-.62q-.17 0-.25-.07-.08-.08-.08-.19 0-.1.06-.17.08-.08.27-.08h1.34q.19 0 .27.08.07.06.07.17 0 .11-.07.19-.08.06-.27.06h-.23l-1 4.58Zm7.97-2.42h-5.02q.13.95.8 1.55.67.57 1.65.57.57 0 1.16-.17.6-.19.98-.5.11-.08.2-.08.1 0 .16.08.08.06.08.17 0 .1-.1.2-.27.29-1 .54-.71.25-1.48.25-1.26 0-2.1-.83-.85-.83-.85-2 0-1.08.8-1.84.8-.77 1.97-.77 1.2 0 1.98.8.78.78.77 2.03Zm-.5-.5q-.14-.81-.77-1.31-.63-.52-1.48-.52-.86 0-1.49.5-.62.5-.78 1.33h4.52Zm2.98-4.44v3.27q.9-1.16 2.14-1.16 1.08 0 1.84.78.79.78.79 1.92t-.79 1.94q-.78.8-1.84.8-1.28 0-2.14-1.16v.97h-1.16q-.17 0-.25-.06-.07-.08-.07-.19 0-.1.07-.17.08-.08.25-.08h.66v-6.36h-.66q-.17 0-.25-.06-.07-.08-.07-.19 0-.1.07-.17.08-.08.25-.08h1.16Zm4.27 4.83q0-.92-.64-1.56-.65-.66-1.49-.66-.86 0-1.5.66-.64.64-.64 1.56 0 .94.64 1.6.64.63 1.5.63.84 0 1.49-.64.64-.65.64-1.6Zm2.73-2.55v.9q.44-.54.94-.8.5-.27 1.19-.27.73 0 1.34.34.62.33.95.94.35.61.35 1.28 0 1.06-.77 1.81-.75.75-1.86.75-1.33 0-2.14-1.07v2.97h1.19q.19 0 .25.06.08.08.08.19 0 .1-.08.17-.06.08-.25.08h-2.35q-.17 0-.25-.08-.07-.06-.07-.17 0-.11.07-.2.08-.05.25-.05h.66v-6.35h-.66q-.17 0-.25-.06-.07-.08-.07-.19 0-.1.07-.17.08-.08.25-.08h1.16Zm4.27 2.4q0-.87-.63-1.46-.6-.61-1.5-.61t-1.53.6q-.61.62-.61 1.46 0 .85.6 1.46.63.6 1.54.6.88 0 1.5-.59.63-.6.63-1.47Z"/><path stroke="#c27ba0" stroke-dasharray="4.0,5.0" stroke-linecap="butt" stroke-width="4" d="M404 96.5h13"/><path fill="#201300" d="M428.84 92.14V99h1.94q.19 0 .27.08.07.06.07.17 0 .1-.07.19-.08.06-.27.06h-4.36q-.17 0-.25-.06-.08-.08-.08-.19 0-.1.08-.17.08-.08.25-.08h1.94v-6.36h-1.42q-.17 0-.25-.06-.08-.08-.08-.19 0-.1.08-.17.08-.08.25-.08h1.9Zm7-.23v1.26h-.71v-1.26h.71Zm.02 2.51V99h1.94q.18 0 .25.08.07.06.07.17 0 .1-.07.19-.07.06-.25.06h-4.36q-.17 0-.25-.06-.08-.08-.08-.19 0-.1.08-.17.08-.08.25-.08h1.94v-4.08h-1.44q-.17 0-.27-.06-.08-.08-.08-.19 0-.1.08-.17.08-.08.27-.08h1.92Zm4.89-2.28v3.27q.9-1.16 2.14-1.16 1.08 0 1.84.78.79.78.79 1.92t-.79 1.94q-.78.8-1.84.8-1.28 0-2.14-1.16v.97h-1.16q-.17 0-.25-.06-.07-.08-.07-.19 0-.1.07-.17.08-.08.25-.08h.66v-6.36h-.66q-.17 0-.25-.06-.07-.08-.07-.19 0-.1.07-.17.08-.08.25-.08h1.16Zm4.27 4.83q0-.92-.64-1.56-.65-.66-1.49-.66-.86 0-1.5.66-.64.64-.64 1.56 0 .94.64 1.6.64.63 1.5.63.84 0 1.49-.64.64-.65.64-1.6Zm6 2.53v-.7q-1.08.89-2.3.89-.88 0-1.38-.44-.5-.45-.5-1.1 0-.71.66-1.24.66-.55 1.92-.55.33 0 .72.05.4.04.88.14v-.8q0-.4-.38-.7-.37-.3-1.12-.3-.58 0-1.61.33l-.24.06q-.1 0-.17-.06-.06-.08-.06-.19 0-.1.06-.16.08-.09.66-.23.92-.25 1.39-.25.92 0 1.43.47.54.45.54 1.03V99h.65q.19 0 .25.08.08.06.08.17 0 .1-.08.19-.06.06-.25.06h-1.15Zm0-2.45q-.35-.1-.74-.14-.39-.05-.81-.05-1.08 0-1.67.45-.46.36-.46.83 0 .45.35.77.34.3 1.01.3.64 0 1.2-.26.54-.26 1.12-.8v-1.1Zm8.34-.08q0 1.12-.81 1.92-.82.8-1.94.8-1.16 0-1.97-.8-.8-.8-.8-1.92 0-1.13.8-1.92.81-.8 1.97-.8 1.12 0 1.94.8.8.8.8 1.92Zm-.5 0q0-.92-.67-1.56-.66-.66-1.6-.66-.93 0-1.59.66-.66.64-.66 1.56t.66 1.58q.66.65 1.6.65.93 0 1.59-.65.67-.66.67-1.58Zm2.5-2.55v.5q.62-.67 1.26-.67.38 0 .66.2.3.2.49.61.32-.4.65-.6.35-.21.69-.21.53 0 .84.34.43.46.43.97V99h.42q.17 0 .25.08.07.06.07.17 0 .1-.07.19-.08.06-.25.06h-.9v-3.9q0-.37-.24-.6-.24-.25-.54-.25-.26 0-.56.2-.3.2-.69.8V99h.43q.17 0 .25.08.07.06.07.17 0 .1-.07.19-.08.06-.25.06h-.93v-3.84q0-.41-.23-.66-.22-.25-.51-.25-.25 0-.52.17-.36.24-.75.83V99h.42q.17 0 .25.08.08.06.08.17 0 .1-.08.19-.08.06-.25.06h-1.33q-.17 0-.25-.06-.07-.08-.07-.19 0-.1.07-.17.08-.08.25-.08h.43v-4.08h-.43q-.17 0-.25-.06-.07-.08-.07-.19 0-.1.07-.17.08-.08.25-.08h.9Zm16.67 5.08h-.83l-2.03-4.58h-.5q-.17 0-.25-.06-.08-.08-.08-.19 0-.1.08-.17.08-.08.25-.08h1.85q.18 0 .25.08.07.06.07.17 0 .11-.07.19-.07.06-.25.06h-.82l1.82 4.08h.21l1.77-4.08h-.83q-.17 0-.25-.06-.08-.08-.08-.19 0-.1.08-.17.08-.08.25-.08h1.86q.17 0 .25.08.08.06.08.17 0 .11-.08.19-.08.06-.25.06h-.5l-2 4.58Zm7.58-4q.69.3 1.03.83.36.53.36 1.1 0 .9-.72 1.57-.7.67-1.78.67-.64 0-1.33-.26-.67-.27-.94-.55-.09-.1-.09-.2t.06-.16q.08-.08.18-.08.09 0 .2.1.9.67 1.92.67.86 0 1.44-.53.58-.55.58-1.2 0-.44-.29-.87-.28-.42-.82-.65-.54-.25-1.08-.25-.17 0-.25-.06-.08-.08-.08-.2 0-.1.08-.16.08-.08.22-.08l.42.01q.67 0 1.1-.4.43-.4.43-.94 0-.55-.45-.97-.46-.42-1.2-.42-.5 0-.93.17-.42.17-.67.48-.1.11-.16.15l-.1.01q-.1 0-.18-.06-.06-.06-.06-.16 0-.23.5-.6.72-.5 1.6-.5.95 0 1.54.57.61.56.61 1.33 0 .5-.3.94-.28.43-.84.7Zm5.89 2.6h.2q.33 0 .57.23.23.22.23.55 0 .34-.23.57-.24.22-.57.22h-.2q-.33 0-.56-.22-.24-.23-.24-.56 0-.34.24-.56.23-.24.56-.24Zm7.34-6.05V99h1.7q.16 0 .24.08.08.06.08.17 0 .1-.08.19-.08.06-.25.06h-3.86q-.19 0-.26-.06-.07-.08-.07-.19 0-.1.07-.17.07-.08.26-.08h1.69v-6.28l-1.61.51-.17.04q-.1 0-.17-.07-.07-.08-.07-.18 0-.08.07-.16.04-.05.18-.11l2.25-.7Zm4.64 6.95h3.79v-.19q0-.17.06-.25.08-.08.19-.08.1 0 .17.08.08.08.08.25v.69H503v-.73q1.5-1.35 2.92-2.74.66-.66.9-.95.26-.31.34-.53.09-.24.09-.47 0-.64-.52-1.13-.5-.48-1.21-.48-.64 0-1.14.37-.5.36-.65.91-.04.14-.09.19-.06.04-.16.04t-.17-.06q-.06-.06-.06-.15 0-.29.3-.77.3-.48.84-.75.55-.28 1.13-.28.92 0 1.57.64.66.64.66 1.45 0 .33-.1.63-.12.28-.38.62-.27.33-.96 1-1.73 1.72-2.83 2.66V99Zm9.02-.9h.2q.33 0 .57.23.23.22.23.55 0 .34-.23.57-.24.22-.57.22h-.2q-.33 0-.56-.22-.24-.23-.24-.56 0-.34.24-.56.23-.24.56-.24Zm7.34-6.05V99h1.7q.16 0 .24.08.08.06.08.17 0 .1-.08.19-.08.06-.25.06h-3.86q-.19 0-.26-.06-.07-.08-.07-.19 0-.1.07-.17.07-.08.26-.08h1.69v-6.28l-1.61.51-.17.04q-.1 0-.17-.07-.07-.08-.07-.18 0-.08.07-.16.04-.05.18-.11l2.25-.7Z"/><path stroke="#434343" stroke-linecap="butt" stroke-width="4" d="M539 96.5h12"/><path fill="#201300" d="M563.31 91.9v1.27h-.73v-1.26h.73Zm.03 3.02h-2.93q-.18 0-.25-.06-.08-.08-.08-.19 0-.1.08-.17.07-.08.25-.08h3.42v5.42q0 .63-.27 1.05-.25.42-.76.69-.36.19-.85.19h-1.56q-.19 0-.26-.08-.07-.06-.07-.17 0-.11.07-.2.07-.05.26-.05h1.55q.62 0 1.01-.41.4-.4.4-1.02v-4.92Zm4.41-.5v.9q.44-.54.94-.8.5-.27 1.18-.27.74 0 1.35.34.62.33.95.94.35.61.35 1.28 0 1.06-.77 1.81-.75.75-1.86.75-1.33 0-2.14-1.07v2.97h1.19q.18 0 .25.06.08.08.08.19 0 .1-.08.17-.07.08-.25.08h-2.35q-.17 0-.25-.08-.07-.06-.07-.17 0-.11.07-.2.08-.05.25-.05h.66v-6.35h-.66q-.17 0-.25-.06-.07-.08-.07-.19 0-.1.07-.17.08-.08.25-.08h1.16Zm4.27 2.4q0-.87-.63-1.46-.6-.61-1.5-.61t-1.53.6q-.61.62-.61 1.46 0 .85.6 1.46.63.6 1.54.6.88 0 1.5-.59.63-.6.63-1.47Zm7.25.26h-5.02q.13.95.8 1.55.67.57 1.65.57.57 0 1.16-.17.6-.19.98-.5.11-.08.2-.08.1 0 .16.08.08.06.08.17 0 .1-.1.2-.27.29-1 .54-.71.25-1.48.25-1.26 0-2.1-.83-.85-.83-.85-2 0-1.08.8-1.84.8-.77 1.97-.77 1.2 0 1.98.8.78.78.77 2.03Zm-.5-.5q-.14-.81-.77-1.31-.63-.52-1.48-.52-.86 0-1.49.5-.62.5-.78 1.33h4.52Zm6.48-1.25v-.9h1.16q.18 0 .25.07.07.06.07.17 0 .11-.07.19-.07.06-.25.06h-.66v4.92q0 .49-.22.88-.14.26-.47.53-.33.28-.6.4-.26.12-.71.12h-1.4q-.16 0-.24-.08-.08-.06-.08-.17 0-.11.08-.2.08-.05.25-.05h1.4q.44 0 .79-.22.36-.22.58-.66.12-.23.12-.62V98.3q-.78 1.08-2.03 1.08-1.02 0-1.75-.75-.74-.75-.74-1.82 0-1.06.74-1.81.73-.75 1.75-.75 1.25 0 2.03 1.08Zm0 1.48q0-.87-.6-1.47-.59-.59-1.42-.59-.8 0-1.4.6-.6.6-.6 1.46t.6 1.47q.6.6 1.4.6.83 0 1.43-.6.59-.6.59-1.47Zm5.6-4.67V99h1.93q.19 0 .27.08.08.06.08.17 0 .1-.08.19-.08.06-.27.06h-4.36q-.17 0-.25-.06-.08-.08-.08-.19 0-.1.08-.17.08-.08.25-.08h1.94v-6.36h-1.42q-.17 0-.25-.06-.08-.08-.08-.19 0-.1.08-.17.08-.08.25-.08h1.9Zm7-.23v1.26h-.73v-1.26h.72Zm0 2.51V99h1.95q.18 0 .25.08.08.06.08.17 0 .1-.08.19-.07.06-.25.06h-4.36q-.17 0-.25-.06-.08-.08-.08-.19 0-.1.08-.17.08-.08.25-.08h1.93v-4.08h-1.43q-.17 0-.27-.06-.08-.08-.08-.19 0-.1.08-.17.08-.08.27-.08h1.92ZM41.43 54.9v-7.83q-.64-.01-.95-.3-.3-.28-.3-.71 0-.46.31-.72.32-.28 1.03-.28h4.2q.96 0 1.9.37.94.36 1.5.9.44.43.89 1.16.47.74.7 1.46.24.72.24 1.76v.97q0 1.27-.44 2.25-.42.97-1.13 1.6-.68.62-1.3.92-.98.45-2.54.45h-4.02q-.71 0-1.03-.28-.3-.28-.3-.72 0-.45.3-.73.32-.29.94-.27Zm2 0h2.13q1.18 0 1.8-.34.79-.46 1.18-1.14.4-.7.4-1.8v-.95q0-.94-.35-1.66-.58-1.11-1.28-1.52-.7-.42-1.77-.42h-2.1v7.83Zm16.27 2v-.47q-.75.4-1.66.6-.9.2-1.64.2-1.63 0-2.63-.85-1-.86-1-1.89 0-1.26 1.29-2.34 1.28-1.08 3.54-1.08.9 0 2.1.19v-.47q0-.45-.4-.73-.37-.29-1.45-.29-.89 0-2.3.35-.54.12-.82.12-.4 0-.69-.28-.28-.3-.28-.73 0-.27.1-.44.1-.19.27-.3.18-.12.74-.28.75-.2 1.51-.31.77-.13 1.4-.13 1.87 0 2.9.82 1.03.8 1.03 2.18v4.13h.33q.73 0 1.03.28.31.27.31.72 0 .44-.3.72-.3.28-1.04.28H59.7Zm0-3.58q-1.2-.23-2.2-.23-1.24 0-2.12.6-.54.37-.54.76 0 .28.26.45.49.33 1.35.33.72 0 1.62-.28.92-.28 1.63-.77v-.86Zm12 3.58v-.47q-.75.4-1.66.6-.9.2-1.64.2-1.63 0-2.63-.85-1-.86-1-1.89 0-1.26 1.29-2.34 1.28-1.08 3.54-1.08.9 0 2.1.19v-.47q0-.45-.4-.73-.37-.29-1.45-.29-.89 0-2.3.35-.54.12-.82.12-.4 0-.69-.28-.28-.3-.28-.73 0-.27.1-.44.1-.19.27-.3.18-.12.74-.28.75-.2 1.51-.31.77-.13 1.4-.13 1.87 0 2.9.82 1.03.8 1.03 2.18v4.13h.33q.73 0 1.03.28.31.27.31.72 0 .44-.3.72-.3.28-1.04.28H71.7Zm0-3.58q-1.2-.23-2.2-.23-1.24 0-2.12.6-.54.37-.54.76 0 .28.26.45.49.33 1.35.33.72 0 1.62-.28.92-.28 1.63-.77v-.86Zm11.2-9.1V54.9h2.4q.73 0 1.04.28.31.27.31.72 0 .44-.31.72-.31.28-1.03.28h-6.82q-.71 0-1.03-.28-.3-.28-.3-.72 0-.45.3-.72.32-.28 1.03-.28h2.41v-8.67h-1.6q-.73 0-1.04-.27-.31-.28-.31-.73 0-.44.3-.72.32-.28 1.04-.28h3.61ZM95.7 56.9v-.47q-.75.4-1.66.6-.9.2-1.64.2-1.63 0-2.63-.85-1-.86-1-1.89 0-1.26 1.29-2.34 1.28-1.08 3.54-1.08.9 0 2.1.19v-.47q0-.45-.4-.73-.37-.29-1.45-.29-.89 0-2.3.35-.54.12-.82.12-.4 0-.69-.28-.28-.3-.28-.73 0-.27.1-.44.1-.19.27-.3.18-.12.74-.28.75-.2 1.51-.31.77-.13 1.4-.13 1.87 0 2.9.82 1.03.8 1.03 2.18v4.13h.33q.73 0 1.03.28.31.27.31.72 0 .44-.3.72-.3.28-1.04.28H95.7Zm0-3.58q-1.2-.23-2.2-.23-1.24 0-2.12.6-.54.37-.54.76 0 .28.26.45.49.33 1.35.33.72 0 1.62-.28.92-.28 1.63-.77v-.86Zm24.37-2.95q-.5-.3-1.03-.44-.53-.16-1.12-.16-1.16 0-1.85.38-.3.17-.3.36 0 .23.41.44.31.15 1.4.3 2 .27 2.77.56 1.02.36 1.58 1.07.56.7.56 1.5 0 1.07-.95 1.8-1.36 1.05-3.53 1.05-.86 0-1.61-.16-.73-.15-1.34-.45-.14.14-.32.2-.17.06-.34.06-.47 0-.75-.3t-.28-1.02v-.68q0-.73.28-1.03.28-.3.73-.3.36 0 .6.2.25.2.39.68.45.4 1.1.6.65.18 1.5.18 1.37 0 2.12-.42.37-.22.37-.45 0-.4-.53-.64-.51-.25-2.12-.44-2.43-.25-3.24-.97t-.81-1.77q0-1.06.92-1.78 1.22-.97 3.22-.97.69 0 1.33.13.64.13 1.23.4.17-.13.33-.2.17-.08.31-.08.4 0 .68.32.28.31.28 1.03v.48q0 .66-.16.9-.31.45-.84.45-.36 0-.64-.22-.27-.24-.35-.61Zm14.08-2.34v6.87q.64 0 .94.28.31.28.31.72 0 .44-.31.72-.31.28-1.03.28h-1.91v-.45q-.86.39-1.64.57-.78.2-1.48.2-.99 0-1.7-.41-.73-.43-1.15-1.14-.31-.54-.31-1.33v-4.3h-.34q-.72 0-1.04-.28-.3-.28-.3-.73 0-.44.3-.72.32-.29 1.04-.29h2.34V54q0 .63.31.93.31.3.94.3.6 0 1.31-.24.7-.24 1.72-.86v-4.08h-.72q-.72 0-1.03-.28-.31-.28-.31-.73 0-.44.31-.72.31-.29 1.03-.29h2.72Zm5.23-3.8v4.5q.72-.49 1.47-.72.77-.23 1.55-.23 2.08 0 3.52 1.43 1.45 1.42 1.45 3.46 0 1.95-1.38 3.26-1.37 1.3-3.64 1.3-.8 0-1.54-.22-.74-.2-1.43-.6v.49h-2.34q-.73 0-1.05-.28-.3-.28-.3-.72 0-.45.32-.72.31-.28 1.03-.28h.33v-8.67h-.33q-.73 0-1.05-.27-.3-.28-.3-.73 0-.44.3-.72.32-.28 1.05-.28h2.34Zm5.99 8.5q0-1.24-.88-2.1-.87-.86-2.12-.86t-2.13.86q-.86.86-.86 2.07 0 1.1.79 1.8.78.71 2.2.71 1.42 0 2.2-.7.8-.7.8-1.78Zm10.7-2.36q-.5-.3-1.03-.44-.53-.16-1.12-.16-1.16 0-1.85.38-.3.17-.3.36 0 .23.41.44.31.15 1.4.3 2 .27 2.77.56 1.02.36 1.58 1.07.56.7.56 1.5 0 1.07-.95 1.8-1.36 1.05-3.53 1.05-.86 0-1.61-.16-.73-.15-1.34-.45-.14.14-.32.2-.17.06-.34.06-.47 0-.75-.3t-.28-1.02v-.68q0-.73.28-1.03.28-.3.73-.3.36 0 .6.2.25.2.39.68.45.4 1.1.6.65.18 1.5.18 1.37 0 2.12-.42.37-.22.37-.45 0-.4-.53-.64-.51-.25-2.12-.44-2.43-.25-3.24-.97t-.81-1.77q0-1.06.92-1.78 1.22-.97 3.22-.97.69 0 1.33.13.64.13 1.23.4.17-.13.33-.2.17-.08.31-.08.4 0 .68.32.28.31.28 1.03v.48q0 .66-.16.9-.31.45-.84.45-.36 0-.64-.22-.27-.24-.35-.61Zm14.86 3.1h-8.22q.31.79 1.11 1.27.8.47 2.16.47 1.1 0 2.95-.47.77-.2 1.06-.2.4 0 .66.3.28.28.28.7 0 .4-.28.67-.4.36-1.9.69-1.52.33-2.93.33-2.39 0-3.84-1.36-1.44-1.36-1.44-3.34 0-2.11 1.56-3.43 1.57-1.33 3.6-1.33 1.22 0 2.23.44 1.02.42 1.52.9.7.74 1.17 1.8.31.74.31 1.72v.85Zm-2.22-2q-.47-.85-1.22-1.27-.73-.43-1.75-.43-1.01 0-1.76.43-.74.42-1.2 1.28h5.93Zm8.7-1.43v4q0 .66.26.86.42.31 1.46.31 1.54 0 2.83-.64.5-.26.78-.26.4 0 .68.3.3.29.3.71 0 .4-.32.67-.47.46-1.9.85-1.4.39-2.37.39-1.85 0-2.8-.81-.93-.82-.93-1.99v-4.39h-.72q-.72 0-1.03-.28-.3-.28-.3-.73 0-.44.3-.72.31-.29 1.03-.29h.72v-1.8q0-.71.28-1.02.28-.32.74-.32.43 0 .71.32.29.3.29 1.03v1.8h3.68q.74 0 1.03.28.32.28.32.73 0 .44-.32.72-.3.28-1.03.28h-3.68Zm10.62 4.86h4.39q.36-.3.68-.3.46 0 .72.32.28.3.28 1.03v.95h-9.12v-2.13q5.4-4.45 6.53-5.73.56-.66.56-1.25 0-.72-.64-1.28t-1.7-.56q-1.08 0-1.78.62-.38.33-.6.99-.14.4-.39.59-.23.17-.58.17-.4 0-.71-.3-.3-.3-.3-.68 0-.58.55-1.46.54-.89 1.57-1.4 1.05-.53 2.27-.53 1.89 0 3.1 1.14 1.21 1.14 1.21 2.78 0 .83-.34 1.55-.35.7-1.66 1.95-1.04.98-4.04 3.53Z"/></svg>
