<svg
  xmlns="http://www.w3.org/2000/svg"
  width="899"
  height="556"
  fill="none"
  stroke-linecap="square"
  stroke-miterlimit="10"
>
  <path fill="#fff" d="M0 0h899v556H0V0Z" /><path
    stroke="#ccc"
    stroke-linecap="butt"
    d="M191.5 133.5v343m106-343v343m245-343v343m106-343v343m-562 0h785m-785-69h785"
  /><path stroke="#333" stroke-linecap="butt" d="M86.5 339.5h785" /><path
    stroke="#ccc"
    stroke-linecap="butt"
    d="M86.5 270.5h785m-785-69h785m-785-68h785"
  /><path
    stroke="#eee"
    stroke-linecap="butt"
    d="M185.99 340.67v16m31.58-30.73v16m122.39-84.01v16m63.92-47.36v16m244.93-39.19v16m28.42-21.6v16m102.31-33.04v16m69.14-20.64v16m12.77-16.25v16M172.1 439.55v16m28.64-45.27v16m104.61-70.23v16m44.95-56.48v16m264.6-64.15v16m26.49-21.08v16m51.94-24.41v16m68.87-21.95v16m37.26-16.34v16"
  /><clipPath id="a"><path
      d="M86.8 133.37h784.4V476.2H86.8V133.37Z"
    /></clipPath><path
    stroke="red"
    stroke-linecap="butt"
    stroke-width="2"
    d="m185.99 356.67 31.58-14.73 122.4-68.01 63.9-31.36 244.94-23.19 28.42-5.6 102.3-17.04 69.15-4.65 12.77-.24"
    clip-path="url(#a)"
  /><path
    stroke="#a64d79"
    stroke-linecap="butt"
    stroke-width="2"
    d="m172.1 455.55 28.64-29.27 104.61-54.23 44.95-40.48 264.6-48.15 26.49-5.08 51.94-8.4 68.86-5.96 37.27-.34"
    clip-path="url(#a)"
  /><path
    fill="red"
    d="m181.75 352.43 4.24 2.74 4.24-2.74-2.74 4.24 2.74 4.25-4.24-2.75-4.24 2.75 2.74-4.25Zm31.58-14.73 4.24 2.74 4.24-2.74-2.74 4.24 2.74 4.24-4.24-2.74-4.24 2.74 2.74-4.24Zm122.39-68.01 4.24 2.74 4.24-2.74-2.74 4.24 2.74 4.24-4.24-2.74-4.24 2.74 2.74-4.24Zm63.91-31.36 4.25 2.74 4.24-2.74-2.74 4.24 2.74 4.25-4.24-2.75-4.25 2.75 2.75-4.25Zm244.94-23.19 4.24 2.74 4.25-2.74-2.75 4.24 2.75 4.25-4.25-2.75-4.24 2.75 2.74-4.25Zm28.41-5.6 4.25 2.74 4.24-2.74-2.74 4.24 2.74 4.24-4.24-2.74-4.25 2.74 2.75-4.24ZM775.3 192.5l4.24 2.74 4.24-2.75-2.74 4.25 2.74 4.24-4.24-2.74-4.24 2.74 2.74-4.24Zm69.14-4.65 4.24 2.74 4.25-2.74-2.75 4.24 2.75 4.25-4.25-2.75-4.24 2.75 2.74-4.25Zm12.76-.25 4.25 2.75 4.24-2.75-2.74 4.25 2.74 4.24-4.24-2.74-4.24 2.74 2.74-4.24Z"
    clip-path="url(#a)"
  /><path
    fill="#a64d79"
    d="m167.85 451.31 4.25 2.74 4.24-2.74-2.74 4.24 2.74 4.25-4.24-2.75-4.25 2.75 2.75-4.25Zm28.65-29.27 4.24 2.74 4.25-2.74-2.75 4.24 2.75 4.25-4.25-2.75-4.24 2.75 2.74-4.25Zm104.61-54.23 4.24 2.74 4.25-2.74-2.75 4.24 2.75 4.25-4.25-2.75-4.24 2.75 2.74-4.25Zm44.95-40.49 4.24 2.75 4.25-2.75-2.75 4.25 2.75 4.24-4.25-2.74-4.24 2.74 2.74-4.24Zm264.6-48.14 4.25 2.74 4.24-2.74-2.74 4.24 2.74 4.25-4.24-2.75-4.25 2.75 2.75-4.25Zm26.49-5.08 4.24 2.74 4.24-2.75-2.74 4.25 2.74 4.24-4.24-2.74-4.24 2.74 2.74-4.24Zm51.94-8.41 4.24 2.74 4.24-2.74-2.74 4.24 2.74 4.24-4.24-2.74-4.24 2.74 2.74-4.24Zm68.86-5.95 4.24 2.74 4.25-2.74-2.75 4.24 2.75 4.24-4.25-2.74-4.24 2.74 2.74-4.24Zm37.27-.34 4.24 2.74 4.24-2.74-2.74 4.24 2.74 4.25-4.24-2.75-4.24 2.75 2.74-4.25Z"
    clip-path="url(#a)"
  /><path
    stroke="#fff"
    stroke-linecap="round"
    stroke-linejoin="round"
    stroke-width="3"
    d="M184.27 337.77h.13q.93 0 1.51-.27.6-.26.9-.7.32-.45.43-1.02.12-.56.12-1.14v-1.3q0-.59-.14-1.04-.12-.45-.36-.75-.21-.31-.51-.47-.3-.16-.63-.16-.37 0-.67.16-.3.14-.5.4-.2.27-.31.65-.1.36-.1.78 0 .39.1.75.1.34.28.64.2.28.49.45.3.17.68.17.36 0 .67-.14.33-.15.58-.4.25-.25.4-.56.15-.32.17-.66h.51q0 .48-.19.95-.18.47-.53.86-.33.4-.8.63-.45.22-.98.22-.64 0-1.1-.24-.46-.25-.76-.66-.3-.42-.44-.92-.14-.51-.14-1.03 0-.6.16-1.14.17-.53.5-.94.34-.4.83-.64.5-.23 1.15-.23.74 0 1.25.3.52.3.85.8.33.48.47 1.1.15.61.15 1.25v.4q0 .66-.1 1.35-.07.67-.3 1.3-.24.62-.7 1.1-.44.5-1.18.79-.72.28-1.76.28h-.13v-.92Z"
  /><path
    fill="red"
    d="M184.27 337.77h.13q.93 0 1.51-.27.6-.26.9-.7.32-.45.43-1.02.12-.56.12-1.14v-1.3q0-.59-.14-1.04-.12-.45-.36-.75-.21-.31-.51-.47-.3-.16-.63-.16-.37 0-.67.16-.3.14-.5.4-.2.27-.31.65-.1.36-.1.78 0 .39.1.75.1.34.28.64.2.28.49.45.3.17.68.17.36 0 .67-.14.33-.15.58-.4.25-.25.4-.56.15-.32.17-.66h.51q0 .48-.19.95-.18.47-.53.86-.33.4-.8.63-.45.22-.98.22-.64 0-1.1-.24-.46-.25-.76-.66-.3-.42-.44-.92-.14-.51-.14-1.03 0-.6.16-1.14.17-.53.5-.94.34-.4.83-.64.5-.23 1.15-.23.74 0 1.25.3.52.3.85.8.33.48.47 1.1.15.61.15 1.25v.4q0 .66-.1 1.35-.07.67-.3 1.3-.24.62-.7 1.1-.44.5-1.18.79-.72.28-1.76.28h-.13v-.92Z"
  /><path
    stroke="#fff"
    stroke-linecap="round"
    stroke-linejoin="round"
    stroke-width="3"
    d="M220.16 321.63q0 .78-.36 1.33-.36.53-.98.82-.61.28-1.38.28-.76 0-1.39-.28-.6-.3-.96-.82-.36-.55-.36-1.33 0-.5.2-.92.2-.44.56-.75.36-.32.85-.49.5-.17 1.09-.17.8 0 1.4.3.61.3.97.82.36.54.36 1.2Zm-1.09-.02q0-.48-.2-.84-.2-.38-.58-.58-.38-.2-.86-.2-.5 0-.86.2t-.56.58q-.19.36-.19.84 0 .49.19.85.2.34.56.53.37.17.87.17t.86-.17q.38-.2.57-.53.2-.36.2-.85Zm.89-3.98q0 .62-.33 1.12-.33.5-.9.78-.57.28-1.29.28-.73 0-1.3-.28-.57-.28-.9-.78-.31-.5-.31-1.12 0-.75.31-1.27.33-.51.9-.8.57-.28 1.3-.28.74 0 1.3.28.56.29.9.8.32.52.32 1.27Zm-1.08.01q0-.42-.19-.75-.18-.33-.51-.51-.31-.2-.74-.2t-.76.18q-.31.17-.49.5-.17.33-.17.78 0 .44.17.77.18.33.5.51.33.2.75.2.43 0 .74-.2.33-.18.51-.51.2-.33.2-.77Z"
  /><path
    fill="red"
    d="M220.16 321.63q0 .78-.36 1.33-.36.53-.98.82-.61.28-1.38.28-.76 0-1.39-.28-.6-.3-.96-.82-.36-.55-.36-1.33 0-.5.2-.92.2-.44.56-.75.36-.32.85-.49.5-.17 1.09-.17.8 0 1.4.3.61.3.97.82.36.54.36 1.2Zm-1.09-.02q0-.48-.2-.84-.2-.38-.58-.58-.38-.2-.86-.2-.5 0-.86.2t-.56.58q-.19.36-.19.84 0 .49.19.85.2.34.56.53.37.17.87.17t.86-.17q.38-.2.57-.53.2-.36.2-.85Zm.89-3.98q0 .62-.33 1.12-.33.5-.9.78-.57.28-1.29.28-.73 0-1.3-.28-.57-.28-.9-.78-.31-.5-.31-1.12 0-.75.31-1.27.33-.51.9-.8.57-.28 1.3-.28.74 0 1.3.28.56.29.9.8.32.52.32 1.27Zm-1.08.01q0-.42-.19-.75-.18-.33-.51-.51-.31-.2-.74-.2t-.76.18q-.31.17-.49.5-.17.33-.17.78 0 .44.17.77.18.33.5.51.33.2.75.2.43 0 .74-.2.33-.18.51-.51.2-.33.2-.77Z"
  /><path
    stroke="#fff"
    stroke-linecap="round"
    stroke-linejoin="round"
    stroke-width="3"
    d="M342.68 247.4v.6l-3.53 7.93H338l3.53-7.64h-4.63v-.9h5.77Z"
  /><path
    fill="red"
    d="M342.68 247.4v.6l-3.53 7.93H338l3.53-7.64h-4.63v-.9h5.77Z"
  /><path
    stroke="#fff"
    stroke-linecap="round"
    stroke-linejoin="round"
    stroke-width="3"
    d="M405.25 216.03h.1v.92h-.1q-.86 0-1.45.28-.58.28-.92.75-.33.45-.49 1.05-.14.57-.14 1.17v1.25q0 .56.13 1 .14.44.37.75.24.3.53.45.3.14.61.14.38 0 .67-.14.3-.14.5-.4.2-.27.3-.61.11-.36.11-.8 0-.38-.1-.74-.09-.36-.27-.62-.2-.28-.49-.44-.3-.17-.69-.17-.45 0-.84.22-.39.22-.64.58t-.28.76h-.58q.1-.65.31-1.12.22-.47.57-.77.34-.3.75-.42.42-.14.89-.14.64 0 1.09.25.47.23.77.64.3.39.45.89.14.5.14 1.03 0 .6-.17 1.13-.17.53-.52.93-.33.4-.83.63-.48.22-1.14.22-.68 0-1.2-.28-.52-.3-.86-.77-.33-.48-.5-1.06-.17-.58-.17-1.17v-.52q0-.9.17-1.76.19-.88.64-1.58.45-.7 1.25-1.11.8-.42 2.03-.42Z"
  /><path
    fill="red"
    d="M405.25 216.03h.1v.92h-.1q-.86 0-1.45.28-.58.28-.92.75-.33.45-.49 1.05-.14.57-.14 1.17v1.25q0 .56.13 1 .14.44.37.75.24.3.53.45.3.14.61.14.38 0 .67-.14.3-.14.5-.4.2-.27.3-.61.11-.36.11-.8 0-.38-.1-.74-.09-.36-.27-.62-.2-.28-.49-.44-.3-.17-.69-.17-.45 0-.84.22-.39.22-.64.58t-.28.76h-.58q.1-.65.31-1.12.22-.47.57-.77.34-.3.75-.42.42-.14.89-.14.64 0 1.09.25.47.23.77.64.3.39.45.89.14.5.14 1.03 0 .6-.17 1.13-.17.53-.52.93-.33.4-.83.63-.48.22-1.14.22-.68 0-1.2-.28-.52-.3-.86-.77-.33-.48-.5-1.06-.17-.58-.17-1.17v-.52q0-.9.17-1.76.19-.88.64-1.58.45-.7 1.25-1.11.8-.42 2.03-.42Z"
  /><path
    stroke="#fff"
    stroke-linecap="round"
    stroke-linejoin="round"
    stroke-width="3"
    d="m647.4 197.32-.87-.22.43-4.25h4.37v1h-3.45l-.27 2.33q.24-.14.6-.25.37-.12.84-.12.58 0 1.05.2.46.2.8.58.34.37.5.9.18.52.18 1.17 0 .61-.17 1.13-.16.52-.5.9-.33.38-.85.6-.5.22-1.18.22-.52 0-.97-.14-.45-.16-.83-.46-.36-.3-.58-.73-.22-.44-.28-1.05h1.03q.06.49.27.82.22.32.56.5.34.15.8.15.39 0 .68-.12.3-.14.5-.4.22-.24.33-.6.11-.36.11-.8 0-.4-.12-.75-.11-.34-.33-.6-.22-.26-.53-.4-.31-.16-.74-.16-.53 0-.8.16-.3.14-.59.4Z"
  /><path
    fill="red"
    d="m647.4 197.32-.87-.22.43-4.25h4.37v1h-3.45l-.27 2.33q.24-.14.6-.25.37-.12.84-.12.58 0 1.05.2.46.2.8.58.34.37.5.9.18.52.18 1.17 0 .61-.17 1.13-.16.52-.5.9-.33.38-.85.6-.5.22-1.18.22-.52 0-.97-.14-.45-.16-.83-.46-.36-.3-.58-.73-.22-.44-.28-1.05h1.03q.06.49.27.82.22.32.56.5.34.15.8.15.39 0 .68-.12.3-.14.5-.4.22-.24.33-.6.11-.36.11-.8 0-.4-.12-.75-.11-.34-.33-.6-.22-.26-.53-.4-.31-.16-.74-.16-.53 0-.8.16-.3.14-.59.4Z"
  /><path
    stroke="#fff"
    stroke-linecap="round"
    stroke-linejoin="round"
    stroke-width="3"
    d="M680.2 192.9v.9h-6.16v-.64l3.81-5.91h.9l-.96 1.7-2.52 3.96h4.93Zm-1.2-5.65v8.53h-1.07v-8.53H679Z"
  /><path
    fill="red"
    d="M680.2 192.9v.9h-6.16v-.64l3.81-5.91h.9l-.96 1.7-2.52 3.96h4.93Zm-1.2-5.65v8.53h-1.07v-8.53H679Z"
  /><path
    stroke="#fff"
    stroke-linecap="round"
    stroke-linejoin="round"
    stroke-width="3"
    d="M778.34 173.94h.76q.58 0 .94-.19.37-.2.56-.53.19-.33.19-.75 0-.48-.17-.81-.16-.35-.49-.52-.33-.17-.83-.17-.46 0-.8.19-.35.17-.56.5-.18.33-.18.78h-1.1q0-.66.33-1.19.33-.53.92-.84.6-.33 1.4-.33.76 0 1.34.28.58.27.9.81.33.53.33 1.33 0 .33-.15.69-.16.36-.47.69-.32.3-.82.51-.48.2-1.18.2h-.92v-.65Zm0 .89v-.66h.92q.8 0 1.34.2.53.2.84.52.32.31.44.7.13.38.13.77 0 .6-.2 1.06-.2.46-.58.78-.36.32-.86.49-.49.17-1.07.17-.56 0-1.04-.16-.49-.17-.86-.46-.38-.3-.6-.74-.2-.45-.2-1.01h1.08q0 .43.19.78.2.33.56.51.37.17.87.17t.86-.17q.36-.17.55-.51.2-.36.2-.9 0-.52-.22-.87-.21-.34-.64-.5-.4-.17-.95-.17h-.76Z"
  /><path
    fill="red"
    d="M778.34 173.94h.76q.58 0 .94-.19.37-.2.56-.53.19-.33.19-.75 0-.48-.17-.81-.16-.35-.49-.52-.33-.17-.83-.17-.46 0-.8.19-.35.17-.56.5-.18.33-.18.78h-1.1q0-.66.33-1.19.33-.53.92-.84.6-.33 1.4-.33.76 0 1.34.28.58.27.9.81.33.53.33 1.33 0 .33-.15.69-.16.36-.47.69-.32.3-.82.51-.48.2-1.18.2h-.92v-.65Zm0 .89v-.66h.92q.8 0 1.34.2.53.2.84.52.32.31.44.7.13.38.13.77 0 .6-.2 1.06-.2.46-.58.78-.36.32-.86.49-.49.17-1.07.17-.56 0-1.04-.16-.49-.17-.86-.46-.38-.3-.6-.74-.2-.45-.2-1.01h1.08q0 .43.19.78.2.33.56.51.37.17.87.17t.86-.17q.36-.17.55-.51.2-.36.2-.9 0-.52-.22-.87-.21-.34-.64-.5-.4-.17-.95-.17h-.76Z"
  /><path
    stroke="#fff"
    stroke-linecap="round"
    stroke-linejoin="round"
    stroke-width="3"
    d="M851.48 173.2v.9h-5.58v-.79l2.8-3.1q.52-.58.8-.98t.39-.71q.12-.33.12-.66 0-.42-.17-.77-.17-.34-.51-.54-.33-.22-.82-.22-.56 0-.93.23-.38.22-.57.61-.18.4-.18.9h-1.1q0-.73.31-1.32.33-.6.94-.95.63-.36 1.53-.36.82 0 1.4.3.57.28.87.8.31.5.31 1.18 0 .37-.12.76-.13.38-.35.77-.22.38-.51.75-.28.36-.61.72l-2.3 2.48h4.28Z"
  /><path
    fill="red"
    d="M851.48 173.2v.9h-5.58v-.79l2.8-3.1q.52-.58.8-.98t.39-.71q.12-.33.12-.66 0-.42-.17-.77-.17-.34-.51-.54-.33-.22-.82-.22-.56 0-.93.23-.38.22-.57.61-.18.4-.18.9h-1.1q0-.73.31-1.32.33-.6.94-.95.63-.36 1.53-.36.82 0 1.4.3.57.28.87.8.31.5.31 1.18 0 .37-.12.76-.13.38-.35.77-.22.38-.51.75-.28.36-.61.72l-2.3 2.48h4.28Z"
  /><path
    stroke="#fff"
    stroke-linecap="round"
    stroke-linejoin="round"
    stroke-width="3"
    d="M862.21 165.27v8.58h-1.07v-7.22l-2.2.8v-.99l3.12-1.17h.15Z"
  /><path
    fill="red"
    d="M862.21 165.27v8.58h-1.07v-7.22l-2.2.8v-.99l3.12-1.17h.15Z"
  /><path
    stroke="#fff"
    stroke-linecap="round"
    stroke-linejoin="round"
    stroke-width="3"
    d="M170.38 436.65h.12q.94 0 1.52-.27.6-.26.9-.7.32-.45.43-1.02.12-.56.12-1.14v-1.3q0-.59-.14-1.04-.12-.45-.36-.75-.22-.31-.51-.47-.3-.16-.63-.16-.37 0-.67.16-.3.14-.5.4-.2.27-.31.65-.1.36-.1.78 0 .39.1.75.1.34.28.64.2.28.48.45.3.17.7.17.35 0 .66-.14.33-.15.58-.4.25-.25.4-.56.15-.32.16-.66h.52q0 .48-.19.95t-.53.86q-.33.4-.8.63-.45.22-.98.22-.64 0-1.11-.24-.45-.25-.75-.66-.3-.42-.44-.92-.14-.51-.14-1.03 0-.6.16-1.14.17-.53.5-.94.34-.4.83-.64.5-.23 1.15-.23.74 0 1.25.3.52.3.85.8.32.48.46 1.1.16.61.16 1.25v.4q0 .66-.1 1.35-.07.67-.3 1.3-.24.62-.7 1.1-.45.5-1.18.79-.72.28-1.77.28h-.12v-.92Z"
  /><path
    fill="#a64d79"
    d="M170.38 436.65h.12q.94 0 1.52-.27.6-.26.9-.7.32-.45.43-1.02.12-.56.12-1.14v-1.3q0-.59-.14-1.04-.12-.45-.36-.75-.22-.31-.51-.47-.3-.16-.63-.16-.37 0-.67.16-.3.14-.5.4-.2.27-.31.65-.1.36-.1.78 0 .39.1.75.1.34.28.64.2.28.48.45.3.17.7.17.35 0 .66-.14.33-.15.58-.4.25-.25.4-.56.15-.32.16-.66h.52q0 .48-.19.95t-.53.86q-.33.4-.8.63-.45.22-.98.22-.64 0-1.11-.24-.45-.25-.75-.66-.3-.42-.44-.92-.14-.51-.14-1.03 0-.6.16-1.14.17-.53.5-.94.34-.4.83-.64.5-.23 1.15-.23.74 0 1.25.3.52.3.85.8.32.48.46 1.1.16.61.16 1.25v.4q0 .66-.1 1.35-.07.67-.3 1.3-.24.62-.7 1.1-.45.5-1.18.79-.72.28-1.77.28h-.12v-.92Z"
  /><path
    stroke="#fff"
    stroke-linecap="round"
    stroke-linejoin="round"
    stroke-width="3"
    d="M203.34 405.97q0 .78-.36 1.33-.36.53-.99.83-.6.28-1.37.28-.77 0-1.4-.28-.6-.3-.96-.83-.36-.55-.36-1.33 0-.5.2-.92.2-.44.56-.75.36-.31.85-.49.5-.17 1.1-.17.79 0 1.4.3.6.3.97.83.36.53.36 1.2Zm-1.1-.01q0-.49-.2-.85-.2-.37-.58-.58-.37-.2-.86-.2-.5 0-.86.2t-.56.58q-.19.36-.19.85 0 .48.19.84.2.34.56.53.38.17.88.17t.86-.17q.37-.19.56-.53.2-.36.2-.84Zm.9-3.99q0 .63-.34 1.13-.32.5-.9.78-.56.28-1.28.28-.74 0-1.32-.28-.56-.28-.89-.78-.3-.5-.3-1.13 0-.75.3-1.26.33-.52.9-.8.57-.28 1.3-.28.74 0 1.3.28.57.28.9.8.32.51.32 1.26Zm-1.09.02q0-.43-.18-.75-.19-.33-.52-.52-.31-.2-.73-.2-.44 0-.77.19-.31.17-.48.5-.17.32-.17.78 0 .43.17.76t.5.52q.33.19.75.19t.73-.2q.33-.18.52-.5.18-.34.18-.77Z"
  /><path
    fill="#a64d79"
    d="M203.34 405.97q0 .78-.36 1.33-.36.53-.99.83-.6.28-1.37.28-.77 0-1.4-.28-.6-.3-.96-.83-.36-.55-.36-1.33 0-.5.2-.92.2-.44.56-.75.36-.31.85-.49.5-.17 1.1-.17.79 0 1.4.3.6.3.97.83.36.53.36 1.2Zm-1.1-.01q0-.49-.2-.85-.2-.37-.58-.58-.37-.2-.86-.2-.5 0-.86.2t-.56.58q-.19.36-.19.85 0 .48.19.84.2.34.56.53.38.17.88.17t.86-.17q.37-.19.56-.53.2-.36.2-.84Zm.9-3.99q0 .63-.34 1.13-.32.5-.9.78-.56.28-1.28.28-.74 0-1.32-.28-.56-.28-.89-.78-.3-.5-.3-1.13 0-.75.3-1.26.33-.52.9-.8.57-.28 1.3-.28.74 0 1.3.28.57.28.9.8.32.51.32 1.26Zm-1.09.02q0-.43-.18-.75-.19-.33-.52-.52-.31-.2-.73-.2-.44 0-.77.19-.31.17-.48.5-.17.32-.17.78 0 .43.17.76t.5.52q.33.19.75.19t.73-.2q.33-.18.52-.5.18-.34.18-.77Z"
  /><path
    stroke="#fff"
    stroke-linecap="round"
    stroke-linejoin="round"
    stroke-width="3"
    d="M308.07 345.52v.61l-3.53 7.92h-1.14l3.53-7.64h-4.62v-.89h5.76Z"
  /><path
    fill="#a64d79"
    d="M308.07 345.52v.61l-3.53 7.92h-1.14l3.53-7.64h-4.62v-.89h5.76Z"
  /><path
    stroke="#fff"
    stroke-linecap="round"
    stroke-linejoin="round"
    stroke-width="3"
    d="M351.68 305.02h.1v.92h-.1q-.86 0-1.45.28-.58.28-.93.75-.32.45-.48 1.05-.14.58-.14 1.17v1.25q0 .56.12 1 .15.44.38.75.23.3.53.45.3.14.61.14.38 0 .67-.14.3-.14.5-.4.2-.27.3-.61.1-.36.1-.8 0-.37-.09-.73t-.28-.63q-.18-.28-.48-.44-.3-.17-.69-.17-.45 0-.84.22-.4.22-.64.58-.25.36-.28.76H348q.1-.65.31-1.12.22-.47.56-.77.35-.3.75-.42.42-.14.9-.14.63 0 1.09.25.47.24.76.64.32.4.46.9t.14 1.02q0 .6-.18 1.13-.17.53-.51.94-.33.39-.83.62-.48.22-1.14.22-.69 0-1.2-.28-.52-.3-.86-.77-.33-.48-.5-1.06-.17-.58-.17-1.17v-.52q0-.9.17-1.76.19-.88.64-1.58.45-.7 1.25-1.11.8-.42 2.03-.42Z"
  /><path
    fill="#a64d79"
    d="M351.68 305.02h.1v.92h-.1q-.86 0-1.45.28-.58.28-.93.75-.32.45-.48 1.05-.14.58-.14 1.17v1.25q0 .56.12 1 .15.44.38.75.23.3.53.45.3.14.61.14.38 0 .67-.14.3-.14.5-.4.2-.27.3-.61.1-.36.1-.8 0-.37-.09-.73t-.28-.63q-.18-.28-.48-.44-.3-.17-.69-.17-.45 0-.84.22-.4.22-.64.58-.25.36-.28.76H348q.1-.65.31-1.12.22-.47.56-.77.35-.3.75-.42.42-.14.9-.14.63 0 1.09.25.47.24.76.64.32.4.46.9t.14 1.02q0 .6-.18 1.13-.17.53-.51.94-.33.39-.83.62-.48.22-1.14.22-.69 0-1.2-.28-.52-.3-.86-.77-.33-.48-.5-1.06-.17-.58-.17-1.17v-.52q0-.9.17-1.76.19-.88.64-1.58.45-.7 1.25-1.11.8-.42 2.03-.42Z"
  /><path
    stroke="#fff"
    stroke-linecap="round"
    stroke-linejoin="round"
    stroke-width="3"
    d="m613.49 261.36-.86-.22.42-4.25h4.37v1h-3.45l-.27 2.33q.24-.14.6-.25.37-.12.84-.12.58 0 1.05.2.47.2.8.58.34.37.51.9.17.52.17 1.18 0 .6-.17 1.12-.16.52-.5.9-.33.38-.84.6-.5.22-1.19.22-.52 0-.97-.14-.45-.16-.83-.45-.36-.3-.58-.74-.21-.44-.28-1.05h1.03q.07.49.27.82.22.33.56.5.35.15.8.15.4 0 .69-.12.3-.14.5-.4.22-.24.33-.6.1-.36.1-.8 0-.4-.12-.75-.1-.34-.33-.6-.22-.26-.53-.4-.31-.15-.73-.15-.54 0-.82.15-.28.14-.57.4Z"
  /><path
    fill="#a64d79"
    d="m613.49 261.36-.86-.22.42-4.25h4.37v1h-3.45l-.27 2.33q.24-.14.6-.25.37-.12.84-.12.58 0 1.05.2.47.2.8.58.34.37.51.9.17.52.17 1.18 0 .6-.17 1.12-.16.52-.5.9-.33.38-.84.6-.5.22-1.19.22-.52 0-.97-.14-.45-.16-.83-.45-.36-.3-.58-.74-.21-.44-.28-1.05h1.03q.07.49.27.82.22.33.56.5.35.15.8.15.4 0 .69-.12.3-.14.5-.4.22-.24.33-.6.1-.36.1-.8 0-.4-.12-.75-.1-.34-.33-.6-.22-.26-.53-.4-.31-.15-.73-.15-.54 0-.82.15-.28.14-.57.4Z"
  /><path
    stroke="#fff"
    stroke-linecap="round"
    stroke-linejoin="round"
    stroke-width="3"
    d="M644.36 257.46v.9h-6.16v-.65l3.81-5.9h.9l-.96 1.7-2.51 3.95h4.92Zm-1.19-5.65v8.53h-1.08v-8.53h1.08Z"
  /><path
    fill="#a64d79"
    d="M644.36 257.46v.9h-6.16v-.65l3.81-5.9h.9l-.96 1.7-2.51 3.95h4.92Zm-1.19-5.65v8.53h-1.08v-8.53h1.08Z"
  /><path
    stroke="#fff"
    stroke-linecap="round"
    stroke-linejoin="round"
    stroke-width="3"
    d="M692.13 247.13h.76q.58 0 .94-.18.38-.2.56-.53.2-.33.2-.75 0-.49-.18-.82-.16-.34-.49-.51-.32-.17-.82-.17-.47 0-.82.18-.34.17-.54.5-.19.33-.19.78h-1.1q0-.65.33-1.18.33-.53.93-.85.59-.33 1.39-.33.76 0 1.34.29.58.26.9.8.33.54.33 1.34 0 .32-.15.68-.16.36-.47.7-.31.3-.81.5-.49.21-1.19.21h-.92v-.66Zm0 .9v-.66h.92q.81 0 1.34.2.53.19.85.52.31.31.43.7.13.38.13.77 0 .59-.2 1.06-.2.45-.58.78-.36.31-.86.48-.49.18-1.06.18-.57 0-1.05-.16-.48-.17-.86-.47-.37-.3-.6-.73-.2-.46-.2-1.02h1.08q0 .44.19.78.2.33.56.52.38.17.88.17t.86-.17q.36-.17.54-.52.2-.36.2-.89t-.21-.87q-.22-.35-.64-.5-.41-.18-.96-.18h-.76Z"
  /><path
    fill="#a64d79"
    d="M692.13 247.13h.76q.58 0 .94-.18.38-.2.56-.53.2-.33.2-.75 0-.49-.18-.82-.16-.34-.49-.51-.32-.17-.82-.17-.47 0-.82.18-.34.17-.54.5-.19.33-.19.78h-1.1q0-.65.33-1.18.33-.53.93-.85.59-.33 1.39-.33.76 0 1.34.29.58.26.9.8.33.54.33 1.34 0 .32-.15.68-.16.36-.47.7-.31.3-.81.5-.49.21-1.19.21h-.92v-.66Zm0 .9v-.66h.92q.81 0 1.34.2.53.19.85.52.31.31.43.7.13.38.13.77 0 .59-.2 1.06-.2.45-.58.78-.36.31-.86.48-.49.18-1.06.18-.57 0-1.05-.16-.48-.17-.86-.47-.37-.3-.6-.73-.2-.46-.2-1.02h1.08q0 .44.19.78.2.33.56.52.38.17.88.17t.86-.17q.36-.17.54-.52.2-.36.2-.89t-.21-.87q-.22-.35-.64-.5-.41-.18-.96-.18h-.76Z"
  /><path
    stroke="#fff"
    stroke-linecap="round"
    stroke-linejoin="round"
    stroke-width="3"
    d="M764.99 245.09v.89h-5.58v-.78l2.8-3.11q.51-.58.8-.97.28-.4.39-.72.12-.33.12-.66 0-.42-.17-.76t-.52-.55q-.33-.22-.8-.22-.57 0-.95.24-.37.22-.56.6-.19.4-.19.9h-1.1q0-.72.32-1.31.33-.6.94-.96.62-.36 1.53-.36.81 0 1.4.3.57.28.87.8.3.5.3 1.18 0 .38-.12.77-.12.37-.34.77-.22.37-.52.75-.28.35-.6.71l-2.3 2.49h4.28Z"
  /><path
    fill="#a64d79"
    d="M764.99 245.09v.89h-5.58v-.78l2.8-3.11q.51-.58.8-.97.28-.4.39-.72.12-.33.12-.66 0-.42-.17-.76t-.52-.55q-.33-.22-.8-.22-.57 0-.95.24-.37.22-.56.6-.19.4-.19.9h-1.1q0-.72.32-1.31.33-.6.94-.96.62-.36 1.53-.36.81 0 1.4.3.57.28.87.8.3.5.3 1.18 0 .38-.12.77-.12.37-.34.77-.22.37-.52.75-.28.35-.6.71l-2.3 2.49h4.28Z"
  /><path
    stroke="#fff"
    stroke-linecap="round"
    stroke-linejoin="round"
    stroke-width="3"
    d="M800.22 237.07v8.57h-1.07v-7.22l-2.2.8v-.98l3.12-1.17h.15Z"
  /><path
    fill="#a64d79"
    d="M800.22 237.07v8.57h-1.07v-7.22l-2.2.8v-.98l3.12-1.17h.15Z"
  /><path
    fill="#000"
    d="m447.05 522.43 1.06-.09q.08.66.36 1.06.28.4.86.68.6.25 1.33.25.64 0 1.14-.2.5-.2.73-.52.25-.35.25-.74 0-.4-.23-.7-.24-.31-.77-.52-.36-.14-1.55-.42-1.17-.28-1.64-.53-.62-.33-.92-.8-.3-.48-.3-1.07 0-.65.36-1.2.38-.59 1.08-.87.72-.3 1.58-.3.95 0 1.69.32.73.3 1.12.9.4.6.43 1.35l-1.1.08q-.1-.82-.6-1.22-.5-.42-1.5-.42-1.02 0-1.5.37-.46.38-.46.9 0 .48.33.77.32.3 1.7.61 1.4.31 1.9.55.76.36 1.12.89.36.52.36 1.22 0 .69-.4 1.3-.39.59-1.12.93-.74.33-1.66.33-1.17 0-1.97-.33-.78-.34-1.23-1.03-.44-.69-.45-1.55Zm8.25 5.16V519h.95v.79q.34-.47.77-.7.43-.24 1.04-.24.8 0 1.4.4.62.41.92 1.16.3.75.3 1.64 0 .96-.34 1.72-.32.77-.98 1.17-.66.41-1.38.41-.53 0-.95-.22-.42-.23-.69-.56v3.03h-1.04Zm.95-5.47q0 1.2.48 1.78.49.57 1.18.57.7 0 1.2-.6t.5-1.84q0-1.19-.49-1.77-.48-.6-1.17-.6-.67 0-1.18.63-.52.63-.52 1.83Zm10.3 1.08 1.1.13q-.26.95-.96 1.48t-1.78.53q-1.36 0-2.18-.84-.8-.85-.8-2.36 0-1.56.82-2.42.81-.88 2.1-.88 1.24 0 2.02.84.8.85.8 2.4v.28h-4.64q.06 1.03.58 1.57.51.54 1.3.54.57 0 .98-.3.42-.31.66-.97Zm-3.46-1.7h3.47q-.06-.8-.39-1.2-.51-.6-1.31-.6-.74 0-1.24.48-.48.49-.53 1.32Zm10.46 1.7 1.1.13q-.26.95-.96 1.48t-1.78.53q-1.36 0-2.18-.84-.8-.85-.8-2.36 0-1.56.82-2.42.81-.88 2.1-.88 1.24 0 2.02.84.8.85.8 2.4v.28h-4.64q.06 1.03.58 1.57.51.54 1.3.54.57 0 .98-.3.42-.31.66-.97Zm-3.46-1.7h3.47q-.06-.8-.39-1.2-.51-.6-1.31-.6-.74 0-1.24.48-.48.49-.53 1.32Zm10.24 3.7v-.78q-.6.92-1.74.92-.75 0-1.37-.4-.63-.43-.97-1.16-.34-.74-.34-1.69 0-.92.3-1.69.32-.76.95-1.15.62-.4 1.39-.4.56 0 1 .23.43.23.72.6v-3.07h1.04v8.59h-.98Zm-3.33-3.1q0 1.2.5 1.79.5.58 1.19.58t1.17-.57q.48-.56.48-1.72 0-1.28-.5-1.87-.48-.6-1.2-.6-.7 0-1.17.58-.47.57-.47 1.8Zm11.31 5.63q-.87-1.1-1.48-2.58-.6-1.48-.6-3.06 0-1.39.44-2.67.53-1.49 1.64-2.95h.75q-.7 1.21-.94 1.73-.35.81-.56 1.69-.25 1.1-.25 2.2 0 2.83 1.75 5.64h-.75Zm1.99-2.53v-6.22h.93v.88q.3-.47.79-.74.48-.28 1.1-.28.7 0 1.13.28.45.28.63.8.75-1.08 1.92-1.08.93 0 1.42.52.5.5.5 1.57v4.27h-1.05v-3.92q0-.63-.1-.9-.1-.29-.37-.46-.26-.17-.64-.17-.65 0-1.1.43-.41.44-.41 1.41v3.61h-1.07v-4.05q0-.7-.26-1.04-.25-.36-.83-.36-.45 0-.83.23-.37.24-.54.69-.18.45-.18 1.3v3.23h-1.04Zm10.57-1.86 1.04-.16q.09.63.48.96.4.33 1.14.33.72 0 1.06-.29.36-.3.36-.7 0-.36-.3-.56-.23-.14-1.09-.36-1.15-.3-1.6-.5-.44-.22-.68-.6-.23-.37-.23-.84 0-.4.18-.76.2-.36.52-.6.25-.17.67-.3.42-.12.92-.12.72 0 1.27.22.56.2.83.56.26.36.36.96l-1.03.14q-.07-.47-.41-.74-.33-.28-.95-.28-.72 0-1.04.25-.3.23-.3.56 0 .2.12.36.14.17.4.28.16.07.94.27 1.13.31 1.56.5.44.19.7.55.24.36.24.9 0 .53-.31 1-.3.46-.88.72-.57.25-1.3.25-1.23 0-1.87-.5-.62-.51-.8-1.5Zm8.11 4.4h-.75q1.75-2.82 1.75-5.65 0-1.1-.25-2.19-.2-.87-.56-1.68-.23-.52-.94-1.75h.75q1.1 1.46 1.63 2.95.45 1.28.45 2.67 0 1.58-.6 3.06-.62 1.47-1.48 2.58ZM37.88 384.35q.55-.8.8-1.46l.8.33q-.35.92-1.07 1.84.53.96.53 2.11 0 1.18-.56 2.13-.56.94-1.58 1.45-1.02.52-2.3.52-1.26 0-2.3-.52-1.06-.51-1.6-1.47-.55-.95-.55-2.12 0-1.19.58-2.14.56-.97 1.58-1.47 1.01-.5 2.3-.5 1.06 0 1.9.33.84.31 1.47.97Zm-1.45 2.5q.28-.99.82-1.63-.92-1-2.75-1-1.04 0-1.82.36-.79.36-1.2 1.05-.45.67-.45 1.51 0 1.28.88 2.13.86.83 2.6.83 1.67 0 2.57-.83.9-.83.9-2.13 0-.6-.24-1.14-.35.53-.49 1.13l-.82-.28Zm2.37-8.94h-.92q1.06.73 1.06 1.98 0 .55-.2 1.03-.22.47-.53.7-.33.24-.8.34-.3.06-.98.06h-3.85v-1.06h3.45q.82 0 1.11-.07.41-.1.66-.4.23-.33.23-.82 0-.46-.23-.87-.25-.42-.67-.6-.42-.18-1.22-.18h-3.33v-1.05h6.22v.94Zm-.77-6.99q.5.6.7 1.14.21.54.21 1.16 0 1.03-.5 1.58t-1.28.55q-.45 0-.83-.2-.39-.21-.6-.55-.24-.35-.35-.77-.1-.3-.17-.94-.14-1.26-.36-1.87h-.27q-.65 0-.92.3-.34.4-.34 1.2 0 .73.26 1.1.25.35.9.52l-.13 1.03q-.66-.14-1.07-.46-.4-.33-.62-.94-.22-.61-.22-1.4 0-.8.19-1.3t.47-.74q.28-.23.72-.33.26-.04.96-.04h1.41q1.47 0 1.86-.07.4-.08.75-.28v1.11q-.33.16-.77.2Zm-2.35.1q.23.58.4 1.72.1.65.22.92.1.26.33.42.22.14.5.14.42 0 .7-.31.28-.33.28-.94 0-.6-.26-1.08-.27-.48-.74-.7-.36-.17-1.04-.17h-.4Zm3.12-3h-8.6v-1.06h8.6v1.06Zm-7.37-3.03H30.2v-1.07h1.22V365Zm7.37 0h-6.22v-1.07h6.22V365Zm-.94-5.3.92-.16q.1.46.1.8 0 .58-.17.9-.2.3-.49.44-.3.13-1.25.13H33.4v.76h-.8v-.76h-1.56l-.62-1.05h2.17v-1.06h.81v1.06h3.64q.46 0 .58-.04.13-.07.2-.2.08-.12.08-.35 0-.19-.03-.47Zm3.33-.66-.98.13q.09-.35.09-.61 0-.34-.12-.55-.11-.22-.32-.36-.17-.1-.8-.33-.07-.01-.24-.09l-6.24 2.38v-1.14l3.6-1.3q.68-.25 1.45-.45-.74-.2-1.42-.44l-3.63-1.33v-1.05l6.33 2.36q1.02.4 1.4.6.54.28.77.65.25.36.25.86 0 .3-.14.67Zm.14-10.06q-1.1.88-2.58 1.49-1.48.59-3.06.59-1.39 0-2.67-.44-1.49-.53-2.95-1.64v-.75q1.21.7 1.73.94.81.36 1.69.56 1.1.25 2.2.25 2.83 0 5.64-1.75v.75Zm-2.53-2.06h-8.6v-3.24q0-.98.27-1.57.27-.6.81-.93.54-.34 1.13-.34.55 0 1.03.3.49.3.78.9.24-.78.8-1.18.55-.43 1.3-.43.59 0 1.12.25.52.25.8.63.28.37.42.95.14.56.14 1.38v3.28Zm-4.98-1.14v-1.86q0-.75-.1-1.08-.12-.44-.42-.66-.31-.21-.77-.21-.42 0-.75.2-.32.2-.43.6-.13.37-.13 1.29v1.72h2.6Zm3.96 0v-2.14q0-.55-.04-.77-.06-.4-.22-.65-.17-.27-.49-.44-.3-.17-.71-.17-.49 0-.85.25-.36.23-.5.67-.14.44-.14 1.26v1.99h2.95Zm1.02-6.9h-8.6v-2.98q0-1 .13-1.53.17-.73.61-1.25.58-.69 1.49-1.01.89-.35 2.03-.35.98 0 1.73.24.75.22 1.25.57.5.36.78.8.28.42.44 1.02.14.6.14 1.37v3.11Zm-1.02-1.15v-1.83q0-.86-.15-1.34-.16-.49-.45-.77-.4-.4-1.08-.62-.7-.24-1.66-.24-1.34 0-2.06.46-.74.43-.99 1.06-.17.47-.17 1.47v1.81h6.56Zm-1.56-7.31h-1.06v-3.25h1.06v3.25Zm2.58-4.56h-8.6v-3.82q0-1.15.24-1.75.24-.59.83-.95.58-.36 1.28-.36.92 0 1.55.6.62.59.8 1.82.21-.45.42-.68.45-.5 1.14-.94l2.34-1.5v1.44l-1.78 1.12q-.78.5-1.19.83-.4.31-.56.58-.17.25-.25.51-.03.19-.03.63v1.33h3.81v1.14ZM34 324.7v-2.46q0-.76-.15-1.2-.17-.45-.52-.67-.36-.24-.78-.24-.6 0-1 .46-.4.43-.4 1.39v2.72H34Zm4.8-6.91-8.6-3.3v-1.22l8.6-3.51v1.28l-2.6 1.01v3.58l2.6.96v1.2Zm-3.53-2.49v-2.9l-2.38.89q-1.07.42-1.78.6.83.18 1.64.48l2.52.93Zm3.53-7.64h-7.58v2.83h-1.01v-6.81h1.01v2.84h7.58v1.14Zm0-4.84h-8.6v-6.2h1.02v5.06h2.63v-4.75h1.01v4.75h2.92v-5.27h1.02v6.41Zm-2.77-10.6-.09-1.06q.66-.07 1.06-.36.4-.28.68-.85.25-.6.25-1.33 0-.64-.2-1.14-.2-.5-.52-.74-.35-.25-.74-.25-.4 0-.7.24-.31.23-.52.76-.14.36-.42 1.55-.28 1.17-.53 1.64-.33.62-.8.92-.48.3-1.07.3-.65 0-1.2-.36-.59-.38-.87-1.08-.3-.72-.3-1.58 0-.95.32-1.68.3-.74.9-1.13.6-.39 1.35-.42l.08 1.1q-.82.09-1.22.6-.42.5-.42 1.49 0 1.03.37 1.5.38.46.9.46.48 0 .77-.32.3-.33.61-1.7.31-1.4.55-1.91.36-.75.89-1.11.52-.36 1.22-.36.69 0 1.3.39.59.39.93 1.12.33.74.33 1.66 0 1.17-.33 1.97-.34.78-1.03 1.23-.69.44-1.55.46Zm0-8-.09-1.06q.66-.07 1.06-.36.4-.28.68-.85.25-.6.25-1.33 0-.64-.2-1.14-.2-.5-.52-.74-.35-.25-.74-.25-.4 0-.7.24-.31.23-.52.76-.14.36-.42 1.55-.28 1.17-.53 1.64-.33.62-.8.92-.48.3-1.07.3-.65 0-1.2-.36-.59-.38-.87-1.08-.3-.72-.3-1.58 0-.95.32-1.68.3-.74.9-1.13.6-.39 1.35-.42l.08 1.1q-.82.09-1.22.6-.42.5-.42 1.49 0 1.03.37 1.5.38.46.9.46.48 0 .77-.32.3-.33.61-1.7.31-1.4.55-1.91.36-.75.89-1.11.52-.36 1.22-.36.69 0 1.3.39.59.39.93 1.12.33.74.33 1.66 0 1.17-.33 1.97-.34.78-1.03 1.23-.69.44-1.55.46Zm2.77-8.57h-8.6v-1.13h8.6v1.13Zm0-2.77h-8.6v-1.72l6.08-2.03q.86-.28 1.29-.4-.47-.14-1.38-.46l-5.98-2.06v-1.53h8.59v1.1h-7.19l7.19 2.5v1.02l-7.31 2.49h7.31v1.1Zm-8.6-14.67v-1.14h4.98q1.3 0 2.06.3.75.3 1.23 1.06.47.77.47 2 0 1.2-.4 1.98-.43.77-1.2 1.1-.8.33-2.16.33H30.2v-1.14h4.95q1.12 0 1.66-.2.53-.23.82-.73.29-.51.29-1.25 0-1.25-.57-1.78-.58-.53-2.2-.53H30.2Zm7.58-8.48h1.02v5.68q-.37 0-.73-.12-.58-.22-1.14-.69-.57-.48-1.3-1.39-1.16-1.4-1.83-1.89-.67-.5-1.27-.5-.62 0-1.04.45-.44.46-.44 1.18 0 .76.45 1.21.46.46 1.27.47l-.11 1.08q-1.22-.1-1.84-.83-.64-.73-.64-1.97 0-1.23.68-1.95.69-.72 1.7-.72.52 0 1.02.22.49.2 1.05.7.55.49 1.5 1.61.8.96 1.1 1.24.27.26.55.44v-4.22Zm-5.51-4.66q-.92 0-1.56-.45-.64-.47-.64-1.35 0-.8.57-1.34.58-.53 1.7-.53 1.09 0 1.68.55.58.53.58 1.3 0 .79-.58 1.3-.58.52-1.75.52Zm-1.49-1.83q0 .4.35.66.34.25 1.25.25.83 0 1.17-.25.33-.27.33-.66 0-.4-.35-.65-.34-.27-1.23-.27-.84 0-1.17.27-.35.26-.35.65Zm8.33 0-9.04-4.7v-.86l9.04 4.69v.87Zm-2.33-3.72q-.92 0-1.56-.45-.64-.47-.64-1.36 0-.81.58-1.34.56-.53 1.69-.53 1.1 0 1.68.54.58.53.58 1.33 0 .77-.58 1.3-.57.51-1.75.51Zm-1.48-1.84q0 .4.34.67.35.25 1.25.25.82 0 1.16-.26.34-.27.34-.66 0-.4-.34-.66t-1.25-.26q-.83 0-1.16.26-.34.27-.34.66Zm6.03-4.4v.76q-2.81-1.75-5.64-1.75-1.1 0-2.19.25-.87.2-1.68.56-.52.24-1.75.94v-.75q1.46-1.1 2.95-1.63 1.28-.45 2.67-.45 1.58 0 3.06.61 1.47.61 2.58 1.47Zm21.84 244.34v-1.06h3.25v1.06h-3.25Zm9.68 1.56v1.02h-5.7q0-.38.13-.73.22-.58.7-1.15.48-.56 1.38-1.3 1.4-1.15 1.9-1.82.5-.67.5-1.27 0-.62-.46-1.04-.45-.44-1.17-.44-.77 0-1.22.45-.45.46-.47 1.27l-1.08-.11q.11-1.22.83-1.84.73-.65 1.97-.65 1.23 0 1.95.7.72.68.72 1.7 0 .51-.22 1.01-.2.49-.7 1.05-.48.55-1.61 1.5-.95.8-1.23 1.1-.27.27-.44.55h4.22Zm1.45-3.21q0-1.54.31-2.46.31-.94.92-1.44.63-.5 1.57-.5.68 0 1.2.29.53.28.88.8.34.52.53 1.27.18.75.18 2.04 0 1.51-.3 2.43-.3.93-.93 1.44-.61.5-1.56.5-1.24 0-1.96-.89-.84-1.06-.84-3.48Zm1.08 0q0 2.1.5 2.8.5.71 1.22.71.73 0 1.22-.7.5-.7.5-2.81 0-2.13-.5-2.82-.49-.7-1.24-.7-.72 0-1.16.6-.54.8-.54 2.92Zm-12.21-66.91v-1.07h3.25v1.07h-3.25Zm8.1 2.57h-1.05v-6.72q-.39.36-1.01.74-.61.36-1.1.53v-1.02q.88-.42 1.53-1 .68-.59.96-1.15h.67v8.62Zm3.03-4.23q0-1.53.31-2.45.31-.94.92-1.44.63-.5 1.57-.5.68 0 1.2.28.53.28.88.81.34.52.53 1.27.18.75.18 2.03 0 1.51-.3 2.44-.3.92-.93 1.43-.61.5-1.56.5-1.24 0-1.96-.89-.84-1.06-.84-3.48Zm1.08 0q0 2.1.5 2.81.5.7 1.22.7.73 0 1.22-.7.5-.7.5-2.81 0-2.13-.5-2.81-.49-.7-1.24-.7-.72 0-1.16.6-.54.78-.54 2.9Zm-1.08-68.57q0-1.53.31-2.45.31-.94.92-1.44.63-.5 1.57-.5.68 0 1.2.28.53.28.88.82.34.51.53 1.26.18.75.18 2.03 0 1.52-.3 2.44-.3.92-.93 1.44-.61.5-1.56.5-1.24 0-1.96-.9-.84-1.06-.84-3.48Zm1.08 0q0 2.11.5 2.81.5.7 1.22.7.73 0 1.22-.7.5-.7.5-2.8 0-2.13-.5-2.82-.49-.7-1.24-.7-.72 0-1.16.6-.54.79-.54 2.91Zm-4.11-64.33h-1.05v-6.72q-.39.36-1.01.74-.61.36-1.1.53v-1.02q.88-.42 1.53-1 .68-.6.96-1.15h.67v8.62Zm3.03-4.23q0-1.54.31-2.46.31-.94.92-1.44.63-.5 1.57-.5.68 0 1.2.29.53.28.88.8.34.52.53 1.27.18.75.18 2.04 0 1.51-.3 2.43-.3.93-.93 1.44-.61.5-1.56.5-1.24 0-1.96-.89-.84-1.06-.84-3.48Zm1.08 0q0 2.1.5 2.8.5.71 1.22.71.73 0 1.22-.7.5-.7.5-2.81 0-2.13-.5-2.82-.49-.7-1.24-.7-.72 0-1.16.6-.54.8-.54 2.92Zm-2.53-65.35v1.01h-5.7q0-.37.13-.73.22-.58.7-1.14.48-.56 1.38-1.3 1.4-1.15 1.9-1.83.5-.67.5-1.26 0-.63-.46-1.05-.45-.44-1.17-.44-.77 0-1.22.46-.45.45-.47 1.26l-1.08-.1q.11-1.23.83-1.85.73-.64 1.97-.64 1.23 0 1.95.69.72.68.72 1.7 0 .51-.22 1.01-.2.49-.7 1.05-.48.55-1.61 1.5-.95.8-1.23 1.1-.27.28-.44.56h4.22Zm1.45-3.22q0-1.53.31-2.45.31-.94.92-1.44.63-.5 1.57-.5.68 0 1.2.28.53.28.88.81.34.52.53 1.27.18.75.18 2.03 0 1.51-.3 2.44-.3.92-.93 1.43-.61.5-1.56.5-1.24 0-1.96-.89-.84-1.06-.84-3.48Zm1.08 0q0 2.1.5 2.81.5.7 1.22.7.73 0 1.22-.7.5-.7.5-2.81 0-2.13-.5-2.81-.49-.7-1.24-.7-.72 0-1.16.6-.54.78-.54 2.9Zm-8.08-66.6 1.06-.14q.17.9.61 1.3.44.39 1.06.39.75 0 1.27-.52.52-.51.52-1.28 0-.72-.49-1.19-.47-.48-1.2-.48-.3 0-.75.12l.12-.93.17.01q.68 0 1.2-.34.55-.36.55-1.1 0-.57-.39-.95-.39-.39-1.01-.39-.61 0-1.03.4-.4.38-.52 1.15l-1.06-.19q.19-1.05.87-1.62.7-.6 1.7-.6.71 0 1.3.31.6.3.91.82.31.51.31 1.1 0 .55-.3 1.02-.3.45-.87.72.75.17 1.17.73.42.55.42 1.4 0 1.12-.82 1.9-.82.78-2.07.78-1.12 0-1.87-.67-.75-.69-.86-1.75Zm7-1.97q0-1.53.31-2.45.31-.94.92-1.44.63-.5 1.57-.5.68 0 1.2.28.53.28.88.82.34.51.53 1.26.18.75.18 2.03 0 1.52-.3 2.44-.3.92-.93 1.44-.61.5-1.56.5-1.24 0-1.96-.9-.84-1.06-.84-3.48Zm1.08 0q0 2.11.5 2.81.5.7 1.22.7.73 0 1.22-.7.5-.7.5-2.8 0-2.13-.5-2.82-.49-.7-1.24-.7-.72 0-1.16.6-.54.79-.54 2.91Zm109.7 357.82 1.1-.1q.13.82.57 1.22.45.41 1.1.41.74 0 1.27-.58.53-.57.53-1.51 0-.9-.51-1.42-.5-.54-1.33-.54-.5 0-.92.24-.4.23-.64.6l-.99-.13.83-4.4h4.28v1h-3.43l-.46 2.3q.77-.54 1.61-.54 1.13 0 1.9.78t.77 2.01q0 1.16-.67 2.02-.83 1.03-2.25 1.03-1.17 0-1.92-.66-.73-.65-.84-1.73Zm7-1.98q0-1.54.3-2.46.32-.94.93-1.44.63-.5 1.56-.5.7 0 1.2.29.54.28.88.8.35.52.53 1.27.19.75.19 2.04 0 1.51-.31 2.43-.3.93-.92 1.44-.61.5-1.57.5-1.23 0-1.95-.89-.84-1.06-.84-3.48Zm1.07 0q0 2.1.5 2.8.5.71 1.22.71.74 0 1.22-.7.5-.7.5-2.81 0-2.13-.5-2.82-.48-.7-1.23-.7-.72 0-1.16.6-.55.8-.55 2.92Zm98.01 4.23h-1.04v-6.72q-.4.36-1.02.74-.6.35-1.1.53v-1.02q.88-.42 1.54-1 .67-.6.95-1.16h.67v8.63Zm3.04-4.23q0-1.54.3-2.46.32-.94.93-1.44.62-.5 1.56-.5.69 0 1.2.29.54.28.88.8.34.52.53 1.27t.19 2.04q0 1.51-.31 2.43-.3.93-.93 1.44-.6.5-1.56.5-1.23 0-1.95-.89-.84-1.06-.84-3.48Zm1.07 0q0 2.1.5 2.8.5.71 1.22.71.74 0 1.22-.7.5-.7.5-2.81 0-2.13-.5-2.82-.48-.7-1.23-.7-.72 0-1.16.6-.55.8-.55 2.92Zm5.93 0q0-1.54.3-2.46.32-.94.93-1.44.62-.5 1.56-.5.69 0 1.2.29.54.28.88.8.34.52.53 1.27t.19 2.04q0 1.51-.31 2.43-.3.93-.93 1.44-.6.5-1.56.5-1.23 0-1.95-.89-.84-1.06-.84-3.48Zm1.07 0q0 2.1.5 2.8.5.71 1.22.71.74 0 1.22-.7.5-.7.5-2.81 0-2.13-.5-2.82-.48-.7-1.23-.7-.72 0-1.16.6-.55.8-.55 2.92Zm230.17 1.98 1.1-.1q.13.82.57 1.22.45.41 1.1.41.74 0 1.27-.58.53-.57.53-1.51 0-.9-.51-1.42-.5-.54-1.33-.54-.5 0-.92.24-.4.23-.64.6l-.99-.13.83-4.4h4.28v1h-3.44l-.45 2.3q.77-.54 1.61-.54 1.13 0 1.9.78t.77 2.01q0 1.16-.67 2.02-.83 1.03-2.25 1.03-1.17 0-1.92-.66-.74-.65-.84-1.73Zm7-1.98q0-1.54.3-2.46.32-.94.93-1.44.62-.5 1.56-.5.69 0 1.2.29.54.28.88.8.34.52.53 1.27t.19 2.04q0 1.51-.31 2.43-.3.93-.93 1.44-.6.5-1.56.5-1.23 0-1.95-.89-.84-1.06-.84-3.48Zm1.07 0q0 2.1.5 2.8.5.71 1.22.71.74 0 1.22-.7.5-.7.5-2.81 0-2.13-.5-2.82-.48-.7-1.23-.7-.72 0-1.16.6-.55.8-.55 2.92Zm5.93 0q0-1.54.3-2.46.32-.94.93-1.44.62-.5 1.56-.5.69 0 1.2.29.54.28.88.8.34.52.53 1.27t.19 2.04q0 1.51-.31 2.43-.3.93-.93 1.44-.6.5-1.56.5-1.23 0-1.95-.89-.84-1.06-.84-3.48Zm1.07 0q0 2.1.5 2.8.5.71 1.22.71.74 0 1.22-.7.5-.7.5-2.81 0-2.13-.5-2.82-.48-.7-1.23-.7-.72 0-1.16.6-.55.8-.55 2.92Zm91.01 4.23h-1.04v-6.72q-.4.36-1.02.74-.6.35-1.1.53v-1.02q.88-.42 1.54-1 .67-.6.95-1.16h.67v8.63Zm3.03-4.23q0-1.54.32-2.46.3-.94.92-1.44.62-.5 1.56-.5.69 0 1.2.29.54.28.88.8.34.52.53 1.27t.19 2.04q0 1.51-.31 2.43-.3.93-.93 1.44-.6.5-1.56.5-1.23 0-1.95-.89-.85-1.06-.85-3.48Zm1.08 0q0 2.1.5 2.8.5.71 1.22.71.74 0 1.22-.7.5-.7.5-2.81 0-2.13-.5-2.82-.48-.7-1.23-.7-.72 0-1.16.6-.55.8-.55 2.92Zm5.92 0q0-1.54.32-2.46.3-.94.92-1.44.62-.5 1.56-.5.69 0 1.2.29.54.28.88.8.34.52.53 1.27t.19 2.04q0 1.51-.31 2.43-.3.93-.93 1.44-.6.5-1.56.5-1.23 0-1.95-.89-.85-1.06-.85-3.48Zm1.08 0q0 2.1.5 2.8.5.71 1.22.71.74 0 1.22-.7.5-.7.5-2.81 0-2.13-.5-2.82-.48-.7-1.23-.7-.72 0-1.16.6-.55.8-.55 2.92Zm5.92 0q0-1.54.32-2.46.3-.94.92-1.44.62-.5 1.56-.5.69 0 1.2.29.54.28.88.8.34.52.53 1.27t.19 2.04q0 1.51-.31 2.43-.3.93-.93 1.44-.6.5-1.56.5-1.23 0-1.95-.89-.85-1.06-.85-3.48Zm1.08 0q0 2.1.5 2.8.5.71 1.22.71.74 0 1.22-.7.5-.7.5-2.81 0-2.13-.5-2.82-.48-.7-1.23-.7-.72 0-1.16.6-.55.8-.55 2.92Z"
  /><path
    fill="red"
    d="m331.26 96.6 4.24 2.73 4.24-2.74-2.74 4.24 2.74 4.25-4.24-2.75-4.24 2.75 2.74-4.25Z"
  /><path
    fill="#1a1a1a"
    d="M350.27 104.83v-8.59h1.06v8.6h-1.06Zm3.03-7.37v-1.22h1.06v1.22h-1.06Zm0 7.37v-6.22h1.06v6.22h-1.06Zm3.97 0h-.99v-8.59h1.06v3.06q.68-.83 1.7-.83.58 0 1.08.24.52.22.85.64.34.42.53 1.01.19.6.19 1.27 0 1.6-.8 2.47-.8.87-1.89.87-1.1 0-1.73-.92v.78Zm-.02-3.15q0 1.1.31 1.6.5.82 1.35.82.68 0 1.18-.6.52-.59.52-1.8t-.49-1.79q-.48-.58-1.17-.58-.68 0-1.2.61-.5.6-.5 1.74Zm10.1 2.39q-.58.5-1.13.7-.53.2-1.16.2-1.03 0-1.58-.5-.54-.5-.54-1.28 0-.45.2-.83.2-.39.55-.6.34-.24.76-.35.3-.1.94-.17 1.27-.14 1.88-.36v-.27q0-.65-.3-.92-.4-.34-1.2-.34-.74 0-1.1.26-.36.25-.53.91l-1.03-.14q.14-.66.47-1.06.33-.4.94-.63.6-.22 1.4-.22.8 0 1.3.2.5.18.73.46.24.28.33.72.05.26.05.97v1.4q0 1.47.06 1.86.08.4.28.75h-1.1q-.16-.32-.21-.76Zm-.08-2.36q-.58.23-1.72.4-.66.1-.93.22-.26.11-.42.33-.14.22-.14.5 0 .42.31.7.33.29.94.29.61 0 1.08-.27.49-.27.7-.73.18-.36.18-1.05v-.4Zm4.75 3.12-2.36-6.22h1.1l1.35 3.72.39 1.25q.14-.48.4-1.17l1.38-3.8h1.08l-2.36 6.22h-.98Zm3.28-7.37v-1.22h1.06v1.22h-1.06Zm0 7.37v-6.22h1.06v6.22h-1.06Zm3.25 0v-5.4h-.94v-.82h.94v-.67q0-.62.1-.92.16-.42.54-.67.39-.25 1.08-.25.45 0 .98.1l-.16.91q-.32-.04-.62-.04-.49 0-.69.2-.19.2-.19.77v.57h1.22v.82h-1.22v5.4h-1.04Zm7.76 2.53q-.87-1.1-1.48-2.57-.6-1.49-.6-3.07 0-1.39.44-2.67.53-1.48 1.64-2.95h.75q-.7 1.22-.94 1.73-.35.82-.56 1.7-.25 1.08-.25 2.2 0 2.82 1.75 5.63h-.75Zm4.28-3.46.16.92q-.45.1-.8.1-.57 0-.89-.18-.31-.19-.45-.48-.13-.3-.13-1.25v-3.58h-.76v-.82h.76v-1.54l1.05-.63v2.17h1.06v.82h-1.06v3.64q0 .45.05.58.06.12.19.2.12.08.36.08.18 0 .46-.03Zm4.79.93v-.92q-.74 1.06-1.99 1.06-.55 0-1.03-.2-.47-.22-.7-.53-.24-.33-.33-.8-.06-.3-.06-.98V98.6h1.06v3.46q0 .81.06 1.1.1.41.4.66.33.24.82.24.47 0 .87-.24.43-.25.6-.67.19-.42.19-1.22V98.6h1.04v6.22h-.94Zm2.92 0v-6.22h.93v.88q.7-1.02 1.99-1.02.56 0 1.03.2.48.21.72.54.23.33.33.76.04.3.04 1.04v3.82h-1.04v-3.78q0-.65-.13-.97-.12-.3-.44-.5-.3-.2-.73-.2-.67 0-1.17.44-.49.42-.49 1.6v3.41h-1.04Zm11.25-2 1.1.13q-.26.95-.96 1.48t-1.78.53q-1.36 0-2.18-.84-.8-.84-.8-2.36 0-1.56.82-2.42.81-.88 2.1-.88 1.24 0 2.02.85.8.84.8 2.39v.28h-4.64q.06 1.03.58 1.58.51.53 1.3.53.57 0 .98-.3.42-.31.66-.97Zm-3.46-1.7h3.47q-.06-.8-.39-1.19-.51-.6-1.31-.6-.74 0-1.24.48-.48.48-.53 1.31Zm11.75-1.34h-5.67v-.99h5.67v.99Zm0 2.6h-5.67v-.98h5.67v.99Zm1.46-4.93v-1.22h1.06v1.22h-1.06Zm0 7.37v-6.22h1.06v6.22h-1.06Zm6.97 2.4v-3.05q-.25.34-.7.58-.44.21-.94.21-1.11 0-1.91-.87-.8-.9-.8-2.44 0-.94.33-1.67.33-.75.94-1.13.62-.39 1.36-.39 1.15 0 1.8.97v-.83h.96v8.61h-1.04ZM423 101.7q0 1.2.5 1.8.52.59 1.22.59.67 0 1.15-.56.49-.58.49-1.74 0-1.25-.52-1.87-.5-.63-1.2-.63-.67 0-1.16.6-.48.57-.48 1.8Zm6.98 5.65h-.75q1.75-2.8 1.75-5.64 0-1.09-.25-2.18-.2-.88-.56-1.7-.23-.5-.94-1.74h.75q1.1 1.47 1.63 2.95.45 1.28.45 2.67 0 1.58-.6 3.07-.62 1.47-1.48 2.57Z"
  /><path
    fill="#a64d79"
    d="m450.26 96.6 4.24 2.73 4.24-2.74-2.74 4.24 2.74 4.25-4.24-2.75-4.24 2.75 2.74-4.25Z"
  /><path
    fill="#1a1a1a"
    d="M469.27 104.83v-8.59h1.06v8.6h-1.06Zm3.03-7.37v-1.22h1.06v1.22h-1.06Zm0 7.37v-6.22h1.06v6.22h-1.06Zm3.97 0h-.99v-8.59h1.06v3.06q.68-.83 1.7-.83.58 0 1.08.24.52.22.85.64.34.42.53 1.01.19.6.19 1.27 0 1.6-.8 2.47-.8.87-1.89.87-1.1 0-1.73-.92v.78Zm-.02-3.15q0 1.1.31 1.6.5.82 1.35.82.68 0 1.18-.6.52-.59.52-1.8t-.49-1.79q-.48-.58-1.17-.58-.68 0-1.2.61-.5.6-.5 1.74Zm10.1 2.39q-.58.5-1.13.7-.53.2-1.16.2-1.03 0-1.58-.5-.54-.5-.54-1.28 0-.45.2-.83.2-.39.55-.6.34-.24.76-.35.3-.1.94-.17 1.27-.14 1.88-.36v-.27q0-.65-.3-.92-.4-.34-1.2-.34-.74 0-1.1.26-.36.25-.53.91l-1.03-.14q.14-.66.47-1.06.33-.4.94-.63.6-.22 1.4-.22.8 0 1.3.2.5.18.73.46.24.28.33.72.05.26.05.97v1.4q0 1.47.06 1.86.08.4.28.75h-1.1q-.16-.32-.21-.76Zm-.08-2.36q-.58.23-1.72.4-.66.1-.93.22-.26.11-.42.33-.14.22-.14.5 0 .42.31.7.33.29.94.29.61 0 1.08-.27.49-.27.7-.73.18-.36.18-1.05v-.4Zm4.75 3.12-2.36-6.22h1.1l1.35 3.72.39 1.25q.14-.48.4-1.17l1.38-3.8h1.08l-2.36 6.22h-.98Zm3.28-7.37v-1.22h1.06v1.22h-1.06Zm0 7.37v-6.22h1.06v6.22h-1.06Zm3.25 0v-5.4h-.94v-.82h.94v-.67q0-.62.1-.92.16-.42.54-.67.39-.25 1.08-.25.45 0 .98.1l-.16.91q-.32-.04-.62-.04-.49 0-.69.2-.19.2-.19.77v.57h1.22v.82h-1.22v5.4h-1.04Zm7.76 2.53q-.87-1.1-1.48-2.57-.6-1.49-.6-3.07 0-1.39.44-2.67.53-1.48 1.64-2.95h.75q-.7 1.22-.94 1.73-.35.82-.56 1.7-.25 1.08-.25 2.2 0 2.82 1.75 5.63h-.75Zm4.28-3.46.16.92q-.45.1-.8.1-.57 0-.89-.18-.31-.19-.45-.48-.13-.3-.13-1.25v-3.58h-.76v-.82h.76v-1.54l1.05-.63v2.17h1.06v.82h-1.06v3.64q0 .45.05.58.06.12.19.2.12.08.36.08.18 0 .46-.03Zm4.79.93v-.92q-.74 1.06-1.99 1.06-.55 0-1.03-.2-.47-.22-.7-.53-.24-.33-.33-.8-.06-.3-.06-.98V98.6h1.06v3.46q0 .81.06 1.1.1.41.4.66.33.24.82.24.47 0 .87-.24.43-.25.6-.67.19-.42.19-1.22V98.6h1.04v6.22h-.93Zm2.92 0v-6.22h.93v.88q.7-1.02 1.99-1.02.56 0 1.03.2.48.21.72.54.23.33.33.76.04.3.04 1.04v3.82h-1.04v-3.78q0-.65-.13-.97-.12-.3-.44-.5-.3-.2-.73-.2-.67 0-1.17.44-.49.42-.49 1.6v3.41h-1.04Zm11.25-2 1.1.13q-.26.95-.96 1.48t-1.78.53q-1.36 0-2.18-.84-.8-.84-.8-2.36 0-1.56.82-2.42.81-.88 2.1-.88 1.24 0 2.02.85.8.84.8 2.39v.28h-4.64q.06 1.03.58 1.58.51.53 1.3.53.57 0 .98-.3.42-.31.66-.97Zm-3.46-1.7h3.47q-.06-.8-.39-1.19-.51-.6-1.31-.6-.74 0-1.24.48-.48.48-.53 1.31Zm11.75-1.34h-5.67v-.99h5.67v.99Zm0 2.6h-5.67v-.98h5.67v.99Zm1.03.58 1.04-.15q.09.62.48.95.4.33 1.14.33.72 0 1.06-.28.36-.3.36-.7 0-.36-.3-.57-.23-.14-1.09-.36-1.15-.3-1.6-.5-.44-.22-.68-.6-.23-.37-.23-.83 0-.41.18-.77.2-.36.52-.6.25-.17.67-.3.42-.12.92-.12.72 0 1.27.22.56.2.83.57.26.35.36.95l-1.03.14q-.07-.47-.41-.74-.33-.28-.95-.28-.72 0-1.03.25-.32.24-.32.57 0 .2.13.36.14.17.4.28.16.06.94.26 1.13.31 1.56.5.44.19.7.55.24.36.24.9t-.31 1q-.3.46-.88.72-.57.25-1.3.25-1.23 0-1.87-.5-.62-.51-.8-1.5Zm7 0 1.04-.15q.09.62.48.95.4.33 1.14.33.72 0 1.06-.28.36-.3.36-.7 0-.36-.3-.57-.23-.14-1.09-.36-1.15-.3-1.6-.5-.44-.22-.68-.6-.23-.37-.23-.83 0-.41.18-.77.2-.36.52-.6.25-.17.67-.3.42-.12.92-.12.72 0 1.27.22.56.2.83.57.26.35.36.95l-1.03.14q-.07-.47-.41-.74-.33-.28-.95-.28-.72 0-1.03.25-.32.24-.32.57 0 .2.13.36.14.17.4.28.16.06.94.26 1.13.31 1.56.5.44.19.7.55.24.36.24.9t-.31 1q-.3.46-.88.72-.57.25-1.3.25-1.23 0-1.87-.5-.62-.51-.8-1.5Zm7.43-5.51v-1.22h1.06v1.22h-1.06Zm0 7.37v-6.22h1.06v6.22h-1.06Zm3 0v-6.22h.93v.88q.3-.47.79-.73.48-.29 1.1-.29.7 0 1.13.29.45.28.63.8.75-1.09 1.92-1.09.93 0 1.42.52.5.5.5 1.58v4.26h-1.05v-3.92q0-.62-.1-.9-.1-.29-.37-.46-.26-.17-.64-.17-.65 0-1.1.44-.41.44-.41 1.4v3.61h-1.07v-4.04q0-.7-.26-1.05-.25-.36-.83-.36-.45 0-.83.23-.37.24-.54.7-.18.45-.18 1.29v3.23h-1.04Zm11.68 2.53h-.75q1.75-2.8 1.75-5.64 0-1.09-.25-2.18-.2-.88-.56-1.7-.23-.5-.94-1.74h.75q1.1 1.47 1.63 2.95.45 1.28.45 2.67 0 1.58-.6 3.07-.62 1.47-1.48 2.57Z"
  /><path
    fill="#999"
    d="M35.46 62.28h1.32v5.79q0 1.51-.34 2.4-.34.9-1.23 1.45-.9.55-2.35.55-1.4 0-2.31-.48-.9-.49-1.28-1.4-.38-.93-.38-2.52v-5.79h1.33v5.79q0 1.3.24 1.92.25.6.84.95.6.33 1.45.33 1.46 0 2.08-.66.63-.67.63-2.54v-5.79Zm1.78 7.85 1.2-.19q.11.73.58 1.13.47.39 1.31.39.84 0 1.25-.35.42-.34.42-.81 0-.42-.37-.66-.25-.17-1.25-.42-1.36-.34-1.9-.6-.5-.24-.77-.68-.27-.44-.27-.97 0-.48.22-.89.22-.42.6-.7.29-.2.77-.35.5-.15 1.08-.15.85 0 1.49.25.65.23.97.65.3.43.42 1.13l-1.2.17q-.08-.56-.49-.87-.4-.32-1.1-.32-.85 0-1.21.28-.36.27-.36.66 0 .24.14.42.15.2.48.33.17.06 1.08.31 1.31.36 1.83.58.52.22.8.64.3.42.3 1.05 0 .62-.37 1.17-.34.53-1.03.84-.67.3-1.53.3-1.4 0-2.16-.6-.73-.59-.93-1.74Zm7.5-6.44v-1.4h1.22v1.4h-1.22Zm0 8.61v-7.27h1.22v7.27h-1.22Zm2.98 0v-7.27h1.11v1.04q.8-1.2 2.31-1.2.66 0 1.2.24.55.24.82.63.28.37.39.9.08.35.08 1.2v4.46h-1.24v-4.42q0-.75-.14-1.11-.14-.38-.51-.6-.36-.23-.86-.23-.78 0-1.36.5-.56.5-.56 1.9v3.96h-1.24Zm7.78.6 1.2.18q.07.55.41.81.46.33 1.25.33.86 0 1.31-.34.47-.33.65-.95.09-.38.07-1.58-.8.95-2 .95-1.5 0-2.32-1.08-.82-1.08-.82-2.6 0-1.02.38-1.9.37-.89 1.08-1.36.71-.48 1.68-.48 1.28 0 2.13 1.03v-.88h1.12v6.29q0 1.7-.34 2.4t-1.1 1.11q-.74.42-1.84.42-1.3 0-2.1-.6-.79-.57-.76-1.74Zm1.02-4.37q0 1.44.56 2.1.56.65 1.42.65.85 0 1.42-.65.58-.66.58-2.05 0-1.33-.6-2-.58-.69-1.41-.69t-1.4.68q-.57.65-.57 1.96Zm11.6 3.77V62.28h1.3V72.3h-1.3Zm2.59 0v-7.27h1.1v1.11q.43-.78.79-1.01.36-.25.8-.25.62 0 1.26.39l-.42 1.14q-.46-.27-.9-.27-.42 0-.74.25-.32.24-.46.68-.2.65-.2 1.43v3.8h-1.23Zm5.03-8.6v-1.42h1.22v1.41h-1.22Zm0 8.6v-7.27h1.22v7.27h-1.22Zm2.5-2.17 1.2-.19q.11.73.58 1.13.47.39 1.31.39.84 0 1.25-.35.42-.34.42-.81 0-.42-.37-.66-.25-.17-1.25-.42-1.36-.34-1.9-.6-.5-.24-.77-.68-.27-.44-.27-.97 0-.48.22-.89.22-.42.6-.7.29-.2.77-.35.5-.15 1.08-.15.85 0 1.49.25.65.23.97.65.3.43.42 1.13l-1.2.17q-.08-.56-.49-.87-.4-.32-1.1-.32-.85 0-1.21.28-.36.27-.36.66 0 .24.14.42.16.2.48.33.17.06 1.08.31 1.31.36 1.83.58.52.22.8.64.3.42.3 1.05 0 .62-.37 1.17-.34.53-1.03.84-.67.3-1.53.3-1.4 0-2.16-.6-.73-.59-.93-1.74Zm7-.85v-1.23h3.78v1.23h-3.78Zm7.39 3.02-2.66-10.02h1.36l1.53 6.57q.24 1.03.42 2.04.38-1.6.46-1.84l1.9-6.77h1.6l1.44 5.07q.53 1.89.78 3.54.18-.95.5-2.17l1.56-6.44h1.34l-2.75 10.02h-1.28l-2.1-7.64-.32-1.17q-.16.68-.3 1.17L94 72.3h-1.36Zm16.06-2.34 1.28.15q-.31 1.13-1.12 1.75-.82.61-2.08.61-1.6 0-2.53-.98-.92-.99-.92-2.75 0-1.85.93-2.85.96-1.01 2.46-1.01 1.45 0 2.37 1 .92.98.92 2.78v.33h-5.42q.08 1.19.67 1.83.61.64 1.53.64.68 0 1.14-.36.49-.36.77-1.14Zm-4.03-1.99h4.05q-.08-.92-.47-1.37-.58-.7-1.52-.7-.86 0-1.44.56-.56.56-.62 1.51Zm8.2 4.33h-1.14V62.28h1.22v3.57q.78-.97 2-.97.67 0 1.27.26.59.27.98.77.4.48.61 1.17.22.69.22 1.49 0 1.86-.94 2.89-.92 1.01-2.2 1.01-1.28 0-2.02-1.08v.91Zm-.01-3.69q0 1.31.36 1.9.57.95 1.56.95.81 0 1.39-.7.6-.71.6-2.1 0-1.42-.57-2.1-.56-.67-1.36-.67-.81 0-1.4.7-.58.7-.58 2.02Zm7.03 3.69V62.28h3.78q1 0 1.53.1.73.12 1.23.47.5.34.8.97.31.6.31 1.35 0 1.29-.8 2.18-.82.87-2.95.87h-2.57v4.08h-1.33Zm1.33-5.25h2.59q1.28 0 1.81-.48.55-.49.55-1.35 0-.64-.31-1.08-.32-.45-.85-.59-.33-.1-1.23-.1h-2.56v3.6Zm7.53-1.22-.33-1.87v-1.68h1.4v1.68l-.32 1.87h-.75Zm2.5 4.3 1.2-.19q.11.73.58 1.13.47.39 1.31.39.84 0 1.25-.35.42-.34.42-.81 0-.42-.37-.66-.25-.17-1.25-.42-1.36-.34-1.9-.6-.5-.24-.77-.68-.27-.44-.27-.97 0-.48.22-.89.22-.42.6-.7.29-.2.77-.35.5-.15 1.08-.15.85 0 1.49.25.65.23.97.65.3.43.42 1.13l-1.2.17q-.08-.56-.49-.87-.4-.32-1.1-.32-.85 0-1.21.28-.36.27-.36.66 0 .24.14.42.16.2.48.33l1.08.31q1.31.36 1.83.58.52.22.8.64.3.42.3 1.05 0 .62-.37 1.17-.34.53-1.03.84-.67.3-1.53.3-1.4 0-2.16-.6-.73-.59-.93-1.74Zm11 0 1.2-.19q.11.73.58 1.13.47.39 1.31.39.84 0 1.25-.35.42-.34.42-.81 0-.42-.37-.66-.25-.17-1.25-.42-1.36-.34-1.9-.6-.5-.24-.77-.68-.27-.44-.27-.97 0-.48.22-.89.22-.42.6-.7.29-.2.77-.35.5-.15 1.08-.15.85 0 1.49.25.65.23.97.65.3.43.42 1.13l-1.2.17q-.08-.56-.49-.87-.4-.32-1.1-.32-.85 0-1.21.28-.36.27-.36.66 0 .24.14.42.16.2.48.33l1.08.31q1.31.36 1.83.58.52.22.8.64.3.42.3 1.05 0 .62-.37 1.17-.34.53-1.03.84-.67.3-1.53.3-1.4 0-2.16-.6-.73-.59-.93-1.74Zm7.48 4.95V65.03h1.13V66q.39-.56.89-.83.5-.28 1.22-.28.92 0 1.62.48.72.47 1.08 1.35.36.87.36 1.9 0 1.11-.4 2.02-.4.89-1.16 1.37-.75.47-1.6.47-.6 0-1.1-.26-.5-.27-.8-.66v3.53h-1.24Zm1.11-6.37q0 1.4.56 2.07.58.68 1.4.68.8 0 1.39-.7.59-.7.59-2.15 0-1.39-.58-2.08-.56-.68-1.36-.68-.78 0-1.39.73-.6.74-.6 2.13Zm11.86 1.25 1.28.15q-.31 1.13-1.12 1.75-.82.61-2.08.61-1.6 0-2.53-.98-.92-.99-.92-2.75 0-1.85.93-2.85.96-1.01 2.46-1.01 1.45 0 2.37 1 .92.98.92 2.78v.33h-5.42q.08 1.19.67 1.83.61.64 1.53.64.68 0 1.15-.36.48-.36.76-1.14Zm-4.03-1.99h4.05q-.08-.92-.47-1.37-.58-.7-1.52-.7-.86 0-1.44.56-.56.56-.62 1.51Zm12.03 1.99 1.28.15q-.31 1.13-1.12 1.75-.82.61-2.08.61-1.6 0-2.53-.98-.92-.99-.92-2.75 0-1.85.93-2.85.96-1.01 2.46-1.01 1.45 0 2.37 1 .92.98.92 2.78v.33h-5.42q.08 1.19.67 1.83.61.64 1.53.64.68 0 1.15-.36.48-.36.76-1.14Zm-4.03-1.99h4.05q-.08-.92-.47-1.37-.58-.7-1.52-.7-.86 0-1.44.56-.56.56-.62 1.51Zm11.78 4.33v-.92q-.7 1.1-2.03 1.1-.88 0-1.61-.5-.72-.48-1.13-1.34-.39-.86-.39-1.97 0-1.07.36-1.96.36-.9 1.08-1.36.74-.47 1.63-.47.65 0 1.17.28.51.27.83.72v-3.6h1.23V72.3h-1.14Zm-3.89-3.63q0 1.4.58 2.1.6.69 1.39.69.81 0 1.37-.66.57-.67.57-2.02 0-1.5-.58-2.18-.58-.7-1.4-.7-.84 0-1.38.67-.55.67-.55 2.1Zm10.83-1.3q0-1.79.36-2.87.37-1.1 1.1-1.67.71-.6 1.8-.6.82 0 1.43.34.6.32 1 .93.4.61.62 1.49.22.87.22 2.37 0 1.77-.36 2.85-.36 1.07-1.08 1.67-.72.6-1.83.6-1.43 0-2.26-1.06-1-1.25-1-4.06Zm1.26 0q0 2.46.58 3.27.58.82 1.42.82.86 0 1.44-.82t.58-3.28q0-2.48-.58-3.3-.58-.8-1.45-.8-.85 0-1.35.71-.64.92-.64 3.4Zm15.82 4.04q-.68.58-1.32.83-.62.23-1.36.23-1.18 0-1.84-.58-.64-.59-.64-1.51 0-.53.23-.97.25-.44.65-.7.4-.27.89-.41.36-.1 1.09-.19 1.5-.17 2.2-.42v-.31q0-.77-.34-1.06-.47-.43-1.4-.43-.87 0-1.29.32-.4.3-.6 1.06l-1.21-.16q.16-.78.53-1.25.4-.47 1.1-.72.71-.26 1.65-.26.92 0 1.5.22t.84.54q.29.33.4.85.06.31.06 1.12v1.64q0 1.72.08 2.17.07.46.3.88h-1.27q-.2-.4-.25-.9Zm-.1-2.75q-.67.27-2.01.47-.75.1-1.08.25-.31.12-.49.39-.17.26-.17.58 0 .5.38.83.37.32 1.1.32.71 0 1.26-.3.54-.32.8-.87.21-.4.21-1.22v-.45Zm2.88 1.47 1.2-.19q.11.73.58 1.13.47.39 1.31.39.84 0 1.25-.35.42-.34.42-.81 0-.42-.37-.66-.25-.17-1.25-.42-1.36-.34-1.9-.6-.5-.24-.77-.68-.27-.44-.27-.97 0-.48.22-.89.22-.42.6-.7.29-.2.77-.35.5-.15 1.08-.15.85 0 1.49.25.65.23.97.65.3.43.42 1.13l-1.2.17q-.08-.56-.49-.87-.4-.32-1.1-.32-.85 0-1.21.28-.36.27-.36.66 0 .24.14.42.16.2.48.33l1.08.31q1.31.36 1.83.58.52.22.8.64.3.42.3 1.05 0 .62-.37 1.17-.34.53-1.03.84-.67.3-1.53.3-1.4 0-2.16-.6-.73-.59-.93-1.74Zm16.22 1.28q-.68.58-1.32.83-.62.23-1.36.23-1.18 0-1.84-.58-.64-.59-.64-1.51 0-.53.23-.97.25-.44.65-.7.4-.27.89-.41.36-.1 1.09-.19 1.5-.17 2.2-.42v-.31q0-.77-.34-1.06-.47-.43-1.4-.43-.87 0-1.29.32-.4.3-.6 1.06l-1.21-.16q.16-.78.53-1.25.4-.47 1.1-.72.71-.26 1.65-.26.92 0 1.5.22t.84.54q.29.33.4.85.06.31.06 1.12v1.64q0 1.72.08 2.17.07.46.3.88h-1.27q-.2-.4-.25-.9Zm-.1-2.75q-.67.27-2.01.47-.75.1-1.08.25-.31.12-.49.39-.17.26-.17.58 0 .5.38.83.37.32 1.1.32.71 0 1.26-.3.54-.32.8-.87.21-.4.21-1.22v-.45Zm7.35 3.64v-7.27h1.1v1.11q.43-.78.79-1.01.36-.25.8-.25.62 0 1.26.39l-.42 1.14q-.46-.27-.9-.27-.41 0-.74.25-.32.24-.46.68-.2.65-.2 1.43v3.8h-1.23Zm9.98-2.34 1.28.15q-.31 1.13-1.12 1.75-.82.61-2.08.61-1.6 0-2.53-.98-.92-.99-.92-2.75 0-1.85.93-2.85.96-1.01 2.46-1.01 1.45 0 2.37 1 .92.98.92 2.78v.33h-5.42q.08 1.19.67 1.83.61.64 1.53.64.68 0 1.15-.36.48-.36.76-1.14Zm-4.03-1.99h4.05q-.08-.92-.47-1.37-.58-.7-1.52-.7-.86 0-1.44.56-.56.56-.62 1.51Zm7.36 4.33V66h-1.1v-.97h1.1v-.76q0-.74.12-1.1.2-.46.63-.76.45-.3 1.26-.3.52 0 1.15.13l-.2 1.06q-.37-.06-.71-.06-.56 0-.8.23-.23.24-.23.9v.66h1.42V66h-1.42v6.3h-1.22Zm8.67-2.34 1.28.15q-.31 1.13-1.12 1.75-.82.61-2.08.61-1.6 0-2.53-.98-.92-.99-.92-2.75 0-1.85.93-2.85.96-1.01 2.46-1.01 1.45 0 2.37 1 .92.98.92 2.78v.33h-5.42q.08 1.19.67 1.83.61.64 1.53.64.68 0 1.15-.36.48-.36.76-1.14Zm-4.03-1.99h4.05q-.08-.92-.47-1.37-.58-.7-1.52-.7-.86 0-1.44.56-.56.56-.62 1.51Zm7.05 4.33v-7.27h1.1v1.11q.43-.78.79-1.01.36-.25.8-.25.62 0 1.26.39l-.42 1.14q-.46-.27-.9-.27-.41 0-.74.25-.32.24-.46.68-.2.65-.2 1.43v3.8h-1.23Zm9.98-2.34 1.28.15q-.31 1.13-1.12 1.75-.82.61-2.08.61-1.6 0-2.53-.98-.92-.99-.92-2.75 0-1.85.93-2.85.96-1.01 2.46-1.01 1.45 0 2.37 1 .92.98.92 2.78v.33h-5.42q.08 1.19.67 1.83.61.64 1.53.64.68 0 1.15-.36.48-.36.76-1.14Zm-4.03-1.99h4.05q-.08-.92-.47-1.37-.58-.7-1.52-.7-.86 0-1.44.56-.56.56-.62 1.51Zm7.06 4.33v-7.27h1.11v1.04q.8-1.2 2.31-1.2.66 0 1.2.24.55.24.82.63.28.37.39.9.08.35.08 1.2v4.46h-1.24v-4.42q0-.75-.14-1.11-.14-.38-.51-.6-.36-.23-.86-.23-.78 0-1.36.5-.56.5-.56 1.9v3.96h-1.24Zm12.74-2.66 1.22.16q-.2 1.25-1.04 1.97-.8.7-2 .7-1.48 0-2.39-.97-.9-.98-.9-2.8 0-1.18.39-2.06.39-.89 1.19-1.32.8-.44 1.73-.44 1.17 0 1.92.6.77.59.97 1.7l-1.19.18q-.17-.73-.6-1.1-.44-.37-1.05-.37-.94 0-1.52.68-.58.65-.58 2.09 0 1.47.56 2.14.57.66 1.46.66.73 0 1.22-.44.48-.45.6-1.38Zm7.23.32 1.28.15q-.31 1.13-1.12 1.75-.82.61-2.08.61-1.6 0-2.53-.98-.92-.99-.92-2.75 0-1.85.93-2.85.96-1.01 2.46-1.01 1.45 0 2.37 1 .92.98.92 2.78v.33h-5.42q.08 1.19.67 1.83.61.64 1.53.64.68 0 1.15-.36.48-.36.76-1.14Zm-4.03-1.99h4.05q-.08-.92-.47-1.37-.58-.7-1.52-.7-.86 0-1.44.56-.56.56-.62 1.51Zm11.06 7.11V65.03h1.13V66q.39-.56.89-.83.5-.28 1.22-.28.92 0 1.62.48.72.47 1.08 1.35.36.87.36 1.9 0 1.11-.4 2.02-.4.89-1.16 1.37-.75.47-1.6.47-.6 0-1.1-.26-.5-.27-.8-.66v3.53h-1.24Zm1.11-6.37q0 1.4.56 2.07.58.68 1.4.68.8 0 1.38-.7.6-.7.6-2.15 0-1.39-.58-2.08-.56-.68-1.36-.68-.78 0-1.39.73-.6.74-.6 2.13Zm6.44-.03q0-2.02 1.12-3 .93-.8 2.29-.8 1.48 0 2.43.98.96.97.96 2.7 0 1.41-.43 2.22-.42.8-1.23 1.25-.8.44-1.74.44-1.53 0-2.46-.98-.94-.99-.94-2.81Zm1.26 0q0 1.39.61 2.09.61.69 1.54.69.9 0 1.51-.7.61-.71.61-2.13 0-1.35-.6-2.03-.62-.7-1.52-.7-.93 0-1.54.68-.6.69-.6 2.1Zm7.2-4.99v-1.4h1.23v1.4h-1.22Zm0 8.61v-7.27h1.23v7.27h-1.22Zm3 0v-7.27h1.1v1.04q.8-1.2 2.31-1.2.66 0 1.2.24.55.24.82.63.28.37.39.9.08.35.08 1.2v4.46h-1.24v-4.42q0-.75-.14-1.11-.14-.38-.51-.6-.36-.23-.86-.23-.78 0-1.36.5-.56.5-.56 1.9v3.96h-1.24Zm10.68-1.1.17 1.08q-.51.11-.92.11-.67 0-1.05-.2-.36-.22-.51-.56-.14-.35-.14-1.45V66h-.91v-.97h.9v-1.8l1.23-.73v2.53h1.23V66h-1.24v4.24q0 .53.07.69.06.14.2.23.16.1.42.1.22 0 .55-.05Z"
  /><path
    fill="#757575"
    d="M29.08 46.8V32.49h1.75V46.8h-1.75Zm4.05-12.3v-2h1.76v2.01h-1.76Zm0 12.3V36.42h1.76V46.8h-1.76Zm5.6 0h-1.62V32.49h1.75v5.1q1.13-1.4 2.85-1.4.95 0 1.8.4.87.38 1.41 1.08.55.7.86 1.68.32.98.32 2.1 0 2.68-1.32 4.13-1.3 1.45-3.15 1.45-1.85 0-2.9-1.53v1.3Zm0-5.27q0 1.86.5 2.7.84 1.35 2.24 1.35 1.16 0 1.99-1 .84-1 .84-2.98 0-2.03-.81-2.99-.8-.97-1.94-.97-1.16 0-2 1-.83 1-.83 2.9Zm16.16 3.99q-.98.83-1.89 1.17-.9.34-1.93.34-1.7 0-2.63-.82-.92-.85-.92-2.14 0-.77.34-1.4.36-.62.92-1 .57-.39 1.27-.59.52-.12 1.56-.26 2.13-.25 3.13-.6l.01-.47q0-1.06-.5-1.51-.67-.6-2-.6-1.25 0-1.84.44-.58.44-.86 1.55l-1.72-.24q.24-1.1.77-1.78.53-.69 1.54-1.04 1.02-.38 2.36-.38 1.33 0 2.16.31.83.32 1.22.8.39.47.54 1.19.1.45.1 1.62v2.35q0 2.45.1 3.1.12.65.46 1.24h-1.84q-.27-.55-.35-1.28Zm-.15-3.92q-.96.39-2.88.65-1.08.16-1.53.36-.44.19-.69.56-.25.38-.25.85 0 .7.53 1.17.54.47 1.57.47 1.01 0 1.8-.44.8-.45 1.17-1.22.28-.6.28-1.76v-.64Zm3.73.01q0-2.87 1.6-4.26 1.34-1.16 3.26-1.16 2.14 0 3.49 1.4 1.36 1.41 1.36 3.88 0 2-.6 3.16-.6 1.14-1.75 1.78-1.14.62-2.5.62-2.19 0-3.53-1.39-1.33-1.4-1.33-4.03Zm1.8 0q0 2 .86 2.99.87.98 2.2.98 1.31 0 2.17-.98.88-1 .88-3.05 0-1.92-.88-2.9-.87-1-2.17-1-1.33 0-2.2 1-.86.98-.86 2.96Zm9.84 5.19V36.42h1.58v1.46q.48-.75 1.3-1.22.81-.47 1.84-.47 1.16 0 1.9.48.73.47 1.04 1.33 1.23-1.8 3.2-1.8 1.55 0 2.38.85.83.86.83 2.63v7.12h-1.76v-6.53q0-1.06-.17-1.52-.17-.47-.62-.75-.44-.28-1.05-.28-1.1 0-1.83.74-.72.71-.72 2.3v6.04h-1.75v-6.73q0-1.18-.43-1.75-.42-.6-1.4-.6-.74 0-1.38.4-.63.38-.91 1.13-.28.75-.28 2.17v5.38H70.1Zm32.46-5.02 1.89.47q-.6 2.35-2.14 3.58-1.55 1.22-3.8 1.22-2.31 0-3.77-.94-1.43-.95-2.2-2.73-.75-1.8-.75-3.85 0-2.23.84-3.89.86-1.67 2.44-2.53 1.58-.87 3.47-.87 2.16 0 3.6 1.1 1.48 1.08 2.06 3.07l-1.86.44q-.5-1.57-1.46-2.27-.93-.72-2.37-.72-1.66 0-2.77.8-1.1.78-1.56 2.12-.44 1.33-.44 2.74 0 1.83.53 3.2.54 1.36 1.66 2.03 1.13.67 2.42.67 1.6 0 2.7-.92 1.11-.92 1.5-2.72Zm2.9-.17q0-2.87 1.6-4.26 1.34-1.16 3.26-1.16 2.14 0 3.49 1.4 1.36 1.41 1.36 3.88 0 2-.6 3.16-.6 1.14-1.75 1.78-1.14.62-2.5.62-2.19 0-3.53-1.39-1.33-1.4-1.33-4.03Zm1.8 0q0 2 .86 2.99.87.98 2.2.98 1.31 0 2.17-.98.88-1 .88-3.05 0-1.92-.88-2.9-.87-1-2.17-1-1.33 0-2.2 1-.86.98-.86 2.96Zm9.84 5.19V36.42h1.58v1.46q.48-.75 1.3-1.22.81-.47 1.84-.47 1.16 0 1.9.48.73.47 1.04 1.33 1.23-1.8 3.2-1.8 1.55 0 2.38.85.83.86.83 2.63v7.12h-1.75v-6.53q0-1.06-.18-1.52-.17-.47-.62-.75-.44-.28-1.05-.28-1.1 0-1.83.74-.72.71-.72 2.3v6.04h-1.75v-6.73q0-1.18-.43-1.75-.42-.6-1.4-.6-.74 0-1.38.4-.63.38-.91 1.13-.28.75-.28 2.17v5.38h-1.77Zm16 3.97V36.42h1.61v1.35q.56-.78 1.27-1.17.72-.4 1.73-.4 1.33 0 2.35.68 1.01.69 1.53 1.94.53 1.23.53 2.71 0 1.6-.58 2.88-.56 1.27-1.66 1.95-1.09.67-2.3.67-.87 0-1.57-.37-.69-.38-1.14-.94v5.05h-1.77Zm1.6-9.1q0 2 .8 2.96.82.95 1.98.95 1.17 0 2-.98.84-.99.84-3.08 0-1.97-.83-2.95-.8-1-1.93-1t-2 1.06q-.86 1.04-.86 3.04Zm9.39 5.13V36.42h1.58V38q.6-1.1 1.12-1.45.52-.36 1.13-.36.89 0 1.8.56l-.6 1.64q-.64-.39-1.28-.39-.58 0-1.05.36-.45.35-.66.96-.28.93-.28 2.04v5.44h-1.76Zm14.12-3.34 1.81.23q-.42 1.58-1.59 2.47-1.16.87-2.97.87-2.26 0-3.6-1.39-1.34-1.4-1.34-3.93 0-2.63 1.35-4.07 1.34-1.45 3.5-1.45 2.08 0 3.39 1.42 1.33 1.4 1.33 3.99l-.02.47h-7.73q.1 1.7.97 2.6.87.91 2.17.91.97 0 1.64-.5.69-.51 1.1-1.62Zm-5.78-2.85h5.8q-.11-1.3-.66-1.95-.84-1.02-2.19-1.02-1.2 0-2.03.82-.83.8-.92 2.15Zm8.97 3.1 1.75-.29q.14 1.05.81 1.61.67.55 1.88.55 1.2 0 1.78-.48.6-.5.6-1.16 0-.6-.52-.94-.36-.23-1.8-.6-1.94-.5-2.69-.83-.73-.36-1.12-.99-.4-.64-.4-1.4 0-.7.32-1.29.33-.59.87-.98.41-.3 1.11-.5.72-.22 1.53-.22 1.22 0 2.15.36.92.34 1.35.95.44.6.61 1.6l-1.71.23q-.13-.8-.7-1.23-.55-.46-1.57-.46-1.22 0-1.73.41-.52.4-.52.92 0 .35.22.63.2.28.67.47.27.09 1.55.43 1.87.5 2.6.83.74.31 1.16.92.42.6.42 1.5 0 .88-.51 1.66-.52.78-1.49 1.2-.96.42-2.18.42-2.02 0-3.08-.84t-1.36-2.48Zm10 0 1.75-.29q.14 1.05.81 1.61.67.55 1.88.55 1.2 0 1.78-.48.6-.5.6-1.16 0-.6-.52-.94-.36-.23-1.8-.6-1.94-.5-2.69-.83-.73-.36-1.12-.99-.4-.64-.4-1.4 0-.7.32-1.29.33-.59.87-.98.41-.3 1.11-.5.72-.22 1.53-.22 1.22 0 2.15.36.92.34 1.35.95.44.6.61 1.6l-1.71.23q-.13-.8-.7-1.23-.55-.46-1.57-.46-1.22 0-1.73.41-.52.4-.52.92 0 .35.22.63.2.28.67.47.27.09 1.55.43 1.87.5 2.6.83.74.31 1.16.92.42.6.42 1.5 0 .88-.51 1.66-.52.78-1.49 1.2-.96.42-2.18.42-2.02 0-3.08-.84t-1.36-2.48Zm10.72-9.2v-2.02h1.76v2.01h-1.76Zm0 12.29V36.42h1.76V46.8h-1.76Zm3.34-5.19q0-2.87 1.6-4.26 1.34-1.16 3.26-1.16 2.14 0 3.49 1.4 1.36 1.41 1.36 3.88 0 2-.6 3.16-.6 1.14-1.75 1.78-1.14.62-2.5.62-2.19 0-3.53-1.39-1.33-1.4-1.33-4.03Zm1.8 0q0 2 .86 2.99.87.98 2.2.98 1.31 0 2.17-.98.88-1 .88-3.05 0-1.92-.88-2.9-.87-1-2.17-1-1.33 0-2.2 1-.86.98-.86 2.96Zm9.84 5.19V36.42h1.6v1.49q1.14-1.72 3.3-1.72.93 0 1.71.34.8.33 1.19.88.39.55.55 1.3.09.5.09 1.71v6.38h-1.77v-6.31q0-1.08-.2-1.61t-.73-.85q-.52-.3-1.22-.3-1.13 0-1.94.71-.81.7-.81 2.69v5.67h-1.77Zm16.27 0V32.49h10.36v1.68h-8.46v4.38h7.91v1.69h-7.9v4.87h8.78v1.69h-10.7Zm13.15 0v-9H225v-1.38h1.54v-1.09q0-1.05.2-1.56.24-.69.88-1.11.64-.42 1.8-.42.75 0 1.64.17l-.27 1.53q-.54-.1-1.03-.1-.8 0-1.14.35-.33.34-.33 1.28v.95h2.04v1.38h-2.04v9h-1.75Zm6 0v-9H231v-1.38h1.54v-1.09q0-1.05.2-1.56.24-.69.88-1.11.64-.42 1.8-.42.75 0 1.64.17l-.27 1.53q-.54-.1-1.03-.1-.8 0-1.14.35-.33.34-.33 1.28v.95h2.04v1.38h-2.04v9h-1.75Zm5.6-12.3v-2h1.76v2.01h-1.76Zm0 12.3V36.42h1.76V46.8h-1.76Zm10.76-3.8 1.72.22q-.28 1.8-1.45 2.81-1.16 1-2.86 1-2.13 0-3.42-1.39-1.3-1.39-1.3-3.98 0-1.69.55-2.94.56-1.26 1.7-1.89 1.14-.64 2.49-.64 1.68 0 2.75.86t1.39 2.42l-1.72.27q-.24-1.05-.86-1.57-.63-.53-1.5-.53-1.33 0-2.16.96-.83.95-.83 3 0 2.1.8 3.04t2.1.94q1.03 0 1.71-.62.7-.64.9-1.96Zm3.24-8.5v-2h1.76v2.01h-1.76Zm0 12.3V36.42h1.76V46.8h-1.76Zm11.1-3.34 1.8.23q-.42 1.58-1.59 2.47-1.16.87-2.97.87-2.26 0-3.6-1.39-1.34-1.4-1.34-3.93 0-2.63 1.35-4.07 1.34-1.45 3.5-1.45 2.08 0 3.39 1.42 1.33 1.4 1.33 3.99l-.02.47h-7.73q.1 1.7.97 2.6.87.91 2.17.91.97 0 1.64-.5.69-.51 1.1-1.62Zm-5.79-2.85h5.8q-.11-1.3-.66-1.95-.84-1.02-2.19-1.02-1.2 0-2.03.82-.83.8-.92 2.15Zm9.67 6.19V36.42h1.6v1.49q1.14-1.72 3.3-1.72.93 0 1.71.34.8.33 1.19.88.39.55.55 1.3.09.5.09 1.71v6.38h-1.77v-6.31q0-1.08-.2-1.61t-.73-.85q-.52-.3-1.22-.3-1.13 0-1.94.71-.81.7-.81 2.69v5.67h-1.77ZM283.9 43l1.72.22q-.28 1.8-1.45 2.81-1.16 1-2.86 1-2.13 0-3.42-1.39-1.3-1.39-1.3-3.98 0-1.69.55-2.94.56-1.26 1.7-1.89 1.14-.64 2.49-.64 1.68 0 2.75.86t1.39 2.42l-1.72.27q-.24-1.05-.86-1.57-.63-.53-1.5-.53-1.33 0-2.16.96-.83.95-.83 3 0 2.1.8 3.04t2.1.94q1.03 0 1.71-.62.7-.64.9-1.96Zm3.14 7.8-.18-1.66q.57.16 1 .16.6 0 .93-.2.36-.2.58-.53.17-.27.55-1.32l.16-.43-3.94-10.4h1.89l2.16 6.02q.42 1.14.75 2.4.3-1.21.71-2.37l2.22-6.05h1.77l-3.95 10.55q-.63 1.72-.99 2.36-.47.88-1.08 1.27-.6.4-1.44.4-.51 0-1.14-.2Zm14.72-8.47v-1.42h11.13v1.42h-11.13Zm17.96-.12 1.78-.16q.12 1.06.58 1.75.46.69 1.43 1.13.99.42 2.22.42 1.08 0 1.9-.32.84-.32 1.24-.89.4-.56.4-1.23 0-.67-.38-1.17-.4-.5-1.28-.85-.58-.23-2.57-.7-1.96-.47-2.75-.89-1.03-.53-1.53-1.33t-.5-1.78q0-1.1.61-2.03.61-.94 1.8-1.42 1.19-.5 2.62-.5 1.6 0 2.82.51 1.22.52 1.86 1.52.65.98.7 2.25l-1.81.14q-.14-1.36-.99-2.05-.84-.7-2.5-.7-1.72 0-2.51.64-.78.63-.78 1.5 0 .78.56 1.28.55.5 2.86 1.02 2.31.51 3.17.9 1.25.58 1.84 1.47.6.88.6 2.03 0 1.14-.66 2.16-.66 1.02-1.89 1.58-1.22.56-2.75.56-1.94 0-3.25-.56-1.31-.58-2.06-1.72-.75-1.14-.78-2.56Zm13 0 1.78-.16q.12 1.06.58 1.75.46.69 1.43 1.13.99.42 2.22.42 1.08 0 1.9-.32.84-.32 1.24-.89.4-.56.4-1.23 0-.67-.38-1.17-.4-.5-1.28-.85-.58-.23-2.57-.7-1.96-.47-2.75-.89-1.03-.53-1.53-1.33t-.5-1.78q0-1.1.61-2.03.61-.94 1.8-1.42 1.19-.5 2.62-.5 1.6 0 2.82.51 1.22.52 1.86 1.52.65.98.7 2.25l-1.81.14q-.14-1.36-.99-2.05-.84-.7-2.5-.7-1.72 0-2.51.64-.78.63-.78 1.5 0 .78.56 1.28.55.5 2.86 1.02 2.31.51 3.17.9 1.25.58 1.84 1.47.6.88.6 2.03 0 1.14-.66 2.16-.66 1.02-1.89 1.58-1.22.56-2.75.56-1.94 0-3.25-.56-1.31-.58-2.06-1.72-.75-1.14-.78-2.56Zm13.95 4.59V32.49h1.9V46.8h-1.9Zm5.62 0V32.49h2.86l3.38 10.12.69 2.13.76-2.3 3.42-9.95h2.55V46.8h-1.81V34.82l-4.17 11.98h-1.7l-4.15-12.19V46.8h-1.83Zm26.46-14.31h1.89v8.26q0 2.16-.49 3.44-.48 1.27-1.76 2.06-1.27.8-3.35.8-2.01 0-3.3-.69-1.26-.7-1.8-2.01-.55-1.32-.55-3.6V32.5h1.89v8.25q0 1.87.34 2.76.35.88 1.19 1.36.84.47 2.08.47 2.08 0 2.97-.94.89-.95.89-3.65V32.5Zm3.53 14.31V32.49h1.89V45.1h7.05v1.69h-8.94Zm9.5 0 5.5-14.31h2.05l5.86 14.31h-2.16l-1.67-4.34h-5.99l-1.58 4.34h-2.01Zm4.14-5.88h4.84l-1.48-3.96q-.69-1.82-1.02-2.97-.28 1.37-.78 2.73l-1.56 4.2Zm20.66.86 1.89.47q-.6 2.35-2.14 3.58-1.55 1.22-3.8 1.22-2.31 0-3.77-.94-1.43-.95-2.2-2.73-.75-1.8-.75-3.85 0-2.23.84-3.89.86-1.67 2.44-2.53 1.58-.87 3.47-.87 2.16 0 3.6 1.1 1.48 1.08 2.06 3.07l-1.86.44q-.5-1.57-1.46-2.27-.93-.72-2.37-.72-1.66 0-2.77.8-1.1.78-1.56 2.12-.44 1.33-.44 2.74 0 1.83.53 3.2.54 1.36 1.66 2.03 1.13.67 2.42.67 1.6 0 2.7-.92 1.12-.92 1.5-2.72Zm3.8 5.02V32.49h6.35q1.9 0 2.9.39 1 .37 1.6 1.36.6.97.6 2.15 0 1.52-.99 2.57-.98 1.04-3.05 1.32.75.36 1.15.72.82.75 1.57 1.9l2.49 3.9h-2.38l-1.9-2.98q-.83-1.29-1.36-1.97-.53-.7-.97-.96-.42-.28-.86-.39-.33-.06-1.05-.06h-2.2v6.36h-1.9Zm1.9-8h4.08q1.3 0 2.01-.27.74-.26 1.11-.86.4-.59.4-1.28 0-1.01-.74-1.67-.74-.65-2.33-.65h-4.53v4.73Zm10.5 8 5.5-14.31h2.05l5.86 14.31h-2.16l-1.67-4.34h-5.99l-1.58 4.34h-2.01Zm4.14-5.88h4.84l-1.48-3.96q-.69-1.82-1.02-2.97-.28 1.37-.78 2.73l-1.56 4.2Zm18.95 4.2v1.68h-9.45q-.02-.64.2-1.22.36-.97 1.16-1.9.8-.94 2.3-2.18 2.34-1.9 3.15-3.01.83-1.13.83-2.13 0-1.04-.75-1.76t-1.95-.72q-1.27 0-2.03.76-.77.77-.77 2.11l-1.81-.18q.19-2.02 1.39-3.08 1.22-1.07 3.26-1.07 2.05 0 3.25 1.15 1.2 1.14 1.2 2.82 0 .86-.35 1.7-.35.83-1.16 1.76-.81.9-2.7 2.51-1.6 1.33-2.05 1.8-.44.47-.73.95h7.01Z"
  />
</svg>
